<?xml version="1.0" encoding="UTF-8" standalone="no"?>
<!-- Created with Inkscape (http://www.inkscape.org/) -->

<svg
   xmlns:dc="http://purl.org/dc/elements/1.1/"
   xmlns:cc="http://creativecommons.org/ns#"
   xmlns:rdf="http://www.w3.org/1999/02/22-rdf-syntax-ns#"
   xmlns:svg="http://www.w3.org/2000/svg"
   xmlns="http://www.w3.org/2000/svg"
   xmlns:sodipodi="http://sodipodi.sourceforge.net/DTD/sodipodi-0.dtd"
   xmlns:inkscape="http://www.inkscape.org/namespaces/inkscape"
   width="103.68822mm"
   height="85.374832mm"
   viewBox="0 0 103.68822 85.374832"
   version="1.1"
   id="svg8"
   inkscape:version="0.92.1 15371"
   sodipodi:docname="arrows.svg">
  <defs
     id="defs2" />
  <sodipodi:namedview
     id="base"
     pagecolor="#ffffff"
     bordercolor="#666666"
     borderopacity="1.0"
     inkscape:pageopacity="0.0"
     inkscape:pageshadow="2"
     inkscape:zoom="1.979899"
     inkscape:cx="390.36377"
     inkscape:cy="188.63464"
     inkscape:document-units="mm"
     inkscape:current-layer="layer1"
     showgrid="false"
     inkscape:pagecheckerboard="true"
     inkscape:window-width="3104"
     inkscape:window-height="1770"
     inkscape:window-x="96"
     inkscape:window-y="30"
     inkscape:window-maximized="1"
     fit-margin-top="0"
     fit-margin-left="0"
     fit-margin-right="0"
     fit-margin-bottom="0" />
  <metadata
     id="metadata5">
    <rdf:RDF>
      <cc:Work
         rdf:about="">
        <dc:format>image/svg+xml</dc:format>
        <dc:type
           rdf:resource="http://purl.org/dc/dcmitype/StillImage" />
        <dc:title></dc:title>
      </cc:Work>
    </rdf:RDF>
  </metadata>
  <g
     inkscape:label="Layer 1"
     inkscape:groupmode="layer"
     id="layer1"
     transform="translate(403.64015,-114.39647)">
    <path
       style="fill:#000000;stroke-width:0.35277778"
       d="m -303.18866,199.58388 c -0.10166,-0.10166 -3.6603,-0.34209 -7.9081,-0.5343 -8.87004,-0.40136 -10.41028,-0.73268 -14.24966,-3.06516 l -2.64583,-1.60739 -30.0906,-0.058 -30.0906,-0.058 0.0553,0.72539 c 0.10018,1.31322 -0.009,1.32477 -1.52206,0.1616 l -1.49931,-1.15226 1.21061,1.29372 c 0.66583,0.71154 1.11564,1.38868 0.99956,1.50476 -0.7424,0.7424 -14.66887,-2.34866 -14.48665,-3.2154 0.25971,-1.2353 13.86398,-3.4694 13.86398,-2.27675 0,0.19403 -0.11906,0.35777 -0.26458,0.36386 -0.38915,0.0163 -1.58899,1.75281 -1.21111,1.75281 0.17663,0 0.69998,-0.37545 1.163,-0.83433 0.88948,-0.88152 2.42936,-1.53555 2.42936,-1.03183 0,0.16393 -0.25432,0.66115 -0.56515,1.10492 -0.31083,0.44378 -0.48531,0.88671 -0.38772,0.9843 0.0976,0.0976 14.28222,0.19473 31.5214,0.21587 l 31.34397,0.0384 2.52857,-1.12062 c 1.9854,-0.8799 2.97057,-1.11026 4.58612,-1.07236 l 2.05753,0.0483 -2.20458,0.2508 c -2.13074,0.24241 -5.02736,1.26328 -5.02736,1.77184 0,0.13647 2.32189,0.36101 5.15975,0.49898 l 5.15975,0.25085 1.01018,-0.96781 c 1.30328,-1.24862 0.9914,-1.56515 -0.4861,-0.49336 -1.05553,0.76569 -1.09171,0.77105 -0.47681,0.0705 0.75163,-0.85633 0.56711,-1.00323 -1.54733,-1.23189 -0.67909,-0.0734 0.98778,-0.17575 3.70417,-0.22736 2.71639,-0.0516 6.32795,-0.15078 8.0257,-0.22038 1.69774,-0.0696 3.08434,-0.0131 3.08133,0.12557 -0.003,0.13867 -0.90489,0.73528 -2.00419,1.32581 -2.3893,1.2835 -2.68398,1.82559 -1.09856,2.0209 0.99729,0.12286 0.94009,0.15213 -0.39148,0.20034 l -1.55943,0.0565 2.17679,1.96987 c 1.19723,1.08344 2.17679,2.11531 2.17679,2.29306 0,0.33828 -2.2159,0.45913 -2.53669,0.13834 z m 0.78723,-1.38729 c -0.44775,-0.47662 -1.45199,-1.31006 -2.23162,-1.85209 -1.36107,-0.94626 -1.66826,-0.99955 -7.71448,-1.33828 -3.46333,-0.19403 -6.29677,-0.27886 -6.29654,-0.18851 7.1e-4,0.2985 3.31914,3.5399 3.62396,3.5399 0.16426,0 0.20055,-0.15875 0.0806,-0.35278 -0.29049,-0.47004 0.28841,-0.45242 0.76409,0.0233 0.33186,0.33186 5.89152,0.8357 10.85088,0.98336 l 1.73719,0.0517 z m -14.18434,-0.16468 c -0.0647,-0.17914 -0.80102,-1.05227 -1.63632,-1.94028 l -1.51873,-1.61458 h -2.95034 c -1.62268,0 -3.20144,-0.0964 -3.50835,-0.21413 -0.30691,-0.11777 -0.55802,-0.0714 -0.55802,0.10309 0,0.54622 4.3363,2.88263 6.35879,3.42612 2.23265,0.59998 3.98275,0.71003 3.81297,0.23978 z m -74.34078,-3.03797 c -1.29044,-1.46973 -1.31426,-1.6201 -0.38932,-2.45717 0.98523,-0.89161 0.88157,-1.23472 -0.37301,-1.23472 -1.85097,0 -5.96611,0.79053 -5.76968,1.10837 0.10291,0.16651 -0.32497,0.30274 -0.95084,0.30274 -0.62587,0 -1.02428,0.11368 -0.88535,0.25261 0.13894,0.13893 -0.35054,0.43112 -1.08773,0.64931 l -1.34033,0.3967 2.08879,0.62798 c 2.31668,0.6965 6.79244,1.50917 8.61928,1.56501 l 1.18307,0.0362 z m 1.8655,-0.66571 c -0.10586,-0.27588 -0.0159,-0.8315 0.19987,-1.23472 0.44713,-0.83547 -0.0359,-0.99311 -0.67675,-0.22089 -0.4472,0.53885 -0.19252,1.95721 0.35143,1.95721 0.17486,0 0.23132,-0.22572 0.12545,-0.5016 z m 85.06872,-0.82132 2.10563,-1.32291 -1.20057,-0.11458 c -0.76821,-0.0733 -1.5305,0.1254 -2.11667,0.5518 -1.3705,0.9969 -2.08456,1.30127 -1.18067,0.50325 0.43656,-0.38544 0.79375,-0.79441 0.79375,-0.90883 0,-0.11442 -1.00074,-0.20803 -2.22386,-0.20803 -2.06874,0 -2.30545,0.0842 -3.3939,1.20719 l -1.17005,1.20718 1.01265,0.15107 c 0.55696,0.0831 1.97012,0.17485 3.14036,0.20392 1.89577,0.0471 2.35723,-0.0913 4.23333,-1.27006 z m -5.83187,-11.43261 c -0.52377,-0.21629 -2.67281,-0.29891 -5.29166,-0.20345 l -4.40973,0.16074 -1.94027,-1.35973 c -1.06716,-0.74786 -2.81341,-1.99765 -3.88056,-2.77733 -1.06715,-0.77967 -2.29929,-1.67326 -2.73808,-1.98576 -0.7128,-0.50764 -3.70102,-0.5828 -28.04583,-0.70549 -14.98642,-0.0755 -29.11335,-0.19212 -31.39318,-0.25909 -2.27982,-0.067 -4.14514,0.0163 -4.14514,0.18493 0,0.16869 0.87313,0.86523 1.94028,1.54788 1.85887,1.1891 2.43975,1.93241 1.49931,1.91855 -1.09113,-0.0161 -6.83341,-1.15272 -10.93611,-2.16471 -6.06975,-1.4972 -6.03358,-1.76882 0.52916,-3.97352 3.58788,-1.20532 5.80981,-1.74337 7.76111,-1.87939 3.22689,-0.22494 3.42719,0.0742 1.14653,1.712 -0.87312,0.62703 -1.5875,1.2719 -1.5875,1.43304 0,0.16113 0.67469,0.30176 1.49931,0.31249 0.82462,0.0107 15.05241,0.0733 31.61731,0.13903 l 30.118,0.11952 2.16116,-1.93934 c 1.18865,-1.06664 2.63742,-2.46022 3.2195,-3.09684 l 1.05834,-1.15749 7.05555,-0.43914 c 7.31276,-0.45514 8.68091,-0.42513 8.88461,0.19493 0.0662,0.20162 -1.30834,1.59458 -3.05462,3.09545 -3.35424,2.88287 -4.20484,4.28516 -3.02478,4.98659 3.13962,1.86623 7.08857,4.71431 7.17531,5.17501 0.0834,0.44291 -0.27189,0.61124 -1.58513,0.75104 -0.93094,0.0991 -1.93073,0.26885 -2.22178,0.37723 -0.29104,0.10837 -0.92604,0.0332 -1.41111,-0.16715 z m -2.69579,-2.27815 c -1.75194,-1.44841 -5.76026,-4.14453 -5.92167,-3.98312 -0.16724,0.16724 3.86233,3.64091 5.36193,4.62222 1.31301,0.85922 1.75779,0.35138 0.55974,-0.6391 z m 6.57635,1.1098 c 0,-0.22227 -3.44612,-2.44254 -6.69424,-4.31298 -2.39786,-1.38082 -4.26128,-1.93335 -4.22949,-1.25411 0.0226,0.48317 6.41491,5.19959 7.35445,5.42632 1.12855,0.27233 3.56928,0.3686 3.56928,0.14077 z m -9.3279,-0.8699 c -0.33979,-0.37546 -1.76301,-1.55982 -3.1627,-2.6319 -1.96062,-1.50171 -2.864,-1.96867 -3.93479,-2.03392 -2.42931,-0.14802 -4.09154,0.0339 -3.85195,0.42154 0.12397,0.20059 1.5863,1.39122 3.24961,2.64583 l 3.02421,2.28112 h 2.64672 c 2.59478,0 2.63459,-0.0134 2.0289,-0.68267 z m -76.66169,-3.92295 c -0.63059,-0.59103 -1.14653,-1.25829 -1.14653,-1.4828 0,-0.22453 0.59532,-1.02994 1.32292,-1.78981 l 1.32292,-1.3816 -2.11667,0.18229 c -2.68814,0.23151 -6.91429,1.87275 -6.64296,2.57983 0.12216,0.31834 -0.0399,0.50049 -0.44541,0.50049 -2.47777,0 4.97304,2.26204 7.97031,2.41977 0.87616,0.0461 0.87443,0.0394 -0.26458,-1.02817 z m 68.23774,-2.19786 c 1.04897,-0.58447 4.72853,-4.69113 4.45149,-4.96817 -0.60411,-0.60412 -1.72397,-0.005 -4.30604,2.30382 -1.55413,1.38964 -2.74347,2.65964 -2.64299,2.82222 0.2632,0.42587 1.60176,0.34126 2.49754,-0.15787 z m 9.16692,-2.63962 c 1.42324,-1.46542 2.58771,-2.71833 2.58771,-2.78426 0,-0.0659 -1.04731,-0.11986 -2.32736,-0.11986 h -2.32736 l -2.52083,2.38125 c -1.38646,1.30968 -2.63626,2.54 -2.77735,2.73402 -0.35898,0.49372 0.84241,0.72802 2.9708,0.5794 1.72855,-0.12071 1.91858,-0.24139 4.39439,-2.79055 z m 3.11687,0.76562 c 1.16417,-1.08593 2.47386,-2.21538 2.91042,-2.50988 1.11302,-0.75083 0.98814,-1.16037 -0.35278,-1.15688 -0.95066,0.002 -1.58358,0.43941 -3.70488,2.55764 -1.4071,1.40506 -2.66387,2.67372 -2.79283,2.81924 -0.12895,0.14552 0.22856,0.26452 0.79447,0.26445 0.76194,-1.1e-4 1.57819,-0.51248 3.1456,-1.97457 z m -83.78472,-10.54891 c 0,-0.59908 -0.55243,-0.70956 -0.88195,-0.17639 -0.35203,0.5696 -1.23472,0.40442 -1.23472,-0.23106 0,-0.54328 -0.0448,-0.54328 -0.64514,0 -0.86486,0.78269 -2.33314,0.7938 -2.03444,0.0154 0.16735,-0.43611 0.0735,-0.50892 -0.40323,-0.31276 -1.27965,0.5266 -1.85608,0.59961 -1.85608,0.23512 0,-0.39304 3.24355,-4.42826 3.87136,-4.81627 0.90229,-0.55765 0.23908,-1.66119 -2.13836,-3.55811 -1.68958,-1.34809 -2.38436,-2.11094 -2.14268,-2.35262 0.48687,-0.48686 3.9565,-0.62748 4.77607,-0.19356 0.46692,0.24721 0.74005,0.22469 0.9261,-0.0763 0.1631,-0.26391 0.56694,-0.33076 1.05751,-0.17506 0.50782,0.16118 0.89573,0.0867 1.07711,-0.20677 0.21648,-0.35026 0.48291,-0.3678 1.12728,-0.0742 0.66022,0.30081 0.91518,0.27486 1.1718,-0.11928 0.27315,-0.41954 0.54599,-0.35447 1.63218,0.38923 1.60561,1.09934 1.63606,1.09958 1.42797,0.011 -0.16853,-0.88162 0.36904,-1.21936 0.80865,-0.50806 0.14646,0.23698 0.39679,0.14727 0.68361,-0.24498 0.41843,-0.57225 0.51733,-0.57642 1.31249,-0.0554 0.75297,0.49336 0.90093,0.49871 1.18929,0.043 0.26275,-0.41523 0.8643,0.03 2.97518,2.20212 l 2.64583,2.72258 14.46389,-0.19384 c 7.95514,-0.10662 19.62326,-0.0477 25.92917,0.13088 6.3059,0.1786 13.99371,0.21946 17.08402,0.0908 l 5.61874,-0.23393 -1.29721,-1.04066 c -2.07001,-1.66062 -1.77353,-2.17642 1.08403,-1.8859 5.13268,0.52181 14.8072,3.83802 14.44349,4.9509 -0.20955,0.64119 -4.19951,1.87164 -9.71327,2.99546 -2.91761,0.59465 -5.47313,1.08119 -5.67894,1.08119 -0.71793,0 -0.36398,-0.84865 1.05663,-2.53341 l 1.43083,-1.69688 -29.03569,0.006 c -15.96963,0.004 -30.4226,0.1048 -32.11771,0.22512 l -3.08202,0.21877 -2.38603,2.43422 c -1.72838,1.76328 -2.57192,2.38645 -3.06044,2.26091 -0.37091,-0.0953 -0.98642,-0.006 -1.36778,0.19779 -0.50373,0.26958 -0.7648,0.25553 -0.95448,-0.0514 -0.19737,-0.31934 -0.52659,-0.28517 -1.34873,0.13997 -1.4142,0.73131 -1.56994,0.71037 -1.28945,-0.1734 0.20681,-0.65159 0.1512,-0.69176 -0.48574,-0.35088 -0.39561,0.21172 -0.81688,0.54285 -0.93615,0.73584 -0.33542,0.54273 -0.88077,0.41452 -0.88077,-0.20706 0,-0.47382 -0.17914,-0.44722 -1.18817,0.17639 -1.41527,0.87468 -1.63405,0.90215 -1.63405,0.20516 z m -0.91995,-2.66594 c 1.08806,-1.17523 1.97828,-2.28648 1.97828,-2.46945 0,-0.43611 -0.58449,-0.42228 -1.43709,0.034 -0.75397,0.40352 -3.5018,3.73933 -3.5018,4.25111 0,0.83952 1.16233,0.12669 2.96061,-1.81567 z m 5.27543,-0.67186 c 0.70893,-0.7847 1.28896,-1.58503 1.28896,-1.77849 0,-0.60887 -1.42233,-0.38141 -1.66076,0.2656 -0.12513,0.33954 -0.83452,1.3144 -1.57643,2.16633 -0.74191,0.85193 -1.34892,1.69618 -1.34892,1.8761 0,0.49399 1.84291,-0.91987 3.29715,-2.52954 z m 3.16284,1.69649 c 0.63713,-0.41765 1.61786,-1.37015 2.17939,-2.11667 1.38581,-1.84233 1.87618,-1.72814 0.60983,0.14201 -1.61949,2.39163 -1.66807,2.50303 -0.91331,2.09402 0.84704,-0.45901 2.39681,-2.13078 2.9223,-3.15236 0.39596,-0.76977 0.3573,-0.79356 -1.27982,-0.78738 -1.51665,0.006 -1.7984,0.14007 -2.77409,1.32291 -1.3768,1.66912 -2.41257,3.25684 -2.12464,3.25684 0.12205,0 0.7432,-0.34172 1.38034,-0.75937 z m -10.85581,-1.43138 c 1.90759,-1.74344 2.14329,-2.72816 0.3758,-1.57006 -1.021,0.66899 -3.22382,3.40803 -2.74083,3.40803 0.19469,0 1.25896,-0.82709 2.36503,-1.83797 z m 5.22,-0.26121 c 1.36867,-1.51496 1.60259,-2.13416 0.80622,-2.13416 -0.45424,0 -3.39429,3.47661 -3.39429,4.01375 0,0.48271 1.31988,-0.47586 2.58807,-1.87959 z m 4.65316,0.16819 c 0.86802,-0.86803 1.57822,-1.74115 1.57822,-1.94028 0,-0.78921 -1.3762,-0.29764 -2.1962,0.78446 -2.26972,2.99521 -1.9045,3.67829 0.61798,1.15582 z m 6.5171,-0.53846 c 0.87453,-1.04452 1.27531,-1.76389 0.98271,-1.76389 -0.41596,0 -2.74659,2.85259 -2.74659,3.36171 0,0.39974 0.3785,0.0569 1.76388,-1.59782 z m 70.98388,0.18408 c 4.98213,-1.01948 7.05631,-1.64768 7.23779,-2.19212 0.1347,-0.40408 -2.07139,-1.41998 -5.54549,-2.55368 -2.74396,-0.89543 -8.404,-1.97248 -8.71761,-1.65887 -0.12286,0.12285 -0.15723,0.26809 -0.0764,0.32275 0.0808,0.0547 1.07155,0.87071 2.20157,1.81346 l 2.05457,1.71409 -1.6136,1.63824 c -1.79776,1.82521 -1.99478,2.31227 -0.81985,2.02679 0.43656,-0.10608 2.81212,-0.60587 5.27901,-1.11066 z m -42.43105,-2.70932 c 24.00062,-0.0587 30.02019,-0.37756 14.16402,-0.75032 -22.77758,-0.53546 -57.21541,-0.018 -58.06268,0.87242 -0.24644,0.25899 3.1563,0.30419 11.28889,0.14996 6.40292,-0.12143 21.07731,-0.24386 32.60977,-0.27206 z m 34.51803,-0.5558 c -0.91513,-0.0724 -2.50263,-0.0732 -3.52778,-0.002 -1.02515,0.0715 -0.27641,0.13073 1.66387,0.13165 1.94028,0.001 2.77904,-0.0576 1.86391,-0.12998 z m -79.29863,-1.49 c -1.38204,-1.14649 -3.175,-2.26892 -3.175,-1.98762 0,0.28328 3.65752,2.98895 4.05694,3.00114 0.19403,0.006 -0.20285,-0.45016 -0.88194,-1.01352 z m 1.90676,0.29884 c -1.03326,-1.14455 -3.32853,-2.89029 -3.53225,-2.68657 -0.17888,0.17887 3.61785,3.431 4.00556,3.431 0.1093,0 -0.10369,-0.335 -0.47331,-0.74443 z m 2.15018,-0.17301 c -2.32159,-1.95684 -3.37994,-2.69938 -3.5727,-2.50662 -0.33018,0.33018 0.1922,0.92584 1.93092,2.20177 1.92674,1.41391 3.2488,1.65939 1.64178,0.30485 z m 0.92772,-0.87628 c -1.89636,-1.76855 -2.69566,-2.08544 -1.70974,-0.67785 0.62679,0.89487 2.70699,2.47707 3.23181,2.45812 0.20484,-0.007 -0.48009,-0.80852 -1.52207,-1.78027 z m 3.83478,1.62459 c 0,-0.22672 -3.11785,-3.10399 -3.77009,-3.47918 -1.28318,-0.73815 -0.78034,0.29446 0.92143,1.89216 1.59916,1.50137 2.84866,2.19748 2.84866,1.58702 z m 4.58611,-0.10751 c 0,-0.15215 -0.87312,-1.13891 -1.94028,-2.19281 -2.19124,-2.16402 -2.59771,-1.91437 -0.66362,0.4076 1.58621,1.90433 2.6039,2.60204 2.6039,1.78521 z m 2.01515,-0.30075 c 0.14476,-0.43429 -4.08149,-4.52941 -4.3733,-4.23761 -0.27873,0.27874 0.71139,1.74478 2.29355,3.39598 1.27188,1.32737 1.84106,1.55771 2.07975,0.84163 z m -4.13181,0.0676 c 0,-0.28731 -3.93921,-3.37077 -4.30625,-3.37077 -0.49586,0 0.67129,1.7676 1.79692,2.72134 0.79341,0.67226 2.50933,1.11635 2.50933,0.64943 z m 5.68581,-0.46035 c -0.47904,-0.87957 -2.86359,-3.11985 -2.86359,-2.69035 0,0.48748 2.44032,3.30771 2.86212,3.30771 0.21453,0 0.21506,-0.22519 10e-4,-0.61736 z m 68.20354,-13.51145 c -2.50398,-2.51876 -3.68657,-3.32927 -3.68657,-2.52668 0,0.15281 0.79375,1.05966 1.76389,2.01521 1.61179,1.58756 2.20359,2.64583 1.47957,2.64583 -0.15638,0 -1.36661,-1.11125 -2.68943,-2.46944 -1.77586,-1.82337 -2.64752,-2.46897 -3.33165,-2.46763 -0.85817,0.002 -0.76384,0.15739 1.27831,2.10994 2.05498,1.96482 2.63436,2.82713 1.89951,2.82713 -0.16795,0 -1.43795,-1.0907 -2.82222,-2.42377 -1.38428,-1.33308 -2.51687,-2.36112 -2.51687,-2.28455 0,0.0766 0.55476,0.9457 1.2328,1.9314 1.25708,1.82747 1.35,3.28072 0.10791,1.68766 -0.36494,-0.46806 -1.27874,-1.57929 -2.03066,-2.4694 l -1.36714,-1.61839 -9.81937,-0.26512 c -21.60096,-0.58321 -32.5529,-0.72349 -43.33327,-0.55505 l -11.28889,0.17639 -0.10858,1.12026 c -0.0597,0.61614 -0.29785,1.27073 -0.52917,1.45465 -0.45807,0.3642 -12.10602,-2.1248 -12.69368,-2.71246 -0.54278,-0.54278 -0.0325,-0.95348 2.19249,-1.76477 2.86018,-1.04287 9.99052,-2.84849 10.35618,-2.62249 0.1622,0.10024 0.19219,0.6499 0.0667,1.22146 -0.47261,2.15178 -0.70725,2.11772 14.09428,2.04602 7.38812,-0.0358 21.55844,0.14088 31.48961,0.39259 l 18.05667,0.45766 4.16025,-2.67818 c 2.28814,-1.473 4.28554,-2.60075 4.43867,-2.50611 0.4665,0.28831 0.0313,0.68331 -3.08524,2.8003 -1.64882,1.12 -2.99786,2.16649 -2.99786,2.32552 0,0.55307 1.01038,0.28407 2.00141,-0.53284 1.0623,-0.87565 6.0222,-4.11689 6.29987,-4.11689 0.71836,0 -0.25494,0.99056 -2.50986,2.55439 -1.97281,1.36818 -2.49491,1.88328 -1.98842,1.96176 0.38931,0.0603 2.05553,-0.81838 3.84647,-2.02848 1.7378,-1.17419 3.34697,-2.13489 3.57592,-2.13489 0.90391,0 0.3091,0.66431 -2.05316,2.29306 -1.3582,0.93645 -2.46945,1.83548 -2.46945,1.99785 0,0.64252 1.44908,0.24125 2.54536,-0.70484 1.63555,-1.41147 3.88752,-2.88051 4.4157,-2.88051 0.88717,0 0.41192,0.61262 -1.493,1.9246 -1.06715,0.73497 -1.94028,1.47573 -1.94028,1.64613 0,0.68306 1.34449,0.23352 3.35139,-1.12058 3.09712,-2.08968 4.05711,-2.56734 4.05617,-2.01824 -3.5e-4,0.24752 -0.70107,0.92628 -1.55701,1.50836 -1.94944,1.32573 -1.80525,1.61595 0.21893,0.44067 1.87966,-1.09136 3.10274,-1.48984 3.10274,-1.01087 0,0.19761 -1.03187,0.93634 -2.29305,1.64163 -1.37348,0.7681 -2.2963,1.51776 -2.30115,1.86935 -0.004,0.32285 0.97114,1.4702 2.168,2.54966 1.19685,1.07946 2.1053,2.17504 2.01878,2.43461 -0.10155,0.30465 -1.2095,-0.47572 -3.12546,-2.20139 -1.63248,-1.47034 -3.10892,-2.58634 -3.28099,-2.48 -0.17206,0.10634 0.65567,1.17054 1.83941,2.36489 1.18373,1.19435 2.15224,2.28634 2.15224,2.42664 0,0.76964 -1.18866,-0.0359 -3.52778,-2.39074 -1.73545,-1.74712 -2.90079,-2.64584 -3.43075,-2.64584 -0.44142,0 -0.80258,0.12503 -0.80258,0.27785 0,0.15281 0.80568,1.06563 1.79041,2.02847 1.96123,1.91766 2.60131,2.84582 2.15342,3.12263 -0.16027,0.0991 -1.54604,-1.08193 -3.07948,-2.62442 z m -72.83102,-14.37274 c 0,-0.15363 0.71437,-0.98043 1.5875,-1.83734 0.87312,-0.85691 1.5875,-1.68371 1.5875,-1.83734 0,-0.62718 -1.56761,-0.21535 -2.77146,0.7281 -2.08643,1.63512 -4.3053,2.9258 -4.75096,2.76355 -0.234,-0.0852 0.31596,-0.86117 1.26061,-1.77872 0.92164,-0.89518 1.6757,-1.70966 1.6757,-1.80993 0,-0.6331 -1.83613,0.0869 -4.59632,1.80243 -1.75639,1.09162 -3.2701,1.90809 -3.3638,1.81438 -0.39458,-0.39458 0.38628,-1.42465 1.83621,-2.42222 0.85377,-0.58742 1.45042,-1.23289 1.32588,-1.4344 -0.37877,-0.61286 -2.22073,-0.0178 -3.78072,1.22142 -1.82872,1.45267 -3.27654,2.36384 -3.75606,2.36384 -0.77066,0 -0.30239,-0.83972 1.27684,-2.28971 1.57293,-1.44419 1.61103,-1.52424 0.90514,-1.90202 -0.40529,-0.21691 -1.13484,-0.39438 -1.62122,-0.39438 -0.48637,0 -0.9934,-0.1765 -1.12672,-0.39222 -0.38852,-0.62865 0.60967,-1.04921 2.22924,-0.93923 0.82462,0.056 1.49931,0.0133 1.49931,-0.095 0,-0.10822 -0.71438,-0.64833 -1.5875,-1.20022 -1.53555,-0.97061 -1.95617,-1.68999 -1.24509,-2.12946 0.5122,-0.31655 2.25233,0.69443 4.2517,2.47015 1.88778,1.67661 2.0199,1.73769 2.75326,1.27276 0.34501,-0.21873 -0.0495,-0.73911 -1.49931,-1.97773 -1.08213,-0.92449 -1.96751,-1.89974 -1.96751,-2.16721 0,-0.96245 1.27601,-0.43779 3.52778,1.45052 2.81334,2.35924 4.04982,3.07779 5.05096,2.93527 0.6509,-0.0927 0.44826,-0.35493 -1.31134,-1.69711 -2.79769,-2.13401 -3.45156,-2.78489 -3.2025,-3.18786 0.40516,-0.65557 1.1531,-0.32376 3.51757,1.56054 1.31161,1.04524 3.03931,2.26083 3.83933,2.70129 l 1.45459,0.80084 -0.88194,-0.96947 c -0.48507,-0.53321 -1.63601,-1.52418 -2.55764,-2.20217 -1.73923,-1.27944 -2.16651,-2.23094 -1.00182,-2.23094 0.69883,0 3.4943,2.0212 5.7252,4.13947 0.76577,0.72711 1.5487,1.1666 1.94028,1.08916 0.51492,-0.10184 0.26246,-0.43235 -1.17075,-1.53271 -1.97248,-1.51439 -2.45066,-2.20498 -1.90478,-2.75086 0.37508,-0.37508 1.91091,0.66082 4.49386,3.03108 l 1.46741,1.34658 5.94092,0.11211 c 39.05029,0.73695 54.85671,0.9767 54.99919,0.83422 0.31535,-0.31535 -0.26863,-1.33016 -0.76545,-1.33016 -0.27028,0 -0.49142,-0.23813 -0.49142,-0.52917 0,-0.79691 2.19414,-0.66377 5.29167,0.32108 1.4552,0.46268 3.89036,1.04035 5.41146,1.28371 1.70322,0.27251 2.83799,0.63106 2.954,0.93337 0.26767,0.69755 -0.0178,0.87774 -1.92001,1.21221 -0.92562,0.16274 -3.34983,0.78507 -5.38712,1.38296 -5.04455,1.48042 -6.74464,1.41654 -4.74871,-0.17843 0.5745,-0.45909 0.96462,-0.91563 0.86694,-1.01454 -0.25829,-0.26152 -23.92949,-0.89149 -43.84589,-1.16688 l -17.21239,-0.23801 -1.13206,1.0602 c -1.26965,1.18905 -2.73678,2.22516 -3.15083,2.22516 -0.52751,0 -0.2682,-0.95448 0.43127,-1.5875 0.38805,-0.35118 0.70555,-0.85204 0.70555,-1.11301 0,-0.54663 -0.91262,-0.64287 -1.22979,-0.12969 -0.1172,0.18964 -1.2721,1.14214 -2.56644,2.11667 -2.20725,1.66187 -3.25932,2.14364 -3.25932,1.49254 z"
       id="path4550"
       inkscape:connector-curvature="0"
       sodipodi:nodetypes="cscccccccsscscscscsccccccssccscccscsccccsccccscsccccccccscsccccscsccccccccccsccccccssscccccscsccccscccsscscscccccccccccccsccscccsccccscsccsccccsccccccccssccccccccccccccscccssscscccccscccccccccscscccssccccccccccccsscccscsccsscssscccccccscccsccssccscccssccccccccscccsscssccccccsccccscsscsccccsccssccsccccsscscsscccscsccssssccccsscccsccccscsccscssccscscscsccccscccccccscssccccccssccscccccsccsscsccsccsscsccscccsscsssccssscccccscsccscscccc" />
  </g>
</svg>
