<?xml version="1.0" encoding="UTF-8" standalone="no"?>
<!-- Created with Inkscape (http://www.inkscape.org/) -->

<svg
   xmlns:dc="http://purl.org/dc/elements/1.1/"
   xmlns:cc="http://creativecommons.org/ns#"
   xmlns:rdf="http://www.w3.org/1999/02/22-rdf-syntax-ns#"
   xmlns:svg="http://www.w3.org/2000/svg"
   xmlns="http://www.w3.org/2000/svg"
   xmlns:sodipodi="http://sodipodi.sourceforge.net/DTD/sodipodi-0.dtd"
   xmlns:inkscape="http://www.inkscape.org/namespaces/inkscape"
   width="318.8364mm"
   height="140mm"
   viewBox="0 0 318.8364 140"
   version="1.1"
   id="svg8"
   inkscape:version="0.92.1 15371"
   sodipodi:docname="crosses.svg">
  <defs
     id="defs2" />
  <sodipodi:namedview
     id="base"
     pagecolor="#ffffff"
     bordercolor="#666666"
     borderopacity="1.0"
     inkscape:pageopacity="0.0"
     inkscape:pageshadow="2"
     inkscape:zoom="0.35"
     inkscape:cx="-85.641743"
     inkscape:cy="-797.15896"
     inkscape:document-units="mm"
     inkscape:current-layer="layer1"
     showgrid="false"
     inkscape:pagecheckerboard="true"
     inkscape:window-width="3104"
     inkscape:window-height="1770"
     inkscape:window-x="96"
     inkscape:window-y="30"
     inkscape:window-maximized="1"
     showguides="true"
     inkscape:guide-bbox="true"
     inkscape:measure-start="874.54,-544.472"
     inkscape:measure-end="873.277,-457.599"
     fit-margin-top="0"
     fit-margin-left="0"
     fit-margin-right="0"
     fit-margin-bottom="0"
     objecttolerance="4"
     guidetolerance="4"
     inkscape:snap-global="false">
    <sodipodi:guide
       position="41.3577,70.089174"
       orientation="0,1"
       id="guide4514"
       inkscape:locked="false" />
    <sodipodi:guide
       position="69.977865,142.17058"
       orientation="1,0"
       id="guide4516"
       inkscape:locked="false" />
    <sodipodi:guide
       position="-56.46069,277.42577"
       orientation="0,1"
       inkscape:locked="false"
       id="guide4588" />
    <sodipodi:guide
       position="69.977865,257.02382"
       orientation="1,0"
       inkscape:locked="false"
       id="guide4590" />
    <sodipodi:guide
       position="-73.83529,284.97043"
       orientation="1,0"
       inkscape:locked="false"
       id="guide4606" />
    <sodipodi:guide
       position="-88.635421,-53.294644"
       orientation="0,1"
       id="guide4694"
       inkscape:locked="false" />
    <sodipodi:guide
       position="16.938207,-206.76639"
       orientation="0,1"
       id="guide4704"
       inkscape:locked="false" />
    <sodipodi:guide
       position="-27.970239,-128.13393"
       orientation="1,0"
       id="guide4706"
       inkscape:locked="false" />
  </sodipodi:namedview>
  <metadata
     id="metadata5">
    <rdf:RDF>
      <cc:Work
         rdf:about="">
        <dc:format>image/svg+xml</dc:format>
        <dc:type
           rdf:resource="http://purl.org/dc/dcmitype/StillImage" />
        <dc:title></dc:title>
      </cc:Work>
    </rdf:RDF>
  </metadata>
  <g
     inkscape:label="Layer 1"
     inkscape:groupmode="layer"
     id="layer1"
     transform="translate(161.49535,-42.005018)">
    <path
       style="fill:none;stroke:#000000;stroke-width:2;stroke-linecap:butt;stroke-linejoin:miter;stroke-miterlimit:4;stroke-dasharray:none;stroke-opacity:1"
       d="m 30,100 c 1.758219,-1.618388 30.766424,-0.07129 50,0 0.0206,-13.533253 -1.570107,-48.414098 0,-50 1.570107,-1.585902 23.23309,-1.937736 25,0 1.4987,1.643593 0,50 0,50 0,0 48.21958,-1.739177 50,0 1.78042,1.73918 1.7957,23.5382 0,25 -1.7957,1.4618 -50,0 -50,0 0,0 1.93231,48.16985 0,50 -1.93231,1.83015 -23.725495,1.40084 -25,0 -1.274505,-1.40084 0,-50 0,-50 0,0 -48.562971,1.48747 -50,0 -1.437029,-1.48747 -1.758219,-23.38161 0,-25 z"
       id="path4485"
       inkscape:connector-curvature="0"
       sodipodi:nodetypes="zczsczzczzczz" />
    <path
       style="fill:none;stroke:#000000;stroke-width:2;stroke-linecap:butt;stroke-linejoin:miter;stroke-miterlimit:4;stroke-dasharray:none;stroke-opacity:1"
       d="M 92,49.385789 V 175.25986"
       id="path4496"
       inkscape:connector-curvature="0"
       sodipodi:nodetypes="cc" />
    <path
       style="fill:none;stroke:#000000;stroke-width:2;stroke-linecap:butt;stroke-linejoin:miter;stroke-miterlimit:4;stroke-dasharray:none;stroke-opacity:1"
       d="M 29.669271,112.5 H 155.66146"
       id="path4498"
       inkscape:connector-curvature="0"
       sodipodi:nodetypes="cc" />
    <circle
       style="fill:none;fill-opacity:1;fill-rule:nonzero;stroke:#000000;stroke-width:2.137;stroke-linecap:round;stroke-linejoin:bevel;stroke-miterlimit:4;stroke-dasharray:none;stroke-dashoffset:0;stroke-opacity:1;paint-order:normal"
       id="path4504"
       cx="-91.495346"
       cy="112.00502"
       r="68.931458" />
    <path
       style="fill:none;stroke:#000000;stroke-width:2;stroke-linecap:butt;stroke-linejoin:miter;stroke-miterlimit:4;stroke-dasharray:none;stroke-opacity:1"
       d="m -160.16741,106.97247 c 4.93843,6.9824 45.67212,4.94338 68.649925,4.94338 -22.347845,-8.19938 -53.368565,-4.84713 -62.507815,-29.133856"
       id="path4518"
       inkscape:connector-curvature="0"
       sodipodi:nodetypes="ccc"
       inkscape:transform-center-x="34.291486"
       inkscape:transform-center-y="-14.422486"
       inkscape:tile-cx="-91.550959"
       inkscape:tile-cy="111.91"
       inkscape:tile-w="69.810804"
       inkscape:tile-h="30.763466"
       inkscape:tile-x0="-160.98384"
       inkscape:tile-y0="82.429797" />
    <path
       style="fill:none;stroke:#000000;stroke-width:2;stroke-linecap:butt;stroke-linejoin:miter;stroke-miterlimit:4;stroke-dasharray:none;stroke-opacity:1"
       d="m -160.19504,106.93316 c 4.93843,6.9824 45.67212,4.94337 68.649931,4.94337 -22.347841,-8.19938 -53.368571,-4.84712 -62.507821,-29.133855"
       id="path4518-3"
       inkscape:connector-curvature="0"
       sodipodi:nodetypes="ccc"
       inkscape:transform-center-x="34.291486"
       inkscape:transform-center-y="-14.422486" />
    <g
       id="g4580">
      <g
         id="g4584"
         transform="rotate(50.782212,-165.20178,16.298382)">
        <path
           inkscape:transform-center-y="1.7314586e-06"
           d="m -182.49273,-56.147743 c -18.65081,1.695528 -25.25728,15.995326 -39.64431,4.006132 -14.38703,-11.989193 -1.51299,-21.066014 -3.20852,-39.716823 -1.69553,-18.650806 -15.99532,-25.257276 -4.00613,-39.644316 11.98919,-14.38703 21.06601,-1.51299 39.71682,-3.20852 18.65081,-1.69552 25.25728,-15.99532 39.64432,-4.00613 14.38703,11.9892 1.51299,21.06602 3.20851,39.716825 1.69553,18.65081 15.99533,25.257281 4.00614,39.644315 -11.9892,14.387033 -21.06602,1.512988 -39.71683,3.208517 z"
           inkscape:randomized="0"
           inkscape:rounded="0.47"
           inkscape:flatsided="false"
           sodipodi:arg2="2.2655346"
           sodipodi:arg1="1.4801364"
           sodipodi:r2="56.348209"
           sodipodi:r1="39.443748"
           sodipodi:cy="-95.429504"
           sodipodi:cx="-186.0638"
           sodipodi:sides="4"
           id="path4570"
           style="fill:none;fill-opacity:1;fill-rule:nonzero;stroke:#000000;stroke-width:2;stroke-linecap:round;stroke-linejoin:bevel;stroke-miterlimit:4;stroke-dasharray:none;stroke-dashoffset:0;stroke-opacity:1;paint-order:normal"
           sodipodi:type="star" />
        <path
           sodipodi:type="star"
           style="fill:none;fill-opacity:1;fill-rule:nonzero;stroke:#000000;stroke-width:2;stroke-linecap:round;stroke-linejoin:bevel;stroke-miterlimit:4;stroke-dasharray:none;stroke-dashoffset:0;stroke-opacity:1;paint-order:normal"
           id="path4572"
           sodipodi:sides="4"
           sodipodi:cx="-186.0638"
           sodipodi:cy="-95.429497"
           sodipodi:r1="51.051445"
           sodipodi:r2="72.930634"
           sodipodi:arg1="1.4801364"
           sodipodi:arg2="2.2655346"
           inkscape:flatsided="false"
           inkscape:rounded="0.47"
           inkscape:randomized="0"
           d="m -181.44181,-44.58771 c -24.13947,2.194497 -32.69012,20.70251 -51.31104,5.185078 -18.62092,-15.517431 -1.95824,-27.265423 -4.15273,-51.404882 -2.1945,-24.139456 -20.70251,-32.690116 -5.18508,-51.311036 15.51743,-18.62092 27.26542,-1.95824 51.40488,-4.15273 24.13946,-2.1945 32.69012,-20.70251 51.31104,-5.18508 18.62092,15.51743 1.95823,27.26542 4.15273,51.40488 2.1945,24.139461 20.70251,32.690117 5.18508,51.311037 -15.51743,18.620919 -27.26543,1.958237 -51.40488,4.152733 z"
           inkscape:transform-center-y="9.3608532e-06" />
      </g>
      <circle
         style="fill:#000000;fill-opacity:1;fill-rule:nonzero;stroke:#000000;stroke-width:2.58447123;stroke-linecap:round;stroke-linejoin:bevel;stroke-miterlimit:4;stroke-dasharray:none;stroke-dashoffset:0;stroke-opacity:1;paint-order:normal"
         id="path4592"
         cx="-91.259262"
         cy="-70.355171"
         r="5.2078753" />
      <circle
         r="17.424089"
         cy="-70.355171"
         cx="-91.259262"
         id="circle4594"
         style="fill:none;fill-opacity:1;fill-rule:nonzero;stroke:#000000;stroke-width:2;stroke-linecap:round;stroke-linejoin:bevel;stroke-miterlimit:4;stroke-dasharray:none;stroke-dashoffset:0;stroke-opacity:1;paint-order:normal" />
      <circle
         style="fill:none;fill-opacity:1;fill-rule:nonzero;stroke:#000000;stroke-width:2;stroke-linecap:round;stroke-linejoin:bevel;stroke-miterlimit:4;stroke-dasharray:none;stroke-dashoffset:0;stroke-opacity:1;paint-order:normal"
         id="circle4596"
         cx="-91.259262"
         cy="-70.355171"
         r="25.15626" />
      <path
         id="path4604"
         style="fill:none;stroke:#000000;stroke-width:2;stroke-linecap:round;stroke-linejoin:miter;stroke-miterlimit:4;stroke-dasharray:none;stroke-opacity:1"
         d="m -116.44037,-70.497849 -24.6577,-10e-7 m 49.580583,25.524233 v 23.853804 m 25.45742,-49.378036 23.55284,-10e-7 m -49.01026,-24.922895 v -24.321525"
         inkscape:connector-curvature="0" />
    </g>
    <g
       id="g4660"
       style="fill:#5a5a5a;fill-opacity:1">
      <path
         style="fill:#5a5a5a;stroke:#000000;stroke-width:2;stroke-linecap:butt;stroke-linejoin:miter;stroke-miterlimit:4;stroke-dasharray:none;stroke-opacity:1;fill-opacity:1"
         d="m -160.16741,106.97248 c 4.93843,6.9824 45.64449,4.90405 68.622301,4.90405 -22.347841,-8.19938 -53.340941,-4.8078 -62.480191,-29.094536 -1.97196,4.120733 -5.75225,15.607826 -6.14211,24.190486 z"
         id="path4644"
         inkscape:connector-curvature="0"
         sodipodi:nodetypes="cccc"
         inkscape:transform-center-x="34.291486"
         inkscape:transform-center-y="-14.422486" />
      <path
         inkscape:transform-center-y="-34.290813"
         inkscape:transform-center-x="-14.435116"
         sodipodi:nodetypes="cccc"
         inkscape:connector-curvature="0"
         id="path4650"
         d="m -86.622107,43.295162 c -6.983746,4.936527 -4.916488,45.643152 -4.922749,68.620958 8.205469,-22.345602 4.822335,-53.339625 29.11156,-62.472257 -4.120195,-1.973083 -15.606258,-5.756502 -24.188811,-6.148701 z"
         style="fill:#5a5a5a;stroke:#000000;stroke-width:2;stroke-linecap:butt;stroke-linejoin:miter;stroke-miterlimit:4;stroke-dasharray:none;stroke-opacity:1;fill-opacity:1" />
      <path
         style="fill:#5a5a5a;stroke:#000000;stroke-width:2;stroke-linecap:butt;stroke-linejoin:miter;stroke-miterlimit:4;stroke-dasharray:none;stroke-opacity:1;fill-opacity:1"
         d="m -22.963355,116.83735 c -4.936707,-6.98362 -45.643279,-4.91531 -68.621085,-4.92098 22.345814,8.20489 53.33975,4.82096 62.473008,29.10995 1.972976,-4.12024 5.756099,-15.6064 6.148077,-24.18897 z"
         id="path4652"
         inkscape:connector-curvature="0"
         sodipodi:nodetypes="cccc"
         inkscape:transform-center-x="-34.290877"
         inkscape:transform-center-y="14.433921" />
      <path
         inkscape:transform-center-y="34.291022"
         inkscape:transform-center-x="14.431183"
         sodipodi:nodetypes="cccc"
         inkscape:connector-curvature="0"
         id="path4654"
         d="m -96.501614,180.49816 c 6.983328,-4.93712 4.912611,-45.64357 4.916922,-68.62137 -8.203568,22.3463 -4.817805,53.34003 -29.106258,62.47473 4.12036,1.97273 15.60674,5.75517 24.189336,6.14664 z"
         style="fill:#5a5a5a;stroke:#000000;stroke-width:2;stroke-linecap:butt;stroke-linejoin:miter;stroke-miterlimit:4;stroke-dasharray:none;stroke-opacity:1;fill-opacity:1" />
    </g>
    <path
       sodipodi:type="inkscape:offset"
       inkscape:radius="-7.3020926"
       inkscape:original="M -360.32617 328.72852 L -372.37109 347.94336 L -394.32812 342.26758 L -383.71094 362.30664 L -399.60547 378.48438 L -376.94141 379.30859 L -370.87891 401.16211 L -358.83398 381.94727 L -336.87695 387.625 L -347.49414 367.58398 L -331.59961 351.40625 L -354.26367 350.58203 L -360.32617 328.72852 z "
       style="fill:none;fill-opacity:1;fill-rule:nonzero;stroke:#000000;stroke-width:0.56911516;stroke-linecap:round;stroke-linejoin:bevel;stroke-miterlimit:4;stroke-dasharray:none;stroke-dashoffset:0;stroke-opacity:1;paint-order:normal"
       id="path4698"
       d="m -362.93555,346.64062 -3.24804,5.18165 a 7.3028228,7.3028228 0 0 1 -8.01563,3.1914 l -5.92187,-1.53125 2.86328,5.40625 a 7.3028228,7.3028228 0 0 1 -1.24414,8.53516 l -4.28907,4.36523 6.11524,0.22266 a 7.3028228,7.3028228 0 0 1 6.77148,5.3457 l 1.63477,5.89258 3.24805,-5.18164 a 7.3028228,7.3028228 0 0 1 8.01562,-3.19141 l 5.92188,1.53125 -2.86329,-5.40625 a 7.3028228,7.3028228 0 0 1 1.24415,-8.53515 l 4.28906,-4.36524 -6.11524,-0.22265 a 7.3028228,7.3028228 0 0 1 -6.77148,-5.34571 z"
       transform="matrix(3.4762531,-0.51522607,0.51522607,3.4762531,988.0383,-1170.931)" />
    <circle
       style="fill:none;fill-opacity:1;fill-rule:nonzero;stroke:#000000;stroke-width:2.13554454;stroke-linecap:round;stroke-linejoin:bevel;stroke-miterlimit:4;stroke-dasharray:none;stroke-dashoffset:0;stroke-opacity:1;paint-order:normal"
       id="path4702"
       cx="-94.974747"
       cy="285.88977"
       r="26.432228" />
    <circle
       r="20.395267"
       cy="285.88977"
       cx="-94.974747"
       id="circle4708"
       style="fill:#150404;fill-opacity:1;fill-rule:nonzero;stroke:#000000;stroke-width:2;stroke-linecap:round;stroke-linejoin:bevel;stroke-miterlimit:4;stroke-dasharray:none;stroke-dashoffset:0;stroke-opacity:1;paint-order:normal" />
    <path
       sodipodi:nodetypes="zczsczzczzczz"
       inkscape:connector-curvature="0"
       id="path4712"
       d="m 193.70795,104.81085 c 1.75822,-1.61839 4.96955,-0.0713 24.20313,0 0.0206,-13.533256 -1.57011,-22.756226 0,-24.342126 1.5701,-1.5859 23.23309,-1.93774 25,0 1.4987,1.64359 0,24.342126 0,24.342126 0,0 22.96261,-1.73918 24.74303,0 1.78042,1.73918 1.72888,23.5382 -0.0668,25 -1.7957,1.4618 -24.67621,0 -24.67621,0 0,0 1.93231,22.64561 0,24.47576 -1.93231,1.83015 -23.7255,1.33402 -25,-0.0668 -1.27451,-1.40084 0,-24.40894 0,-24.40894 0,0 -22.67161,1.48747 -24.10864,0 -1.43702,-1.48747 -1.85271,-23.38161 -0.0945,-25 z"
       style="fill:none;stroke:#000000;stroke-width:2;stroke-linecap:butt;stroke-linejoin:miter;stroke-miterlimit:4;stroke-dasharray:none;stroke-opacity:1" />
    <path
       style="fill:#ffffff;fill-opacity:1;stroke:#0d0d0d;stroke-width:0.79873395;stroke-linecap:butt;stroke-linejoin:miter;stroke-miterlimit:4;stroke-dasharray:none;stroke-opacity:1"
       d="m -109.55994,280.92034 c 0.70217,-0.64632 1.98467,-0.0285 9.665938,0 0.008,-5.40473 -0.627058,-9.08809 0,-9.72144 0.62704,-0.63335 9.27852,-0.77386 9.98417,0 0.59853,0.65639 0,9.72144 0,9.72144 0,0 9.1705,-0.69457 9.88154,0 0.71104,0.69457 0.69046,9.40038 -0.0266,9.98417 -0.71714,0.58381 -9.85487,0 -9.85487,0 0,0 0.77171,9.04392 0,9.77482 -0.77169,0.73091 -9.47518,0.53277 -9.98417,-0.0266 -0.508988,-0.55944 0,-9.74812 0,-9.74812 0,0 -9.054288,0.59405 -9.628188,0 -0.57389,-0.59404 -0.73991,-9.33785 -0.0377,-9.98417 z"
       id="path4720"
       inkscape:connector-curvature="0"
       sodipodi:nodetypes="zczsczzczzczz" />
    <circle
       r="65.011475"
       cy="285.88977"
       cx="-94.974747"
       id="circle4722"
       style="fill:none;fill-opacity:1;fill-rule:nonzero;stroke:#000000;stroke-width:2;stroke-linecap:round;stroke-linejoin:bevel;stroke-miterlimit:4;stroke-dasharray:none;stroke-dashoffset:0;stroke-opacity:1;paint-order:normal" />
    <circle
       style="fill:none;fill-opacity:1;fill-rule:nonzero;stroke:#000000;stroke-width:2;stroke-linecap:round;stroke-linejoin:bevel;stroke-miterlimit:4;stroke-dasharray:none;stroke-dashoffset:0;stroke-opacity:1;paint-order:normal"
       id="circle4724"
       cx="-94.974747"
       cy="285.88977"
       r="72.270355" />
  </g>
</svg>
