<?xml version="1.0" encoding="UTF-8" standalone="no"?>
<!-- Created with Inkscape (http://www.inkscape.org/) -->

<svg
   xmlns:dc="http://purl.org/dc/elements/1.1/"
   xmlns:cc="http://creativecommons.org/ns#"
   xmlns:rdf="http://www.w3.org/1999/02/22-rdf-syntax-ns#"
   xmlns:svg="http://www.w3.org/2000/svg"
   xmlns="http://www.w3.org/2000/svg"
   xmlns:sodipodi="http://sodipodi.sourceforge.net/DTD/sodipodi-0.dtd"
   xmlns:inkscape="http://www.inkscape.org/namespaces/inkscape"
   width="240.67847mm"
   height="240.67456mm"
   viewBox="0 0 240.67847 240.67457"
   version="1.1"
   id="svg8"
   inkscape:version="0.92.1 15371"
   sodipodi:docname="medallion-spider-in-sun.svg">
  <defs
     id="defs2" />
  <sodipodi:namedview
     id="base"
     pagecolor="#ffffff"
     bordercolor="#666666"
     borderopacity="1.0"
     inkscape:pageopacity="0.0"
     inkscape:pageshadow="2"
     inkscape:zoom="0.99999998"
     inkscape:cx="453.86775"
     inkscape:cy="431.07415"
     inkscape:document-units="mm"
     inkscape:current-layer="layer1"
     showgrid="false"
     inkscape:pagecheckerboard="true"
     showguides="true"
     inkscape:guide-bbox="true"
     inkscape:measure-start="1039.37,558.125"
     inkscape:measure-end="1030.97,558.125"
     inkscape:window-width="3104"
     inkscape:window-height="1770"
     inkscape:window-x="96"
     inkscape:window-y="30"
     inkscape:window-maximized="1"
     fit-margin-top="0"
     fit-margin-left="0"
     fit-margin-right="0"
     fit-margin-bottom="0">
    <sodipodi:guide
       position="-74.782798,179.87136"
       orientation="1,0"
       id="guide11"
       inkscape:locked="false" />
    <sodipodi:guide
       position="120.32796,68.11246"
       orientation="1,0"
       id="guide4615"
       inkscape:locked="false" />
    <sodipodi:guide
       position="120.36617,120.34398"
       orientation="0,1"
       id="guide4617"
       inkscape:locked="false" />
  </sodipodi:namedview>
  <metadata
     id="metadata5">
    <rdf:RDF>
      <cc:Work
         rdf:about="">
        <dc:format>image/svg+xml</dc:format>
        <dc:type
           rdf:resource="http://purl.org/dc/dcmitype/StillImage" />
        <dc:title></dc:title>
      </cc:Work>
    </rdf:RDF>
  </metadata>
  <g
     inkscape:label="Layer 1"
     inkscape:groupmode="layer"
     id="layer1"
     transform="translate(-154.78279,-2.6074834)">
    <path
       style="fill:none;fill-opacity:1;fill-rule:nonzero;stroke:#000000;stroke-width:1;stroke-linecap:round;stroke-linejoin:miter;stroke-miterlimit:4;stroke-dasharray:none;stroke-dashoffset:0;stroke-opacity:1;paint-order:normal"
       d="m 293.09549,122.98569 c 0,9.99086 -8.0992,18.09006 -18.09006,18.09006 -9.99086,0 -18.09006,-8.0992 -18.09006,-18.09006 0,-4.99543 2.02482,-9.51793 5.29846,-12.7916 0.81841,-0.81841 1.63303,-1.445 2.59542,-2.09518 2.31463,0 17.24381,0 20.28712,0 0.96239,0.65018 1.88225,1.27677 2.70066,2.09518 3.27364,3.27367 5.29846,7.79617 5.29846,12.7916 z"
       id="circle4565"
       inkscape:connector-curvature="0"
       sodipodi:nodetypes="ssssccss" />
    <circle
       style="fill:none;fill-opacity:1;fill-rule:nonzero;stroke:#000000;stroke-width:1;stroke-linecap:round;stroke-linejoin:miter;stroke-miterlimit:4;stroke-dasharray:none;stroke-dashoffset:0;stroke-opacity:1;paint-order:normal"
       id="circle4567"
       cx="275.00543"
       cy="122.98569"
       r="2.6043272" />
    <circle
       r="10.484195"
       cy="122.98569"
       cx="275.00543"
       id="circle4569"
       style="fill:none;fill-opacity:1;fill-rule:nonzero;stroke:#000000;stroke-width:1;stroke-linecap:round;stroke-linejoin:miter;stroke-miterlimit:4;stroke-dasharray:none;stroke-dashoffset:0;stroke-opacity:1;paint-order:normal" />
    <path
       style="fill:none;stroke:#000000;stroke-width:1;stroke-linecap:butt;stroke-linejoin:miter;stroke-miterlimit:4;stroke-dasharray:none;stroke-opacity:1"
       d="m 258,143.30869 c 0,-1.41865 0.85179,-2.23541 2.56706,-2.23541 h 29.09334 c 1.6895,0 2.56706,0.79557 2.56705,2.23541 1e-5,9.42779 -11.39519,20.55024 -17.11372,30.73414 C 269.40915,163.79812 258,152.73394 258,143.30869 Z"
       id="path4555"
       inkscape:connector-curvature="0"
       sodipodi:nodetypes="cccccc" />
    <path
       style="fill:none;stroke:#000000;stroke-width:1;stroke-linecap:butt;stroke-linejoin:miter;stroke-miterlimit:4;stroke-dasharray:none;stroke-opacity:1"
       d="M 264.41797,158.35833 H 285.6177"
       id="path4568"
       inkscape:connector-curvature="0" />
    <path
       style="fill:none;stroke:#000000;stroke-width:1;stroke-linecap:butt;stroke-linejoin:miter;stroke-miterlimit:4;stroke-dasharray:none;stroke-opacity:1"
       d="m 267.32838,162.36015 h 15.64349"
       id="path4574"
       inkscape:connector-curvature="0" />
    <circle
       r="0.98113418"
       cy="149.41095"
       cx="268.62234"
       id="circle4576"
       style="fill:#000000;fill-opacity:1;fill-rule:nonzero;stroke:#000000;stroke-width:1;stroke-linecap:round;stroke-linejoin:miter;stroke-miterlimit:4;stroke-dasharray:none;stroke-dashoffset:0;stroke-opacity:1;paint-order:normal" />
    <circle
       style="fill:none;fill-opacity:1;fill-rule:nonzero;stroke:#000000;stroke-width:1;stroke-linecap:round;stroke-linejoin:miter;stroke-miterlimit:4;stroke-dasharray:none;stroke-dashoffset:0;stroke-opacity:1;paint-order:normal"
       id="circle4578"
       cx="268.62234"
       cy="149.41095"
       r="3.9497347" />
    <circle
       style="fill:#000000;fill-opacity:1;fill-rule:nonzero;stroke:#000000;stroke-width:1;stroke-linecap:round;stroke-linejoin:miter;stroke-miterlimit:4;stroke-dasharray:none;stroke-dashoffset:0;stroke-opacity:1;paint-order:normal"
       id="circle4580"
       cx="281.35541"
       cy="149.41095"
       r="0.98113418" />
    <circle
       r="3.9497347"
       cy="149.41095"
       cx="281.35541"
       id="circle4582"
       style="fill:none;fill-opacity:1;fill-rule:nonzero;stroke:#000000;stroke-width:1;stroke-linecap:round;stroke-linejoin:miter;stroke-miterlimit:4;stroke-dasharray:none;stroke-dashoffset:0;stroke-opacity:1;paint-order:normal" />
    <path
       sodipodi:nodetypes="ccccccc"
       inkscape:connector-curvature="0"
       id="path4586"
       d="m 258,93.018402 c 0,-1.41865 0.85179,-2.23541 2.56706,-2.23541 h 29.09334 c 1.6895,0 2.56706,0.79557 2.56705,2.23541 1e-5,4.713895 -2.84879,9.851458 -6.41241,15.083528 -5.46283,0.009 -18.39533,0.009 -21.39739,-0.0238 C 260.85229,102.85338 258,97.731023 258,93.018398 Z"
       style="fill:none;stroke:#000000;stroke-width:1;stroke-linecap:butt;stroke-linejoin:miter;stroke-miterlimit:4;stroke-dasharray:none;stroke-opacity:1" />
    <path
       style="fill:none;stroke:#000000;stroke-width:1;stroke-linecap:butt;stroke-linejoin:miter;stroke-miterlimit:4;stroke-dasharray:none;stroke-opacity:1"
       d="m 258.03508,88.567036 c 0,1.41865 0.85179,2.23541 2.56706,2.23541 h 29.09334 c 1.6895,0 2.56705,-0.79557 2.56705,-2.23541 0,-4.7139 -7.53431,-13.390136 -9.1988,-15.083532 -1.67412,-1.70319 -14.316,-1.83675 -16.03853,-0.02297 -1.55807,1.640609 -8.99012,10.393884 -8.99012,15.106504 z"
       id="path4594"
       inkscape:connector-curvature="0"
       sodipodi:nodetypes="cccsssc" />
    <path
       style="fill:none;stroke:#000000;stroke-width:1;stroke-linecap:round;stroke-linejoin:miter;stroke-miterlimit:4;stroke-dasharray:none;stroke-opacity:1"
       d="m 264.41765,108.07813 c -2.34409,0.70851 -8.08628,0.56167 -9.41765,0.0208 -1.96272,-2.03391 -4.08467,-28.512846 -9.02631,-38.412428"
       id="path4620"
       inkscape:connector-curvature="0"
       sodipodi:nodetypes="ccc" />
    <path
       style="fill:none;stroke:#000000;stroke-width:1;stroke-linecap:round;stroke-linejoin:miter;stroke-miterlimit:4;stroke-dasharray:none;stroke-opacity:1"
       d="m 258.50977,115.51236 c -2.78296,1.12253 -9.19078,0.65481 -10.97984,0 -3.08497,-4.77512 -1.49079,-28.115505 -8.96262,-40.977344"
       id="path4622"
       inkscape:connector-curvature="0"
       sodipodi:nodetypes="ccc" />
    <path
       style="fill:none;stroke:#000000;stroke-width:1;stroke-linecap:round;stroke-linejoin:miter;stroke-miterlimit:4;stroke-dasharray:none;stroke-opacity:1"
       d="m 256.82597,122.98415 c -4.84182,0.99383 -15.84239,1.09297 -16.76783,0 -6.28496,-9.67634 1.42067,-27.340966 -8.23778,-42.623243"
       id="path4624"
       inkscape:connector-curvature="0"
       sodipodi:nodetypes="ccc" />
    <path
       sodipodi:nodetypes="ccc"
       inkscape:connector-curvature="0"
       id="path4626"
       d="m 285.58235,108.07811 c 2.34409,0.70851 8.08628,0.56167 9.41765,0.0208 1.96272,-2.03391 4.15928,-28.512826 9.10092,-38.412408"
       style="fill:none;stroke:#000000;stroke-width:1;stroke-linecap:round;stroke-linejoin:miter;stroke-miterlimit:4;stroke-dasharray:none;stroke-opacity:1" />
    <path
       sodipodi:nodetypes="ccc"
       inkscape:connector-curvature="0"
       id="path4628"
       d="m 291.49023,115.51234 c 2.78296,1.12253 9.19078,0.65481 10.97984,0 3.08497,-4.77512 1.4087,-28.052932 8.88053,-40.914771"
       style="fill:none;stroke:#000000;stroke-width:1;stroke-linecap:round;stroke-linejoin:miter;stroke-miterlimit:4;stroke-dasharray:none;stroke-opacity:1" />
    <path
       sodipodi:nodetypes="ccc"
       inkscape:connector-curvature="0"
       id="path4630"
       d="m 293.17403,122.98413 c 4.84182,0.99383 15.84239,1.09297 16.76783,0 6.28496,-9.67634 -1.56129,-27.281142 8.09716,-42.563419"
       style="fill:none;stroke:#000000;stroke-width:1;stroke-linecap:round;stroke-linejoin:miter;stroke-miterlimit:4;stroke-dasharray:none;stroke-opacity:1" />
    <path
       style="fill:none;stroke:#000000;stroke-width:1;stroke-linecap:round;stroke-linejoin:miter;stroke-miterlimit:4;stroke-dasharray:none;stroke-opacity:1"
       d="m 283.653,139.00362 c 2.34409,-0.70851 10.29626,0.94789 11.62763,1.48876 5.70449,12.32379 -0.34813,24.77992 8.24174,35.70849"
       id="path4632"
       inkscape:connector-curvature="0"
       sodipodi:nodetypes="ccc" />
    <path
       style="fill:none;stroke:#000000;stroke-width:1;stroke-linecap:round;stroke-linejoin:miter;stroke-miterlimit:4;stroke-dasharray:none;stroke-opacity:1"
       d="m 290.64833,132.50228 c 2.78296,-1.12253 8.91568,1.2628 10.70474,1.91766 7.01383,12.25867 -2.75344,23.24799 9.11497,37.41945"
       id="path4634"
       inkscape:connector-curvature="0"
       sodipodi:nodetypes="ccc" />
    <path
       style="fill:none;stroke:#000000;stroke-width:1;stroke-linecap:round;stroke-linejoin:miter;stroke-miterlimit:4;stroke-dasharray:none;stroke-opacity:1"
       d="m 293.09218,126.01265 c 4.84182,-0.99383 12.36103,2.28874 13.28647,3.38171 10.588,15.38254 -5.66304,17.60281 10.35642,37.46876"
       id="path4636"
       inkscape:connector-curvature="0"
       sodipodi:nodetypes="ccc" />
    <path
       sodipodi:nodetypes="ccc"
       inkscape:connector-curvature="0"
       id="path4646"
       d="m 266.42281,139.00362 c -2.34409,-0.70851 -10.29626,0.94789 -11.62763,1.48876 -5.70449,12.32379 0.12442,24.79344 -8.46545,35.72201"
       style="fill:none;stroke:#000000;stroke-width:1;stroke-linecap:round;stroke-linejoin:miter;stroke-miterlimit:4;stroke-dasharray:none;stroke-opacity:1" />
    <path
       sodipodi:nodetypes="ccc"
       inkscape:connector-curvature="0"
       id="path4648"
       d="m 259.42748,132.50228 c -2.78296,-1.12253 -8.91568,1.2628 -10.70474,1.91766 -7.01383,12.25867 2.68225,23.43929 -9.18616,37.61075"
       style="fill:none;stroke:#000000;stroke-width:1;stroke-linecap:round;stroke-linejoin:miter;stroke-miterlimit:4;stroke-dasharray:none;stroke-opacity:1" />
    <path
       sodipodi:nodetypes="ccc"
       inkscape:connector-curvature="0"
       id="path4650"
       d="m 256.98363,126.01265 c -4.84182,-0.99383 -12.36103,2.28874 -13.28647,3.38171 -10.588,15.38254 5.54826,17.71857 -10.4712,37.58452"
       style="fill:none;stroke:#000000;stroke-width:1;stroke-linecap:round;stroke-linejoin:miter;stroke-miterlimit:4;stroke-dasharray:none;stroke-opacity:1" />
    <path
       sodipodi:nodetypes="cccsssc"
       inkscape:connector-curvature="0"
       id="path4652"
       d="m 267.93238,84.466963 c 0,0.598209 0.35917,0.942616 1.08246,0.942616 h 12.26793 c 0.71242,0 1.08246,-0.335471 1.08246,-0.942616 0,-1.987733 -3.17703,-5.646285 -3.8789,-6.360347 -0.70593,-0.718193 -6.0367,-0.774512 -6.76305,-0.0097 -0.65699,0.691803 -3.7909,4.38284 -3.7909,6.370034 z"
       style="fill:#000000;fill-opacity:1;stroke:#000000;stroke-width:1;stroke-linecap:butt;stroke-linejoin:miter;stroke-miterlimit:4;stroke-dasharray:none;stroke-opacity:1" />
    <ellipse
       style="fill:none;fill-opacity:1;fill-rule:nonzero;stroke:#000000;stroke-width:1;stroke-linecap:round;stroke-linejoin:miter;stroke-miterlimit:4;stroke-dasharray:none;stroke-dashoffset:0;stroke-opacity:1;paint-order:normal"
       id="path4582"
       cx="274.96982"
       cy="122.93906"
       ry="60.770374"
       rx="60.770367" />
    <path
       style="fill:none;fill-opacity:1;fill-rule:nonzero;stroke:#000000;stroke-width:1;stroke-linecap:round;stroke-linejoin:miter;stroke-miterlimit:4;stroke-dasharray:none;stroke-dashoffset:0;stroke-opacity:1;paint-order:normal"
       d="m 249.2736,79.12934 c 1.44659,-0.785834 4.43212,-2.579537 5.9589,-3.22531 6.10712,-2.583095 12.82156,-4.01149 19.86961,-4.01149 7.04805,0 13.76249,1.428394 19.86961,4.011488 1.52678,0.645774 4.67601,2.252387 6.1226,3.038222 m 13.04697,11.12892 c 1.0403,1.26055 2.37205,2.969449 3.28939,4.327296 1.83468,2.715692 3.41491,5.617424 4.70645,8.670984 2.5831,6.10712 4.01149,12.82156 4.01149,19.86961 0,14.0961 -5.3394,26.5771 -14.577,35.8147 m -12.13771,9.07077 c -1.44659,0.78584 -2.93542,1.50378 -4.4622,2.14955 -6.10712,2.5831 -12.82155,4.01149 -19.8696,4.01149 -7.04805,0 -13.76249,-1.42839 -19.86961,-4.01149 -1.52678,-0.64577 -3.13253,-1.41049 -4.57912,-2.19632 m -11.90385,-8.93045 c -9.2376,-9.23761 -14.69393,-21.81214 -14.69393,-35.90825 0,-7.04805 1.42839,-13.76249 4.01149,-19.86961 1.29154,-3.05356 2.87177,-5.955291 4.70645,-8.670984 0.91734,-1.357846 2.17893,-3.113518 3.21923,-4.374067"
       id="ellipse4608"
       inkscape:connector-curvature="0"
       sodipodi:nodetypes="csssccsssccsssccsssc" />
    <path
       sodipodi:type="inkscape:offset"
       inkscape:radius="-8.6486998"
       inkscape:original="M 282.9043 52.828125 L 270.13672 68.009766 L 254.0293 56.433594 L 248.04492 75.345703 L 228.73242 70.814453 L 230.44141 90.578125 L 210.86523 93.783203 L 220.00586 111.38672 L 203.14648 121.83789 L 218.32812 134.60547 L 206.75391 150.71289 L 225.66406 156.69727 L 221.13477 176.00977 L 240.89648 174.30273 L 244.10156 193.87695 L 261.70703 184.73633 L 272.1582 201.5957 L 284.92383 186.41406 L 301.0332 197.98828 L 307.01758 179.07812 L 326.32812 183.60742 L 324.62109 163.8457 L 344.19727 160.64062 L 335.05664 143.03711 L 351.91406 132.58398 L 336.73242 119.81836 L 348.30859 103.70898 L 329.39648 97.724609 L 333.92773 78.414062 L 314.16602 80.121094 L 310.96094 60.546875 L 293.35547 69.685547 L 282.9043 52.828125 z "
       style="fill:none;fill-opacity:1;fill-rule:nonzero;stroke:#000000;stroke-width:0.76641148;stroke-linecap:round;stroke-linejoin:miter;stroke-miterlimit:4;stroke-dasharray:none;stroke-dashoffset:0;stroke-opacity:1;paint-order:normal"
       id="path4611"
       d="m 281.8418,67.529297 -5.08594,6.046875 a 8.6495646,8.6495646 0 0 1 -11.66602,1.457031 l -6.41601,-4.611328 -2.38281,7.533203 a 8.6495646,8.6495646 0 0 1 -10.22071,5.810547 l -7.69336,-1.804687 0.68164,7.873046 a 8.6495646,8.6495646 0 0 1 -7.2207,9.279297 l -7.79687,1.277339 3.64062,7.00977 a 8.6495646,8.6495646 0 0 1 -3.11914,11.33789 l -6.71484,4.16211 6.04687,5.08594 a 8.6495646,8.6495646 0 0 1 1.45703,11.66601 l -4.60937,6.41602 7.53125,2.38281 a 8.6495646,8.6495646 0 0 1 5.81054,10.22071 l -1.80468,7.69335 7.87304,-0.67968 a 8.6495646,8.6495646 0 0 1 9.2793,7.21875 l 1.27734,7.79882 7.01368,-3.64257 a 8.6495646,8.6495646 0 0 1 11.33593,3.11914 l 4.16211,6.71484 5.08399,-6.04687 a 8.6495646,8.6495646 0 0 1 11.66601,-1.45704 l 6.41797,4.61133 2.38281,-7.5332 a 8.6495646,8.6495646 0 0 1 10.22071,-5.81055 l 7.6914,1.80469 -0.67968,-7.87305 a 8.6495646,8.6495646 0 0 1 7.2207,-9.27929 l 7.79687,-1.27735 -3.64062,-7.00976 a 8.6495646,8.6495646 0 0 1 3.11719,-11.33594 l 6.71679,-4.16406 -6.04882,-5.08594 a 8.6495646,8.6495646 0 0 1 -1.45704,-11.66602 l 4.61133,-6.41796 -7.5332,-2.38282 a 8.6495646,8.6495646 0 0 1 -5.81055,-10.222653 l 1.80469,-7.689453 -7.87109,0.679687 a 8.6495646,8.6495646 0 0 1 -9.2793,-7.21875 l -1.27734,-7.798828 -7.01368,3.640625 a 8.6495646,8.6495646 0 0 1 -11.33593,-3.11914 z"
       transform="matrix(1.3047821,0,0,1.3047821,-86.9958,-43.039114)" />
    <circle
       style="fill:none;fill-opacity:1;fill-rule:nonzero;stroke:#000000;stroke-width:1;stroke-linecap:round;stroke-linejoin:miter;stroke-miterlimit:4;stroke-dasharray:none;stroke-dashoffset:0;stroke-opacity:1;paint-order:normal"
       id="circle4619"
       cx="275.00543"
       cy="122.98569"
       r="78.922401" />
    <circle
       r="89.176193"
       cy="122.98569"
       cx="275.00543"
       id="circle4621"
       style="fill:none;fill-opacity:1;fill-rule:nonzero;stroke:#000000;stroke-width:1;stroke-linecap:round;stroke-linejoin:miter;stroke-miterlimit:4;stroke-dasharray:none;stroke-dashoffset:0;stroke-opacity:1;paint-order:normal" />
    <circle
       style="fill:none;fill-opacity:1;fill-rule:nonzero;stroke:#000000;stroke-width:1;stroke-linecap:round;stroke-linejoin:miter;stroke-miterlimit:4;stroke-dasharray:none;stroke-dashoffset:0;stroke-opacity:1;paint-order:normal"
       id="circle4623"
       cx="275.00543"
       cy="122.98569"
       r="93.64579" />
    <path
       transform="matrix(2.0020467,0,0,2.0020467,-280.50852,-131.73952)"
       d="m 281.8418,67.529297 -5.08594,6.046875 a 8.6495646,8.6495646 0 0 1 -11.66602,1.457031 l -6.41601,-4.611328 -2.38281,7.533203 a 8.6495646,8.6495646 0 0 1 -10.22071,5.810547 l -7.69336,-1.804687 0.68164,7.873046 a 8.6495646,8.6495646 0 0 1 -7.2207,9.279297 l -7.79687,1.277339 3.64062,7.00977 a 8.6495646,8.6495646 0 0 1 -3.11914,11.33789 l -6.71484,4.16211 6.04687,5.08594 a 8.6495646,8.6495646 0 0 1 1.45703,11.66601 l -4.60937,6.41602 7.53125,2.38281 a 8.6495646,8.6495646 0 0 1 5.81054,10.22071 l -1.80468,7.69335 7.87304,-0.67968 a 8.6495646,8.6495646 0 0 1 9.2793,7.21875 l 1.27734,7.79882 7.01368,-3.64257 a 8.6495646,8.6495646 0 0 1 11.33593,3.11914 l 4.16211,6.71484 5.08399,-6.04687 a 8.6495646,8.6495646 0 0 1 11.66601,-1.45704 l 6.41797,4.61133 2.38281,-7.5332 a 8.6495646,8.6495646 0 0 1 10.22071,-5.81055 l 7.6914,1.80469 -0.67968,-7.87305 a 8.6495646,8.6495646 0 0 1 7.2207,-9.27929 l 7.79687,-1.27735 -3.64062,-7.00976 a 8.6495646,8.6495646 0 0 1 3.11719,-11.33594 l 6.71679,-4.16406 -6.04882,-5.08594 a 8.6495646,8.6495646 0 0 1 -1.45704,-11.66602 l 4.61133,-6.41796 -7.5332,-2.38282 a 8.6495646,8.6495646 0 0 1 -5.81055,-10.222653 l 1.80469,-7.689453 -7.87109,0.679687 a 8.6495646,8.6495646 0 0 1 -9.2793,-7.21875 l -1.27734,-7.798828 -7.01368,3.640625 a 8.6495646,8.6495646 0 0 1 -11.33593,-3.11914 z"
       id="path4625"
       style="fill:none;fill-opacity:1;fill-rule:nonzero;stroke:#000000;stroke-width:0.49948886;stroke-linecap:round;stroke-linejoin:miter;stroke-miterlimit:4;stroke-dasharray:none;stroke-dashoffset:0;stroke-opacity:1;paint-order:normal"
       inkscape:original="M 282.9043 52.828125 L 270.13672 68.009766 L 254.0293 56.433594 L 248.04492 75.345703 L 228.73242 70.814453 L 230.44141 90.578125 L 210.86523 93.783203 L 220.00586 111.38672 L 203.14648 121.83789 L 218.32812 134.60547 L 206.75391 150.71289 L 225.66406 156.69727 L 221.13477 176.00977 L 240.89648 174.30273 L 244.10156 193.87695 L 261.70703 184.73633 L 272.1582 201.5957 L 284.92383 186.41406 L 301.0332 197.98828 L 307.01758 179.07812 L 326.32812 183.60742 L 324.62109 163.8457 L 344.19727 160.64062 L 335.05664 143.03711 L 351.91406 132.58398 L 336.73242 119.81836 L 348.30859 103.70898 L 329.39648 97.724609 L 333.92773 78.414062 L 314.16602 80.121094 L 310.96094 60.546875 L 293.35547 69.685547 L 282.9043 52.828125 z "
       inkscape:radius="-8.6486998"
       sodipodi:type="inkscape:offset" />
  </g>
</svg>
