<?xml version="1.0" encoding="UTF-8" standalone="no"?>
<!-- Created with Inkscape (http://www.inkscape.org/) -->

<svg
   xmlns:dc="http://purl.org/dc/elements/1.1/"
   xmlns:cc="http://creativecommons.org/ns#"
   xmlns:rdf="http://www.w3.org/1999/02/22-rdf-syntax-ns#"
   xmlns:svg="http://www.w3.org/2000/svg"
   xmlns="http://www.w3.org/2000/svg"
   xmlns:sodipodi="http://sodipodi.sourceforge.net/DTD/sodipodi-0.dtd"
   xmlns:inkscape="http://www.inkscape.org/namespaces/inkscape"
   width="210mm"
   height="297mm"
   viewBox="0 0 210 297"
   version="1.1"
   id="svg5031"
   inkscape:version="0.92.1 15371"
   sodipodi:docname="turkey.svg">
  <defs
     id="defs5025" />
  <sodipodi:namedview
     id="base"
     pagecolor="#ffffff"
     bordercolor="#666666"
     borderopacity="1.0"
     inkscape:pageopacity="0.0"
     inkscape:pageshadow="2"
     inkscape:zoom="1.4"
     inkscape:cx="285.58461"
     inkscape:cy="605.10408"
     inkscape:document-units="mm"
     inkscape:current-layer="layer1"
     showgrid="false"
     inkscape:pagecheckerboard="true"
     inkscape:window-width="3104"
     inkscape:window-height="1770"
     inkscape:window-x="96"
     inkscape:window-y="30"
     inkscape:window-maximized="1"
     showguides="true"
     inkscape:guide-bbox="true">
    <sodipodi:guide
       position="80.690339,67.009484"
       orientation="1,0"
       id="guide5165"
       inkscape:locked="false" />
    <sodipodi:guide
       position="82.160322,61.42188"
       orientation="0,1"
       id="guide5167"
       inkscape:locked="false" />
    <sodipodi:guide
       position="87.530768,89.201207"
       orientation="0,1"
       id="guide4511"
       inkscape:locked="false" />
    <sodipodi:guide
       position="90.383555,104.8884"
       orientation="0,1"
       id="guide4513"
       inkscape:locked="false" />
    <sodipodi:guide
       position="88.635415,92.037205"
       orientation="0,1"
       id="guide4515"
       inkscape:locked="false" />
  </sodipodi:namedview>
  <metadata
     id="metadata5028">
    <rdf:RDF>
      <cc:Work
         rdf:about="">
        <dc:format>image/svg+xml</dc:format>
        <dc:type
           rdf:resource="http://purl.org/dc/dcmitype/StillImage" />
        <dc:title />
      </cc:Work>
    </rdf:RDF>
  </metadata>
  <g
     inkscape:label="Layer 1"
     inkscape:groupmode="layer"
     id="layer1">
    <path
       style="fill:#4e300f;fill-opacity:1;stroke:#000000;stroke-width:2;stroke-linecap:round;stroke-linejoin:miter;stroke-miterlimit:4;stroke-dasharray:none;stroke-opacity:1"
       d="m 80.690339,169.44229 c 8.521393,4.55252 10.103287,25.10391 10.103287,26.41108 0,1.4241 -4.921123,10.05745 -9.536323,12.66221 -1.929535,1.089 -6.904182,1.81891 -7.181547,3.02381 -0.101225,0.43973 12.898438,0.001 12.898438,0.001 0,0 9.551762,-14.27513 9.898946,-15.65737 0.181687,-0.72335 -1.08202,-17.6351 -0.166059,-17.7947 1.052772,-0.18344 11.821339,16.38591 11.995999,17.56797 0.13725,0.92888 -5.11464,10.72696 -7.46029,13.09535 -1.399886,1.41347 -6.296207,1.62158 -6.520084,2.78758 -0.07347,0.38265 10.961304,0.001 10.961304,0.001 0,0 9.0537,-14.55133 9.09436,-15.98844 0.0224,-0.79241 -9.54216,-15.69192 -8.67463,-16.0978 1.80059,-0.84242 15.45111,-5.75145 15.45111,-5.75145"
       id="path4509"
       inkscape:connector-curvature="0"
       sodipodi:nodetypes="ccsscssssscssc" />
    <path
       style="fill:#4e300f;fill-opacity:1;fill-rule:nonzero;stroke:#000000;stroke-width:2;stroke-linecap:round;stroke-linejoin:miter;stroke-miterlimit:4;stroke-dasharray:none;stroke-dashoffset:0;stroke-opacity:1;paint-order:normal"
       d="m 99.691216,119.16219 c 35.482384,3.02381 43.089284,9.28275 43.089284,29.00967 0,19.72692 -17.19549,29.30239 -37.79762,26.26934 -21.721384,-3.19782 -45.262647,-4.18007 -45.262647,-23.90699 0,-9.86346 1.452877,-14.44642 9.301804,-20.91024 h -10e-7 c 17.0988,-16.9368 21.605061,-9.15343 30.66918,-10.46178 z"
       id="path5033"
       inkscape:connector-curvature="0"
       sodipodi:nodetypes="csssccc" />
    <g
       id="g4724"
       transform="translate(-88.682413,-112.6861)">
      <g
         style="stroke-width:2;stroke-miterlimit:4;stroke-dasharray:none"
         transform="rotate(4.2564876,-289.37146,1558.3427)"
         id="g5159">
        <ellipse
           style="fill:#4e300f;fill-opacity:1;fill-rule:nonzero;stroke:#000000;stroke-width:2;stroke-linecap:round;stroke-linejoin:miter;stroke-miterlimit:4;stroke-dasharray:none;stroke-dashoffset:0;stroke-opacity:1;paint-order:normal"
           id="path5155"
           cx="85.422623"
           cy="228.96426"
           rx="24.001488"
           ry="17.386906" />
        <ellipse
           style="fill:#4e300f;fill-opacity:1;fill-rule:nonzero;stroke:#000000;stroke-width:2;stroke-linecap:round;stroke-linejoin:miter;stroke-miterlimit:4;stroke-dasharray:none;stroke-dashoffset:0;stroke-opacity:1;paint-order:normal"
           id="path5151"
           cx="92.131691"
           cy="229.05878"
           rx="17.506363"
           ry="16.967705" />
      </g>
      <path
         inkscape:connector-curvature="0"
         d="m 173.65843,267.08868 -10.32164,1.84488 m 9.24876,-10.83602 -12.66524,-0.87565 m 15.28847,-5.56234 -7.92311,-4.27481 m 20.38897,17.73202 -13.46395,3.55407 m 10.34402,-9.34746 -11.96916,-1.22583 m 15.58629,-3.26211 -10.79049,-5.35926"
         style="fill:none;stroke:#000000;stroke-width:2;stroke-linecap:butt;stroke-linejoin:miter;stroke-miterlimit:4;stroke-dasharray:none;stroke-opacity:1"
         id="path5183" />
      <g
         transform="translate(-70.826425,-25.925144)"
         id="g4690">
        <g
           inkscape:tile-y0="213.55736"
           inkscape:tile-x0="220.33956"
           inkscape:transform-center-y="-19.039091"
           inkscape:transform-center-x="-20.442874"
           transform="translate(72.859393,26.594367)"
           id="use4606">
          <path
             inkscape:tile-y0="227.73714"
             inkscape:tile-x0="105.30871"
             inkscape:transform-center-y="0.75595563"
             inkscape:transform-center-x="-19.346998"
             sodipodi:nodetypes="ccccc"
             inkscape:connector-curvature="0"
             id="path4618"
             d="m 187.5609,258.15129 c 1.29445,2.89757 36.83624,-21.02859 36.5586,-22.57317 0.68696,-1.58975 -0.71363,-7.69621 -1.46368,-8.8796 -1.31827,-1.30314 -7.56743,-2.81646 -9.28522,-2.4574 -1.49318,-0.32311 -28.29286,32.40844 -25.8097,33.91017 z"
             style="fill:#4e300f;fill-opacity:1;stroke:#000000;stroke-width:2;stroke-linecap:butt;stroke-linejoin:miter;stroke-miterlimit:4;stroke-dasharray:none;stroke-opacity:1" />
          <path
             style="fill:#735533;fill-opacity:1;stroke:#000000;stroke-width:2;stroke-linecap:butt;stroke-linejoin:miter;stroke-miterlimit:4;stroke-dasharray:none;stroke-opacity:1"
             d="m 187.5609,258.15129 c 3.13193,0.49214 23.50617,-11.40689 23.22853,-12.95147 -0.17554,-2.62616 -2.34194,-6.66779 -8.54392,-8.18513 -1.49318,-0.32311 -13.96054,17.0624 -14.68461,21.1366 z"
             id="path4620"
             inkscape:connector-curvature="0"
             sodipodi:nodetypes="cccc"
             inkscape:transform-center-x="-19.346998"
             inkscape:transform-center-y="0.75595563"
             inkscape:tile-x0="105.30871"
             inkscape:tile-y0="227.73714" />
          <path
             inkscape:tile-y0="227.73714"
             inkscape:tile-x0="105.30871"
             inkscape:transform-center-y="0.75595563"
             inkscape:transform-center-x="-19.346998"
             sodipodi:nodetypes="cccc"
             inkscape:connector-curvature="0"
             id="path4622"
             d="m 187.5609,258.15129 c 3.26556,0.0912 19.19645,-7.9992 18.91881,-9.54378 -1.64552,-2.49253 -2.40876,-5.5319 -7.3078,-7.48355 -1.49318,-0.32311 -11.05398,12.95313 -11.61101,17.02733 z"
             style="fill:#4e300f;fill-opacity:1;stroke:#000000;stroke-width:2;stroke-linecap:butt;stroke-linejoin:miter;stroke-miterlimit:4;stroke-dasharray:none;stroke-opacity:1" />
        </g>
        <g
           inkscape:tile-y0="213.55736"
           inkscape:tile-x0="220.33956"
           inkscape:transform-center-y="-19.039091"
           inkscape:transform-center-x="-20.442874"
           transform="rotate(21,150.09281,470.18428)"
           id="use4608">
          <path
             inkscape:tile-y0="227.73714"
             inkscape:tile-x0="105.30871"
             inkscape:transform-center-y="0.75595563"
             inkscape:transform-center-x="-19.346998"
             sodipodi:nodetypes="ccccc"
             inkscape:connector-curvature="0"
             id="path4626"
             d="m 187.5609,258.15129 c 1.29445,2.89757 36.83624,-21.02859 36.5586,-22.57317 0.68696,-1.58975 -0.71363,-7.69621 -1.46368,-8.8796 -1.31827,-1.30314 -7.56743,-2.81646 -9.28522,-2.4574 -1.49318,-0.32311 -28.29286,32.40844 -25.8097,33.91017 z"
             style="fill:#4e300f;fill-opacity:1;stroke:#000000;stroke-width:2;stroke-linecap:butt;stroke-linejoin:miter;stroke-miterlimit:4;stroke-dasharray:none;stroke-opacity:1" />
          <path
             style="fill:#735533;fill-opacity:1;stroke:#000000;stroke-width:2;stroke-linecap:butt;stroke-linejoin:miter;stroke-miterlimit:4;stroke-dasharray:none;stroke-opacity:1"
             d="m 187.5609,258.15129 c 3.13193,0.49214 23.50617,-11.40689 23.22853,-12.95147 -0.17554,-2.62616 -2.34194,-6.66779 -8.54392,-8.18513 -1.49318,-0.32311 -13.96054,17.0624 -14.68461,21.1366 z"
             id="path4628"
             inkscape:connector-curvature="0"
             sodipodi:nodetypes="cccc"
             inkscape:transform-center-x="-19.346998"
             inkscape:transform-center-y="0.75595563"
             inkscape:tile-x0="105.30871"
             inkscape:tile-y0="227.73714" />
          <path
             inkscape:tile-y0="227.73714"
             inkscape:tile-x0="105.30871"
             inkscape:transform-center-y="0.75595563"
             inkscape:transform-center-x="-19.346998"
             sodipodi:nodetypes="cccc"
             inkscape:connector-curvature="0"
             id="path4630"
             d="m 187.5609,258.15129 c 3.26556,0.0912 19.19645,-7.9992 18.91881,-9.54378 -1.64552,-2.49253 -2.40876,-5.5319 -7.3078,-7.48355 -1.49318,-0.32311 -11.05398,12.95313 -11.61101,17.02733 z"
             style="fill:#4e300f;fill-opacity:1;stroke:#000000;stroke-width:2;stroke-linecap:butt;stroke-linejoin:miter;stroke-miterlimit:4;stroke-dasharray:none;stroke-opacity:1" />
        </g>
        <g
           inkscape:tile-y0="213.55736"
           inkscape:tile-x0="220.33956"
           inkscape:transform-center-y="-19.039091"
           inkscape:transform-center-x="-20.442874"
           transform="rotate(42,187.19764,368.52983)"
           id="use4610">
          <path
             inkscape:tile-y0="227.73714"
             inkscape:tile-x0="105.30871"
             inkscape:transform-center-y="0.75595563"
             inkscape:transform-center-x="-19.346998"
             sodipodi:nodetypes="ccccc"
             inkscape:connector-curvature="0"
             id="path4634"
             d="m 187.5609,258.15129 c 1.29445,2.89757 36.83624,-21.02859 36.5586,-22.57317 0.68696,-1.58975 -0.71363,-7.69621 -1.46368,-8.8796 -1.31827,-1.30314 -7.56743,-2.81646 -9.28522,-2.4574 -1.49318,-0.32311 -28.29286,32.40844 -25.8097,33.91017 z"
             style="fill:#4e300f;fill-opacity:1;stroke:#000000;stroke-width:2;stroke-linecap:butt;stroke-linejoin:miter;stroke-miterlimit:4;stroke-dasharray:none;stroke-opacity:1" />
          <path
             style="fill:#735533;fill-opacity:1;stroke:#000000;stroke-width:2;stroke-linecap:butt;stroke-linejoin:miter;stroke-miterlimit:4;stroke-dasharray:none;stroke-opacity:1"
             d="m 187.5609,258.15129 c 3.13193,0.49214 23.50617,-11.40689 23.22853,-12.95147 -0.17554,-2.62616 -2.34194,-6.66779 -8.54392,-8.18513 -1.49318,-0.32311 -13.96054,17.0624 -14.68461,21.1366 z"
             id="path4636"
             inkscape:connector-curvature="0"
             sodipodi:nodetypes="cccc"
             inkscape:transform-center-x="-19.346998"
             inkscape:transform-center-y="0.75595563"
             inkscape:tile-x0="105.30871"
             inkscape:tile-y0="227.73714" />
          <path
             inkscape:tile-y0="227.73714"
             inkscape:tile-x0="105.30871"
             inkscape:transform-center-y="0.75595563"
             inkscape:transform-center-x="-19.346998"
             sodipodi:nodetypes="cccc"
             inkscape:connector-curvature="0"
             id="path4638"
             d="m 187.5609,258.15129 c 3.26556,0.0912 19.19645,-7.9992 18.91881,-9.54378 -1.64552,-2.49253 -2.40876,-5.5319 -7.3078,-7.48355 -1.49318,-0.32311 -11.05398,12.95313 -11.61101,17.02733 z"
             style="fill:#4e300f;fill-opacity:1;stroke:#000000;stroke-width:2;stroke-linecap:butt;stroke-linejoin:miter;stroke-miterlimit:4;stroke-dasharray:none;stroke-opacity:1" />
        </g>
        <g
           inkscape:tile-y0="213.55736"
           inkscape:tile-x0="220.33956"
           inkscape:transform-center-y="-19.039091"
           inkscape:transform-center-x="-20.442874"
           transform="rotate(63,200.13896,333.07509)"
           id="use4612">
          <path
             inkscape:tile-y0="227.73714"
             inkscape:tile-x0="105.30871"
             inkscape:transform-center-y="0.75595563"
             inkscape:transform-center-x="-19.346998"
             sodipodi:nodetypes="ccccc"
             inkscape:connector-curvature="0"
             id="path4642"
             d="m 187.5609,258.15129 c 1.29445,2.89757 36.83624,-21.02859 36.5586,-22.57317 0.68696,-1.58975 -0.71363,-7.69621 -1.46368,-8.8796 -1.31827,-1.30314 -7.56743,-2.81646 -9.28522,-2.4574 -1.49318,-0.32311 -28.29286,32.40844 -25.8097,33.91017 z"
             style="fill:#4e300f;fill-opacity:1;stroke:#000000;stroke-width:2;stroke-linecap:butt;stroke-linejoin:miter;stroke-miterlimit:4;stroke-dasharray:none;stroke-opacity:1" />
          <path
             style="fill:#735533;fill-opacity:1;stroke:#000000;stroke-width:2;stroke-linecap:butt;stroke-linejoin:miter;stroke-miterlimit:4;stroke-dasharray:none;stroke-opacity:1"
             d="m 187.5609,258.15129 c 3.13193,0.49214 23.50617,-11.40689 23.22853,-12.95147 -0.17554,-2.62616 -2.34194,-6.66779 -8.54392,-8.18513 -1.49318,-0.32311 -13.96054,17.0624 -14.68461,21.1366 z"
             id="path4644"
             inkscape:connector-curvature="0"
             sodipodi:nodetypes="cccc"
             inkscape:transform-center-x="-19.346998"
             inkscape:transform-center-y="0.75595563"
             inkscape:tile-x0="105.30871"
             inkscape:tile-y0="227.73714" />
          <path
             inkscape:tile-y0="227.73714"
             inkscape:tile-x0="105.30871"
             inkscape:transform-center-y="0.75595563"
             inkscape:transform-center-x="-19.346998"
             sodipodi:nodetypes="cccc"
             inkscape:connector-curvature="0"
             id="path4646"
             d="m 187.5609,258.15129 c 3.26556,0.0912 19.19645,-7.9992 18.91881,-9.54378 -1.64552,-2.49253 -2.40876,-5.5319 -7.3078,-7.48355 -1.49318,-0.32311 -11.05398,12.95313 -11.61101,17.02733 z"
             style="fill:#4e300f;fill-opacity:1;stroke:#000000;stroke-width:2;stroke-linecap:butt;stroke-linejoin:miter;stroke-miterlimit:4;stroke-dasharray:none;stroke-opacity:1" />
        </g>
        <g
           inkscape:tile-y0="213.55736"
           inkscape:tile-x0="220.33956"
           inkscape:transform-center-y="-19.039091"
           inkscape:transform-center-x="-20.442874"
           transform="rotate(84,207.06997,314.0865)"
           id="use4614">
          <path
             inkscape:tile-y0="227.73714"
             inkscape:tile-x0="105.30871"
             inkscape:transform-center-y="0.75595563"
             inkscape:transform-center-x="-19.346998"
             sodipodi:nodetypes="ccccc"
             inkscape:connector-curvature="0"
             id="path4650"
             d="m 187.5609,258.15129 c 1.29445,2.89757 36.83624,-21.02859 36.5586,-22.57317 0.68696,-1.58975 -0.71363,-7.69621 -1.46368,-8.8796 -1.31827,-1.30314 -7.56743,-2.81646 -9.28522,-2.4574 -1.49318,-0.32311 -28.29286,32.40844 -25.8097,33.91017 z"
             style="fill:#4e300f;fill-opacity:1;stroke:#000000;stroke-width:2;stroke-linecap:butt;stroke-linejoin:miter;stroke-miterlimit:4;stroke-dasharray:none;stroke-opacity:1" />
          <path
             style="fill:#735533;fill-opacity:1;stroke:#000000;stroke-width:2;stroke-linecap:butt;stroke-linejoin:miter;stroke-miterlimit:4;stroke-dasharray:none;stroke-opacity:1"
             d="m 187.5609,258.15129 c 3.13193,0.49214 23.50617,-11.40689 23.22853,-12.95147 -0.17554,-2.62616 -2.34194,-6.66779 -8.54392,-8.18513 -1.49318,-0.32311 -13.96054,17.0624 -14.68461,21.1366 z"
             id="path4652"
             inkscape:connector-curvature="0"
             sodipodi:nodetypes="cccc"
             inkscape:transform-center-x="-19.346998"
             inkscape:transform-center-y="0.75595563"
             inkscape:tile-x0="105.30871"
             inkscape:tile-y0="227.73714" />
          <path
             inkscape:tile-y0="227.73714"
             inkscape:tile-x0="105.30871"
             inkscape:transform-center-y="0.75595563"
             inkscape:transform-center-x="-19.346998"
             sodipodi:nodetypes="cccc"
             inkscape:connector-curvature="0"
             id="path4654"
             d="m 187.5609,258.15129 c 3.26556,0.0912 19.19645,-7.9992 18.91881,-9.54378 -1.64552,-2.49253 -2.40876,-5.5319 -7.3078,-7.48355 -1.49318,-0.32311 -11.05398,12.95313 -11.61101,17.02733 z"
             style="fill:#4e300f;fill-opacity:1;stroke:#000000;stroke-width:2;stroke-linecap:butt;stroke-linejoin:miter;stroke-miterlimit:4;stroke-dasharray:none;stroke-opacity:1" />
        </g>
        <g
           inkscape:tile-y0="213.55736"
           inkscape:tile-x0="220.33956"
           inkscape:transform-center-y="-19.039091"
           inkscape:transform-center-x="-20.442874"
           transform="rotate(105,211.6347,301.58072)"
           id="use4616">
          <path
             inkscape:tile-y0="227.73714"
             inkscape:tile-x0="105.30871"
             inkscape:transform-center-y="0.75595563"
             inkscape:transform-center-x="-19.346998"
             sodipodi:nodetypes="ccccc"
             inkscape:connector-curvature="0"
             id="path4658"
             d="m 187.5609,258.15129 c 1.29445,2.89757 36.83624,-21.02859 36.5586,-22.57317 0.68696,-1.58975 -0.71363,-7.69621 -1.46368,-8.8796 -1.31827,-1.30314 -7.56743,-2.81646 -9.28522,-2.4574 -1.49318,-0.32311 -28.29286,32.40844 -25.8097,33.91017 z"
             style="fill:#4e300f;fill-opacity:1;stroke:#000000;stroke-width:2;stroke-linecap:butt;stroke-linejoin:miter;stroke-miterlimit:4;stroke-dasharray:none;stroke-opacity:1" />
          <path
             style="fill:#735533;fill-opacity:1;stroke:#000000;stroke-width:2;stroke-linecap:butt;stroke-linejoin:miter;stroke-miterlimit:4;stroke-dasharray:none;stroke-opacity:1"
             d="m 187.5609,258.15129 c 3.13193,0.49214 23.50617,-11.40689 23.22853,-12.95147 -0.17554,-2.62616 -2.34194,-6.66779 -8.54392,-8.18513 -1.49318,-0.32311 -13.96054,17.0624 -14.68461,21.1366 z"
             id="path4660"
             inkscape:connector-curvature="0"
             sodipodi:nodetypes="cccc"
             inkscape:transform-center-x="-19.346998"
             inkscape:transform-center-y="0.75595563"
             inkscape:tile-x0="105.30871"
             inkscape:tile-y0="227.73714" />
          <path
             inkscape:tile-y0="227.73714"
             inkscape:tile-x0="105.30871"
             inkscape:transform-center-y="0.75595563"
             inkscape:transform-center-x="-19.346998"
             sodipodi:nodetypes="cccc"
             inkscape:connector-curvature="0"
             id="path4662"
             d="m 187.5609,258.15129 c 3.26556,0.0912 19.19645,-7.9992 18.91881,-9.54378 -1.64552,-2.49253 -2.40876,-5.5319 -7.3078,-7.48355 -1.49318,-0.32311 -11.05398,12.95313 -11.61101,17.02733 z"
             style="fill:#4e300f;fill-opacity:1;stroke:#000000;stroke-width:2;stroke-linecap:butt;stroke-linejoin:miter;stroke-miterlimit:4;stroke-dasharray:none;stroke-opacity:1" />
        </g>
      </g>
      <g
         style="stroke-width:2;stroke-miterlimit:4;stroke-dasharray:none"
         transform="rotate(4.2564876,-193.42509,1717.231)"
         id="g5171">
        <circle
           r="5.4695306"
           cy="235.59079"
           cx="80.686012"
           id="circle5163"
           style="fill:#4e300f;fill-opacity:1;fill-rule:nonzero;stroke:#000000;stroke-width:2;stroke-linecap:round;stroke-linejoin:miter;stroke-miterlimit:4;stroke-dasharray:none;stroke-dashoffset:0;stroke-opacity:1;paint-order:normal" />
        <circle
           style="fill:#000000;fill-opacity:1;fill-rule:nonzero;stroke:#000000;stroke-width:2;stroke-linecap:round;stroke-linejoin:miter;stroke-miterlimit:4;stroke-dasharray:none;stroke-dashoffset:0;stroke-opacity:1;paint-order:normal"
           id="path5161"
           cx="80.708633"
           cy="235.59488"
           r="1.4650544" />
      </g>
    </g>
    <path
       sodipodi:nodetypes="ccccccc"
       inkscape:connector-curvature="0"
       id="path4726"
       d="m 99.691216,119.16219 c 2.544404,7.94102 -33.041156,17.87439 -30.669176,10.46178 h -10e-7 c 6.317308,-5.40864 14.138942,-17.87985 11.668303,-21.80107 -0.638571,-2.85967 -9.634932,-0.93017 -16.489741,-1.78982 3.907352,-12.658537 16.43451,-17.003842 24.245831,-16.825506 16.603338,0.02219 11.244784,29.954616 11.244784,29.954616 z"
       style="fill:#7a2210;fill-opacity:1;fill-rule:nonzero;stroke:#000000;stroke-width:2;stroke-linecap:round;stroke-linejoin:miter;stroke-miterlimit:4;stroke-dasharray:none;stroke-dashoffset:0;stroke-opacity:1;paint-order:normal" />
    <g
       id="g4731">
      <path
         sodipodi:nodetypes="cc"
         inkscape:connector-curvature="0"
         id="path5186"
         d="m 66.505885,104.94309 12.01109,-4.42026"
         style="fill:none;stroke:#000000;stroke-width:2;stroke-linecap:round;stroke-linejoin:miter;stroke-miterlimit:4;stroke-dasharray:none;stroke-opacity:1" />
      <circle
         r="4.5907621"
         cy="97.938622"
         cx="85.946541"
         id="circle5188"
         style="fill:#fffefc;fill-opacity:1;fill-rule:nonzero;stroke:#000000;stroke-width:1.67866766;stroke-linecap:round;stroke-linejoin:miter;stroke-miterlimit:4;stroke-dasharray:none;stroke-dashoffset:0;stroke-opacity:1;paint-order:normal" />
      <circle
         style="fill:#000000;fill-opacity:1;fill-rule:nonzero;stroke:#000000;stroke-width:1.67866766;stroke-linecap:round;stroke-linejoin:miter;stroke-miterlimit:4;stroke-dasharray:none;stroke-dashoffset:0;stroke-opacity:1;paint-order:normal"
         id="circle5190"
         cx="85.96553"
         cy="97.942055"
         r="1.2296698" />
    </g>
  </g>
</svg>
