<?xml version="1.0" encoding="UTF-8" standalone="no"?>
<!-- Created with Inkscape (http://www.inkscape.org/) -->

<svg
   xmlns:dc="http://purl.org/dc/elements/1.1/"
   xmlns:cc="http://creativecommons.org/ns#"
   xmlns:rdf="http://www.w3.org/1999/02/22-rdf-syntax-ns#"
   xmlns:svg="http://www.w3.org/2000/svg"
   xmlns="http://www.w3.org/2000/svg"
   xmlns:sodipodi="http://sodipodi.sourceforge.net/DTD/sodipodi-0.dtd"
   xmlns:inkscape="http://www.inkscape.org/namespaces/inkscape"
   width="301.625mm"
   height="513.5556mm"
   viewBox="0 0 301.625 513.5556"
   version="1.1"
   id="svg8"
   inkscape:version="0.92.1 15371"
   sodipodi:docname="woodpecker.svg">
  <defs
     id="defs2" />
  <sodipodi:namedview
     id="base"
     pagecolor="#ffffff"
     bordercolor="#666666"
     borderopacity="1.0"
     inkscape:pageopacity="0.0"
     inkscape:pageshadow="2"
     inkscape:zoom="0.70710678"
     inkscape:cx="791.09628"
     inkscape:cy="953.45623"
     inkscape:document-units="mm"
     inkscape:current-layer="layer6"
     showgrid="false"
     inkscape:pagecheckerboard="true"
     inkscape:window-width="3104"
     inkscape:window-height="1770"
     inkscape:window-x="96"
     inkscape:window-y="30"
     inkscape:window-maximized="1"
     inkscape:measure-start="-869.369,709.959"
     inkscape:measure-end="-824.592,571.629"
     fit-margin-top="0"
     fit-margin-left="0"
     fit-margin-right="0"
     fit-margin-bottom="0" />
  <metadata
     id="metadata5">
    <rdf:RDF>
      <cc:Work
         rdf:about="">
        <dc:format>image/svg+xml</dc:format>
        <dc:type
           rdf:resource="http://purl.org/dc/dcmitype/StillImage" />
        <dc:title />
      </cc:Work>
    </rdf:RDF>
  </metadata>
  <g
     inkscape:groupmode="layer"
     id="layer6"
     inkscape:label="berries"
     style="display:inline"
     transform="translate(427.49106,122.17561)">
    <path
       style="fill:none;stroke:#000000;stroke-width:6;stroke-linecap:butt;stroke-linejoin:miter;stroke-miterlimit:4;stroke-dasharray:none;stroke-opacity:1"
       d="m -260.80357,-15.964285 c -39.18534,7.4371344 -89.33791,-16.501463 -85.23362,12.8511899"
       id="path4545"
       inkscape:connector-curvature="0"
       sodipodi:nodetypes="cc" />
    <ellipse
       style="fill:#8b0000;fill-opacity:1;fill-rule:nonzero;stroke:#000000;stroke-width:2.99620891;stroke-linecap:round;stroke-linejoin:miter;stroke-miterlimit:4;stroke-dasharray:none;stroke-dashoffset:0;stroke-opacity:1;paint-order:normal"
       id="path4537"
       cx="-353.82593"
       cy="-4.0059528"
       rx="13.001896"
       ry="14.501896" />
    <ellipse
       ry="14.501896"
       rx="13.001896"
       cy="16.026785"
       cx="-359.68457"
       id="ellipse4539"
       style="fill:#8b0000;fill-opacity:1;fill-rule:nonzero;stroke:#000000;stroke-width:2.99620891;stroke-linecap:round;stroke-linejoin:miter;stroke-miterlimit:4;stroke-dasharray:none;stroke-dashoffset:0;stroke-opacity:1;paint-order:normal" />
    <ellipse
       style="fill:#8b0000;fill-opacity:1;fill-rule:nonzero;stroke:#000000;stroke-width:2.99620891;stroke-linecap:round;stroke-linejoin:miter;stroke-miterlimit:4;stroke-dasharray:none;stroke-dashoffset:0;stroke-opacity:1;paint-order:normal"
       id="ellipse4541"
       cx="-361.57446"
       cy="39.083332"
       rx="13.001896"
       ry="14.501896" />
    <ellipse
       ry="14.501896"
       rx="13.001896"
       cy="61.383926"
       cx="-362.14142"
       id="ellipse4543"
       style="fill:#8b0000;fill-opacity:1;fill-rule:nonzero;stroke:#000000;stroke-width:2.99620891;stroke-linecap:round;stroke-linejoin:miter;stroke-miterlimit:4;stroke-dasharray:none;stroke-dashoffset:0;stroke-opacity:1;paint-order:normal" />
  </g>
  <g
     inkscape:groupmode="layer"
     id="layer2"
     inkscape:label="body"
     style="display:inline"
     transform="translate(427.49106,122.17561)">
    <path
       style="display:inline;fill:#ece2cd;fill-opacity:1;stroke:#000000;stroke-width:2;stroke-linecap:round;stroke-linejoin:miter;stroke-miterlimit:4;stroke-dasharray:none;stroke-opacity:1"
       d="m -339.03139,-37.888717 c -1.12199,-3.401103 55.47895,-6.916394 72.56368,-9.153983 l 17.37251,51.6498366 c -14.23476,-5.4278665 -83.78079,14.0648404 -84.59081,8.8198944 -0.91916,-5.9516268 69.47564,-25.264143 68.59215,-29.689846 -1.86415,-6.056356 -71.94914,-15.598492 -73.93753,-21.625902 z"
       id="path4568"
       inkscape:connector-curvature="0"
       sodipodi:nodetypes="sccscs" />
    <path
       style="display:inline;fill:#0a0606;fill-opacity:1;stroke:#000000;stroke-width:2;stroke-linecap:butt;stroke-linejoin:miter;stroke-miterlimit:4;stroke-dasharray:none;stroke-opacity:1"
       d="m -277.28582,315.51459 c 5.6918,27.27251 18.39899,34.25305 26.83073,46.84484 5.83041,8.70701 13.05034,25.70521 21.21253,28.00068 16.75568,-2.40005 44.86735,-56.48411 54.20716,-76.57259 11.48572,-24.70402 18.96532,-37.76899 23.82593,-64.52323 5.68028,-44.3536 5.95629,-68.49584 1.16833,-97.65149 -5.32246,-32.41039 -8.41598,-50.23218 -21.87873,-75.415746 -2.21751,-11.414924 -2.42796,-17.112126 0.33211,-26.725602 3.69581,-10.487912 11.97282,-20.441286 15.5591,-29.26073 5.22677,-9.721155 8.33516,-66.868023 -21.62015,-73.500155 25.34602,-13.906977 19.20609,-33.352624 9.74353,-43.793821 -11.90111,-10.360226 -22.09576,-4.454146 -25.99848,-5.258086 2.64667,17.80928 -23.61711,22.410921 -63.46559,34.410893 -5.02129,1.084688 -15.17624,14.095235 -17.64861,21.598366 l 18.46025,30.875811 -3.39542,18.5797815 c 12.18799,3.0568242 -1.27655,26.2656995 -12.5677,36.6636905 -11.04005,10.126612 -36.69204,43.305373 -39.40123,61.485978 -4.89795,9.78013 -10.33388,41.14142 -8.34792,60.60033 1.20937,10.43729 2.96897,22.14585 12.25008,37.74414 2.78697,4.72318 2.59584,3.2021 4.90811,9.09307 -21.86208,31.4118 -16.30684,26.50737 -38.2161,53.84759 -2.88447,3.55171 -6.7253,11.27722 -6.7253,11.27722 4.35364,-0.41419 17.20636,3.51801 18.02046,7.56542 6.09139,-7.8768 12.84504,-7.60485 15.34658,-10.10611 3.36477,-3.3644 8.85815,-14.67411 11.46635,-15.70515 1.98363,6.42652 -0.75599,18.39295 -2.06882,40.40805 5.25064,1.13181 13.94249,4.07922 13.94249,4.07922 6.44939,-13.47007 14.6132,-14.01656 13.64157,-2.41852 0.0608,2.33256 -1.00828,11.74356 0.41874,17.85615 z"
       id="path4547"
       inkscape:connector-curvature="0"
       sodipodi:nodetypes="ccccccccccccccccccccccccsccccc" />
    <path
       style="display:inline;fill:#927b6b;fill-opacity:1;stroke:#020202;stroke-width:1.29999995;stroke-linecap:butt;stroke-linejoin:miter;stroke-miterlimit:4;stroke-dasharray:none;stroke-opacity:1"
       d="m -400.50338,291.12006 c 1.50793,-8.08398 17.46679,-15.76133 31.37131,-12.31497 1.74908,0.43352 8.63726,2.01724 12.43124,0.93843 8.96881,-2.55025 7.42272,-5.25614 10.40175,-9.82134 l 18.22575,9.43802 c -3.63918,6.70382 -12.86385,15.10629 -10.58681,20.25321 6.71959,15.18858 4.12578,26.07338 -0.0952,31.43243 -0.74768,4.62726 -5.1154,14.84743 -9.80257,14.33064 -9.52112,-1.04976 3.20394,-16.26911 -5.03134,-27.10958 -0.86559,-1.13942 -6.49844,-7.82302 -9.62332,-9.97001 -2.90937,-1.99893 -7.43878,-4.19394 -14.96711,-5.7463 -5.91056,-1.21877 -12.87436,3.24523 -15.10744,-0.33883 -2.0189,-3.24031 1.83459,-6.47849 5.7463,-9.08716 -4.69883,-2.03834 -13.47756,0.75633 -12.96257,-2.00454 z"
       id="path4487"
       inkscape:connector-curvature="0"
       sodipodi:nodetypes="cssccscssssscsc" />
    <path
       style="display:inline;fill:#927b6b;fill-opacity:1;stroke:#000000;stroke-width:1;stroke-linecap:butt;stroke-linejoin:miter;stroke-miterlimit:4;stroke-dasharray:none;stroke-opacity:1"
       d="m -305.67283,295.98103 c -1.6927,6.7931 -2.7929,16.01429 -4.99457,19.69441 -1.94039,3.2434 -25.44571,12.21392 -24.38836,17.13867 0.99282,4.62423 5.38993,1.67043 8.0849,2.50565 -2.02953,5.8373 -4.44408,9.17705 -0.83521,12.52826 4.37046,4.05842 9.97782,-10.33708 25.59105,-7.61717 16.65506,2.9014 16.46189,17.54054 20.07862,16.63753 4.51853,-1.12816 2.46797,-15.90088 0.36751,-19.81136 -4.48619,-8.35207 -10.21529,-9.37037 -11.52599,-16.53731 -1.67955,-9.18383 0.78325,-14.56593 3.04017,-21.74907 z"
       id="path4489"
       inkscape:connector-curvature="0"
       sodipodi:nodetypes="csscssssscc" />
  </g>
  <g
     inkscape:groupmode="layer"
     id="layer9"
     inkscape:label="leg borders">
    <path
       transform="translate(427.49105,122.17561)"
       style="display:inline;fill:none;stroke:#2c2626;stroke-width:3;stroke-linecap:round;stroke-linejoin:miter;stroke-miterlimit:4;stroke-dasharray:none;stroke-opacity:1"
       d="m -306.1796,217.54875 c 12.13087,-19.51847 35.7431,-42.6604 47.91023,-51.70416"
       id="path4741"
       inkscape:connector-curvature="0"
       sodipodi:nodetypes="cc" />
    <path
       transform="translate(427.49105,122.17561)"
       style="display:inline;fill:none;stroke:#2c2626;stroke-width:3;stroke-linecap:round;stroke-linejoin:miter;stroke-miterlimit:4;stroke-dasharray:none;stroke-opacity:1"
       d="m -305.78273,255.78104 c 21.51781,-24.22482 25.61356,-36.62959 59.53125,-48.68333"
       id="path4743"
       inkscape:connector-curvature="0"
       sodipodi:nodetypes="cc" />
  </g>
  <g
     inkscape:groupmode="layer"
     id="layer7"
     inkscape:label="trace"
     style="display:none"
     transform="translate(427.49106,122.17561)" />
  <g
     inkscape:groupmode="layer"
     id="layer3"
     inkscape:label="red crest"
     style="display:inline"
     transform="translate(427.49106,122.17561)">
    <path
       style="display:inline;fill:#80000f;fill-opacity:1;stroke:#404040;stroke-width:2;stroke-linecap:butt;stroke-linejoin:miter;stroke-miterlimit:4;stroke-dasharray:none;stroke-opacity:1"
       d="m -231.98288,-63.494791 c 32.31843,-11.235907 37.59506,-16.127367 45.64062,-28.631696 16.37398,2.197876 19.6144,17.458021 13.04018,25.418899 -8.71015,10.547326 -21.19817,15.654513 -33.3564,17.953868 z"
       id="path4496"
       inkscape:connector-curvature="0"
       sodipodi:nodetypes="ccscc" />
  </g>
  <g
     inkscape:groupmode="layer"
     id="layer5"
     inkscape:label="white stripe"
     style="display:inline"
     transform="translate(427.49106,122.17561)">
    <path
       sodipodi:nodetypes="sccssccs"
       inkscape:connector-curvature="0"
       id="path4526"
       d="m -163.74913,0.3264035 c -0.40623,52.9495285 -17.55925,65.0664215 -43.60843,75.8189485 -1.08366,-2.066048 -22.4842,-11.981926 -28.52372,-14.771241 18.00137,-5.455328 17.64104,-9.069349 36.98229,-16.63251 19.54695,-7.643598 17.64021,-22.223481 19.55834,-36.3832035 4.03604,-29.7942275 -15.78721,-42.4451205 -28.35727,-46.1508075 7.20842,-4.68978 9.68462,-5.886959 15.59152,-8.031994 17.29476,1.9103 28.58793,16.085339 28.35727,46.1508075 z"
       style="fill:#ffffff;fill-opacity:1;stroke:#2c2626;stroke-width:3;stroke-linecap:butt;stroke-linejoin:miter;stroke-miterlimit:4;stroke-dasharray:none;stroke-opacity:1" />
  </g>
  <g
     inkscape:label="detail"
     inkscape:groupmode="layer"
     id="layer1"
     style="display:inline"
     transform="translate(427.49106,122.17561)">
    <path
       style="fill:none;fill-opacity:1;stroke:#2c2626;stroke-width:3;stroke-linecap:round;stroke-linejoin:miter;stroke-miterlimit:4;stroke-dasharray:none;stroke-opacity:1"
       d="m -209.49915,-35.496227 c 13.57882,2.654353 22.6847,31.6890077 8.44768,49.918724 -10.29928,13.187659 -56.68603,37.239471 -75.76855,30.514685"
       id="path4595"
       inkscape:connector-curvature="0"
       sodipodi:nodetypes="csc" />
    <path
       style="fill:none;fill-opacity:1;stroke:#2c2626;stroke-width:3;stroke-linecap:round;stroke-linejoin:miter;stroke-miterlimit:4;stroke-dasharray:none;stroke-opacity:1"
       d="m -268.18378,-51.903762 c -2.42039,12.2156 1.36465,16.391781 7.59988,22.339051 16.23082,15.481227 30.98733,36.0535059 31.32074,40.763015 0.71429,10.089475 -15.71296,24.322935 -24.9875,29.708637 -7.1232,4.136421 -20.18001,6.908823 -22.56936,4.030241"
       id="path4593"
       inkscape:connector-curvature="0"
       sodipodi:nodetypes="csssc" />
    <path
       style="fill:#020202;fill-opacity:1;stroke:#2c2626;stroke-width:3;stroke-linecap:round;stroke-linejoin:miter;stroke-miterlimit:4;stroke-dasharray:none;stroke-opacity:1"
       d="m -182.2398,63.742919 c -12.90597,7.949887 -19.095,9.721044 -32.28419,4.799962 -4.78733,-1.786223 -18.12951,-8.447244 -34.31463,-3.454493 -16.32785,5.036782 -25.01481,30.628032 -21.87847,51.011342 1.74896,11.36661 6.14755,30.09247 13.70284,53.89008 8.74237,27.5367 15.58929,58.87941 23.02995,101.90753 4.10911,23.76231 7.14074,68.01277 8.26618,117.19539 37.18311,-10.39134 71.86114,-88.49743 77.88899,-163.05941 6.02784,-74.56197 -12.38226,-148.85578 -34.41067,-162.290401 z"
       id="path4597"
       inkscape:connector-curvature="0"
       sodipodi:nodetypes="cssssscsc" />
    <path
       style="fill:#0b0b0b;fill-opacity:1;stroke:#2c2626;stroke-width:2;stroke-linecap:butt;stroke-linejoin:miter;stroke-miterlimit:4;stroke-dasharray:none;stroke-opacity:1"
       d="m -166.852,91.457683 c -2.97308,-6.178194 -15.83935,2.795512 -31.08073,5.205678 -15.24138,2.410165 -28.67011,0.260495 -40.88786,-0.369388 -13.49627,-0.695797 -16.09677,8.959047 -16.46642,15.660367 -0.60212,10.91583 -3.743,30.61668 4.60599,32.47223 6.82197,1.51617 5.42044,-15.66282 6.10294,-23.836 1.05244,-12.60336 8.09077,-11.40464 12.43617,-11.28467 45.1605,1.24686 69.2428,-9.633922 65.28991,-17.848217 z"
       id="path4599"
       inkscape:connector-curvature="0"
       sodipodi:nodetypes="ssssssss" />
    <path
       style="fill:#0b0b0b;fill-opacity:1;stroke:#2c2626;stroke-width:3;stroke-linecap:butt;stroke-linejoin:miter;stroke-miterlimit:4;stroke-dasharray:none;stroke-opacity:1"
       d="m -236.2873,120.01482 1.6121,33.62373 c 0.26898,9.80117 7.63306,5.29301 7.83018,1.03635 l -2.18784,-35.46613 c -0.62942,-12.72946 -7.77519,-9.86049 -7.25444,0.80605 z"
       id="path4601"
       inkscape:connector-curvature="0"
       sodipodi:nodetypes="ccccc" />
    <path
       style="fill:#0b0b0b;fill-opacity:1;stroke:#2c2626;stroke-width:3;stroke-linecap:butt;stroke-linejoin:miter;stroke-miterlimit:4;stroke-dasharray:none;stroke-opacity:1"
       d="m -227.99651,116.09973 c -0.90684,-7.785 14.42747,-7.77 15.54521,-1.72725 l 4.03024,39.03577 c -0.66041,4.69583 -13.07212,7.64141 -16.58156,2.99389 -3.5989,-28.55887 -2.22623,-25.83192 -2.99389,-40.30241 z"
       id="path4603"
       inkscape:connector-curvature="0"
       sodipodi:nodetypes="ccccc" />
    <path
       sodipodi:nodetypes="ccccc"
       inkscape:connector-curvature="0"
       id="path4605"
       d="m -212.4513,114.37248 c -0.90684,-7.785 18.22741,-7.42455 19.6906,-0.80605 l 4.37569,35.58128 c 1.52744,5.73217 -17.33266,11.3262 -20.03605,4.26054 -3.5989,-28.55887 -3.26258,-24.56528 -4.03024,-39.03577 z"
       style="fill:#0b0b0b;fill-opacity:1;stroke:#2c2626;stroke-width:3;stroke-linecap:butt;stroke-linejoin:miter;stroke-miterlimit:4;stroke-dasharray:none;stroke-opacity:1" />
    <path
       style="fill:#0b0b0b;fill-opacity:1;stroke:#2c2626;stroke-width:3;stroke-linecap:butt;stroke-linejoin:miter;stroke-miterlimit:4;stroke-dasharray:none;stroke-opacity:1"
       d="m -192.7607,113.56643 c -0.90684,-7.785 8.55483,-10.18814 10.01802,-3.56964 l 3.91509,38.11457 c -0.19981,5.38672 -6.85403,8.10201 -9.55742,1.03635 -3.5989,-28.55887 -3.03228,-26.17738 -4.37569,-35.58128 z"
       id="path4607"
       inkscape:connector-curvature="0"
       sodipodi:nodetypes="ccccc" />
    <path
       sodipodi:nodetypes="ccccc"
       inkscape:connector-curvature="0"
       id="path4609"
       d="m -182.74268,109.99679 c -0.90684,-7.785 6.3382,-7.59727 7.80139,-0.97877 l 4.80751,36.4449 c 1.06683,4.23522 -5.76012,6.95051 -7.65746,0.11515 -3.5989,-28.55887 -3.60803,-26.17738 -4.95144,-35.58128 z"
       style="fill:#0b0b0b;fill-opacity:1;stroke:#2c2626;stroke-width:3;stroke-linecap:butt;stroke-linejoin:miter;stroke-miterlimit:4;stroke-dasharray:none;stroke-opacity:1" />
    <path
       sodipodi:nodetypes="ccccc"
       inkscape:connector-curvature="0"
       id="path4613"
       d="m -173.41556,108.61499 c -0.90684,-7.785 6.71244,-10.533593 10.24833,-4.37569 4.61163,15.01349 6.79383,25.29457 8.17563,38.80547 -0.54526,5.04127 -12.61152,7.18082 -14.16341,2.7636 -2.44741,-21.18929 -2.91714,-27.78948 -4.26055,-37.19338 z"
       style="fill:#0b0b0b;fill-opacity:1;stroke:#2c2626;stroke-width:3;stroke-linecap:butt;stroke-linejoin:miter;stroke-miterlimit:4;stroke-dasharray:none;stroke-opacity:1" />
    <path
       style="fill:#0b0b0b;fill-opacity:1;stroke:#2c2626;stroke-width:2;stroke-linecap:square;stroke-linejoin:miter;stroke-miterlimit:4;stroke-dasharray:none;stroke-opacity:1"
       d="m -235.71155,138.43878 -5.75749,6.21809 5.98779,-3.79994 z"
       id="path4617"
       inkscape:connector-curvature="0"
       sodipodi:nodetypes="cccc" />
    <path
       style="fill:#0b0b0b;fill-opacity:1;stroke:#2c2626;stroke-width:2;stroke-linecap:round;stroke-linejoin:miter;stroke-miterlimit:4;stroke-dasharray:none;stroke-opacity:1"
       d="m -235.48125,146.03867 -8.52108,10.24832 8.17563,-3.68479 z"
       id="path4619"
       inkscape:connector-curvature="0"
       sodipodi:nodetypes="cccc" />
    <path
       style="fill:#0b0b0b;fill-opacity:1;stroke:#2c2626;stroke-width:3;stroke-linecap:round;stroke-linejoin:miter;stroke-miterlimit:4;stroke-dasharray:none;stroke-opacity:1"
       d="m -227.76622,125.42686 14.79675,-12.6089"
       id="path4623"
       inkscape:connector-curvature="0" />
    <path
       style="fill:#0b0b0b;fill-opacity:1;stroke:#2c2626;stroke-width:3;stroke-linecap:round;stroke-linejoin:miter;stroke-miterlimit:4;stroke-dasharray:none;stroke-opacity:1"
       d="m -227.36319,135.38731 15.89066,-12.32102"
       id="path4625"
       inkscape:connector-curvature="0" />
    <path
       style="fill:#0b0b0b;fill-opacity:1;stroke:#2c2626;stroke-width:3;stroke-linecap:round;stroke-linejoin:miter;stroke-miterlimit:4;stroke-dasharray:none;stroke-opacity:1"
       d="m -226.72987,145.63564 15.89067,-12.32102"
       id="path4627"
       inkscape:connector-curvature="0" />
    <path
       style="fill:#0b0b0b;fill-opacity:1;stroke:#2c2626;stroke-width:3;stroke-linecap:round;stroke-linejoin:miter;stroke-miterlimit:4;stroke-dasharray:none;stroke-opacity:1"
       d="m -209.11196,144.94474 -15.89066,11.4574"
       id="path4629"
       inkscape:connector-curvature="0" />
    <path
       style="fill:#0b0b0b;fill-opacity:1;stroke:#2c2626;stroke-width:3;stroke-linecap:round;stroke-linejoin:miter;stroke-miterlimit:4;stroke-dasharray:none;stroke-opacity:1"
       d="m -212.4513,114.37248 21.01483,13.87555"
       id="path4631"
       inkscape:connector-curvature="0" />
    <path
       style="fill:#0b0b0b;fill-opacity:1;stroke:#2c2626;stroke-width:3;stroke-linecap:round;stroke-linejoin:miter;stroke-miterlimit:4;stroke-dasharray:none;stroke-opacity:1"
       d="m -211.47253,123.06629 21.59058,14.56644"
       id="path4633"
       inkscape:connector-curvature="0" />
    <path
       style="fill:#0b0b0b;fill-opacity:1;stroke:#2c2626;stroke-width:3;stroke-linecap:round;stroke-linejoin:miter;stroke-miterlimit:4;stroke-dasharray:none;stroke-opacity:1"
       d="M -188.38501,149.14771 -210.8392,133.31462"
       id="path4635"
       inkscape:connector-curvature="0" />
    <path
       style="fill:#0b0b0b;fill-opacity:1;stroke:#2c2626;stroke-width:3;stroke-linecap:butt;stroke-linejoin:miter;stroke-miterlimit:4;stroke-dasharray:none;stroke-opacity:1"
       d="m -209.11196,144.94474 12.26345,10.76651"
       id="path4637"
       inkscape:connector-curvature="0" />
    <path
       style="fill:#0b0b0b;fill-opacity:1;stroke:#2c2626;stroke-width:3;stroke-linecap:round;stroke-linejoin:miter;stroke-miterlimit:4;stroke-dasharray:none;stroke-opacity:1"
       d="m -178.94272,145.98109 -9.67258,-6.10293"
       id="path4639"
       inkscape:connector-curvature="0"
       sodipodi:nodetypes="cc" />
    <path
       style="fill:#0b0b0b;fill-opacity:1;stroke:#2c2626;stroke-width:3;stroke-linecap:round;stroke-linejoin:miter;stroke-miterlimit:4;stroke-dasharray:none;stroke-opacity:1"
       d="m -179.46089,135.96306 -10.24833,-5.69991"
       id="path4641"
       inkscape:connector-curvature="0"
       sodipodi:nodetypes="cc" />
    <path
       style="fill:#0b0b0b;fill-opacity:1;stroke:#2c2626;stroke-width:3;stroke-linecap:round;stroke-linejoin:miter;stroke-miterlimit:4;stroke-dasharray:none;stroke-opacity:1"
       d="m -181.24571,123.12387 -9.61501,-4.31812"
       id="path4643"
       inkscape:connector-curvature="0"
       sodipodi:nodetypes="cc" />
    <path
       style="fill:#0b0b0b;fill-opacity:1;stroke:#2c2626;stroke-width:3;stroke-linecap:round;stroke-linejoin:miter;stroke-miterlimit:4;stroke-dasharray:none;stroke-opacity:1"
       d="m -183.54871,112.70281 -8.06048,-3.79994"
       id="path4645"
       inkscape:connector-curvature="0"
       sodipodi:nodetypes="cc" />
    <path
       style="fill:#0b0b0b;fill-opacity:1;stroke:#2c2626;stroke-width:3;stroke-linecap:round;stroke-linejoin:miter;stroke-miterlimit:4;stroke-dasharray:none;stroke-opacity:1"
       d="m -172.78221,112.87554 8.46351,-9.73016"
       id="path4647"
       inkscape:connector-curvature="0" />
    <path
       style="fill:#0b0b0b;fill-opacity:1;stroke:#2c2626;stroke-width:3;stroke-linecap:round;stroke-linejoin:miter;stroke-miterlimit:4;stroke-dasharray:none;stroke-opacity:1"
       d="m -171.17011,125.88746 10.0756,-13.35737"
       id="path4649"
       inkscape:connector-curvature="0" />
    <path
       style="fill:#0b0b0b;fill-opacity:1;stroke:#2c2626;stroke-width:3;stroke-linecap:round;stroke-linejoin:miter;stroke-miterlimit:4;stroke-dasharray:none;stroke-opacity:1"
       d="m -169.03984,140.9145 10.88165,-17.90578"
       id="path4651"
       inkscape:connector-curvature="0"
       sodipodi:nodetypes="cc" />
    <path
       style="fill:#0b0b0b;fill-opacity:1;stroke:#2c2626;stroke-width:2;stroke-linecap:butt;stroke-linejoin:miter;stroke-miterlimit:4;stroke-dasharray:none;stroke-opacity:1"
       d="m -250.45071,162.10206 c -6.52772,0.22649 -10.97796,7.31844 -0.92121,6.73626 l 63.21722,-9.26955 c 3.8794,-0.96 5.63737,-5.73197 -1.43938,-5.41204 z"
       id="path4655"
       inkscape:connector-curvature="0"
       sodipodi:nodetypes="ccccc" />
    <path
       style="fill:#0b0b0b;fill-opacity:1;stroke:#2c2626;stroke-width:3;stroke-linecap:butt;stroke-linejoin:miter;stroke-miterlimit:4;stroke-dasharray:none;stroke-opacity:1"
       d="m -177.10032,151.50828 c -4.12435,1.77083 -4.81069,5.33389 1.20907,5.64234 9.08731,0.46563 22.56986,-3.24692 22.39663,-6.21809 -0.14767,-2.53258 -1.75642,-4.13188 -4.606,-3.62722 -10.41625,1.84474 -11.98456,1.19094 -18.9997,4.20297 z"
       id="path4657"
       inkscape:connector-curvature="0"
       sodipodi:nodetypes="sssss" />
    <path
       style="fill:#0b0b0b;fill-opacity:1;stroke:#2c2626;stroke-width:2;stroke-linecap:butt;stroke-linejoin:miter;stroke-miterlimit:4;stroke-dasharray:none;stroke-opacity:1"
       d="m -249.35679,169.70195 c -6.34269,1.26384 -6.32214,4.6034 -5.87264,5.81505 l 7.31201,24.0663 c 1.21963,3.33014 3.86219,3.15147 7.88776,3.2242 2.20112,0.4854 83.80904,-8.0199 86.21447,-11.83957 1.53056,-2.43044 1.85661,-5.58342 -4.51572,-33.47187 -1.3176,-4.3813 -60.96311,7.79136 -91.02588,12.20589 z"
       id="path4659"
       inkscape:connector-curvature="0"
       sodipodi:nodetypes="ccccscc" />
    <path
       style="fill:#0b0b0b;fill-opacity:1;stroke:#2c2626;stroke-width:2;stroke-linecap:butt;stroke-linejoin:miter;stroke-miterlimit:4;stroke-dasharray:none;stroke-opacity:1"
       d="m -235.53883,172.52311 c -1.91965,-4.08194 -21.47465,-4.04672 -17.96336,4.54842 l 7.08171,23.02995 c 2.55595,6.53767 12.73705,0.27186 13.41495,-1.89997 1.58452,-5.0764 -1.55452,-23.6249 -2.5333,-25.6784 z"
       id="path4661"
       inkscape:connector-curvature="0"
       sodipodi:nodetypes="cccsc" />
    <path
       style="fill:#0b0b0b;fill-opacity:1;stroke:#2c2626;stroke-width:2;stroke-linecap:butt;stroke-linejoin:miter;stroke-miterlimit:4;stroke-dasharray:none;stroke-opacity:1"
       d="m -227.36319,171.77464 c -0.74852,-6.24288 -6.50583,-4.58095 -7.31201,-0.2303 l 2.64844,24.0663 c 1.4589,6.89316 5.75852,2.62974 5.29689,-0.51818 z"
       id="path4663"
       inkscape:connector-curvature="0"
       sodipodi:nodetypes="ccccc" />
    <path
       style="fill:#0b0b0b;fill-opacity:1;stroke:#2c2626;stroke-width:2;stroke-linecap:butt;stroke-linejoin:miter;stroke-miterlimit:4;stroke-dasharray:none;stroke-opacity:1"
       d="m -225.40565,196.58941 -1.95754,-24.81477 c -0.83366,-8.66594 19.33894,-9.5912 19.74818,-3.79994 l 3.10905,29.24803 c -0.78686,1.66967 -20.1755,6.51616 -20.89969,-0.63332 z"
       id="path4665"
       inkscape:connector-curvature="0"
       sodipodi:nodetypes="ccccc" />
    <path
       sodipodi:nodetypes="ccccc"
       inkscape:connector-curvature="0"
       id="path4667"
       d="m -199.72725,167.2838 c -0.74852,-6.24288 -6.50583,-4.58095 -7.31201,-0.2303 l 2.70601,27.63594 c 1.4589,6.89316 5.29793,2.57217 4.8363,-0.57575 z"
       style="fill:#0b0b0b;fill-opacity:1;stroke:#2c2626;stroke-width:2;stroke-linecap:butt;stroke-linejoin:miter;stroke-miterlimit:4;stroke-dasharray:none;stroke-opacity:1" />
    <path
       sodipodi:nodetypes="ccccc"
       inkscape:connector-curvature="0"
       id="path4671"
       d="m -198.28788,194.51671 -1.20907,-26.71474 c -0.83366,-8.66594 16.6905,-8.55485 17.09974,-2.76359 1.32422,10.57458 2.04233,28.19101 1.20907,29.3056 -2.22623,1.95755 -16.37555,7.32221 -17.09974,0.17273 z"
       style="fill:#0b0b0b;fill-opacity:1;stroke:#2c2626;stroke-width:2;stroke-linecap:butt;stroke-linejoin:miter;stroke-miterlimit:4;stroke-dasharray:none;stroke-opacity:1" />
    <path
       style="fill:#0b0b0b;fill-opacity:1;stroke:#2c2626;stroke-width:2;stroke-linecap:butt;stroke-linejoin:miter;stroke-miterlimit:4;stroke-dasharray:none;stroke-opacity:1"
       d="m -176.0064,164.17476 c -0.74852,-6.24288 -5.46948,-5.387 -6.27566,-1.03635 l 2.01511,27.86624 c 1.4589,6.89316 4.95248,3.14792 4.49085,0 z"
       id="path4673"
       inkscape:connector-curvature="0"
       sodipodi:nodetypes="ccccc" />
    <path
       style="fill:#0b0b0b;fill-opacity:1;stroke:#2c2626;stroke-width:2;stroke-linecap:butt;stroke-linejoin:miter;stroke-miterlimit:4;stroke-dasharray:none;stroke-opacity:1"
       d="m -174.73975,190.86071 -0.79847,-26.09563 c -0.83366,-8.66594 9.65879,-7.84973 11.16195,-4.21753 1.32422,10.57458 3.76958,29.83189 2.93632,30.94648 -2.22623,1.95755 -10.70443,5.33588 -13.2998,-0.63332 z"
       id="path4675"
       inkscape:connector-curvature="0"
       sodipodi:nodetypes="ccccc" />
    <path
       sodipodi:nodetypes="ccccc"
       inkscape:connector-curvature="0"
       id="path4677"
       d="m -158.10061,161.5839 c -0.74852,-6.24288 -5.46948,-5.387 -6.27566,-1.03635 l 4.34689,27.492 c 0.71043,4.21593 5.61459,2.2843 5.9878,0.0576 z"
       style="fill:#0b0b0b;fill-opacity:1;stroke:#2c2626;stroke-width:2;stroke-linecap:butt;stroke-linejoin:miter;stroke-miterlimit:4;stroke-dasharray:none;stroke-opacity:1" />
    <path
       style="fill:#0b0b0b;fill-opacity:1;stroke:#2c2626;stroke-width:2;stroke-linecap:butt;stroke-linejoin:miter;stroke-miterlimit:4;stroke-dasharray:none;stroke-opacity:1"
       d="m -253.09916,179.31695 10.59377,-9.26956"
       id="path4679"
       inkscape:connector-curvature="0" />
    <path
       style="fill:#0b0b0b;fill-opacity:1;stroke:#2c2626;stroke-width:2;stroke-linecap:butt;stroke-linejoin:miter;stroke-miterlimit:4;stroke-dasharray:none;stroke-opacity:1"
       d="m -250.39314,188.5865 14.85431,-16.06339"
       id="path4681"
       inkscape:connector-curvature="0" />
    <path
       style="fill:#0b0b0b;fill-opacity:1;stroke:#2c2626;stroke-width:2;stroke-linecap:butt;stroke-linejoin:miter;stroke-miterlimit:4;stroke-dasharray:none;stroke-opacity:1"
       d="m -247.91742,197.56818 14.27857,-12.72405"
       id="path4683"
       inkscape:connector-curvature="0" />
    <path
       style="fill:#0b0b0b;fill-opacity:1;stroke:#2c2626;stroke-width:2;stroke-linecap:butt;stroke-linejoin:miter;stroke-miterlimit:4;stroke-dasharray:none;stroke-opacity:1"
       d="m -232.60251,194.34399 -7.42715,8.46351"
       id="path4685"
       inkscape:connector-curvature="0" />
    <path
       style="fill:#0b0b0b;fill-opacity:1;stroke:#2c2626;stroke-width:2;stroke-linecap:butt;stroke-linejoin:miter;stroke-miterlimit:4;stroke-dasharray:none;stroke-opacity:1"
       d="m -227.13289,175.63216 15.37249,-11.05438"
       id="path4687"
       inkscape:connector-curvature="0"
       sodipodi:nodetypes="cc" />
    <path
       style="fill:#0b0b0b;fill-opacity:1;stroke:#2c2626;stroke-width:2;stroke-linecap:butt;stroke-linejoin:miter;stroke-miterlimit:4;stroke-dasharray:none;stroke-opacity:1"
       d="m -206.98168,170.04739 -19.86334,18.65426"
       id="path4689"
       inkscape:connector-curvature="0" />
    <path
       style="fill:#0b0b0b;fill-opacity:1;stroke:#2c2626;stroke-width:2;stroke-linecap:butt;stroke-linejoin:miter;stroke-miterlimit:4;stroke-dasharray:none;stroke-opacity:1"
       d="m -225.11777,198.60453 18.88456,-17.38761"
       id="path4691"
       inkscape:connector-curvature="0" />
    <path
       style="fill:#0b0b0b;fill-opacity:1;stroke:#2c2626;stroke-width:2;stroke-linecap:butt;stroke-linejoin:miter;stroke-miterlimit:4;stroke-dasharray:none;stroke-opacity:1"
       d="m -205.36959,192.27129 -10.24833,8.17563"
       id="path4693"
       inkscape:connector-curvature="0"
       sodipodi:nodetypes="cc" />
    <path
       style="fill:#0b0b0b;fill-opacity:1;stroke:#2c2626;stroke-width:2;stroke-linecap:butt;stroke-linejoin:miter;stroke-miterlimit:4;stroke-dasharray:none;stroke-opacity:1"
       d="m -196.67578,163.02326 15.19976,10.59377"
       id="path4695"
       inkscape:connector-curvature="0" />
    <path
       style="fill:#0b0b0b;fill-opacity:1;stroke:#2c2626;stroke-width:2;stroke-linecap:butt;stroke-linejoin:miter;stroke-miterlimit:4;stroke-dasharray:none;stroke-opacity:1"
       d="m -199.26665,169.93224 17.96336,12.32103"
       id="path4697"
       inkscape:connector-curvature="0" />
    <path
       style="fill:#0b0b0b;fill-opacity:1;stroke:#2c2626;stroke-width:2;stroke-linecap:butt;stroke-linejoin:miter;stroke-miterlimit:4;stroke-dasharray:none;stroke-opacity:1"
       d="m -199.32423,175.9776 18.53911,13.35738"
       id="path4699"
       inkscape:connector-curvature="0" />
    <path
       style="fill:#0b0b0b;fill-opacity:1;stroke:#2c2626;stroke-width:2;stroke-linecap:butt;stroke-linejoin:miter;stroke-miterlimit:4;stroke-dasharray:none;stroke-opacity:1"
       d="m -199.03635,183.05931 17.84821,11.28467"
       id="path4701"
       inkscape:connector-curvature="0" />
    <path
       style="fill:#0b0b0b;fill-opacity:1;stroke:#2c2626;stroke-width:2;stroke-linecap:butt;stroke-linejoin:miter;stroke-miterlimit:4;stroke-dasharray:none;stroke-opacity:1"
       d="m -174.79733,160.66269 11.2271,6.16051"
       id="path4703"
       inkscape:connector-curvature="0" />
    <path
       style="fill:#0b0b0b;fill-opacity:1;stroke:#2c2626;stroke-width:2;stroke-linecap:butt;stroke-linejoin:miter;stroke-miterlimit:4;stroke-dasharray:none;stroke-opacity:1"
       d="m -175.83368,168.60802 13.41495,7.08171"
       id="path4705"
       inkscape:connector-curvature="0" />
    <path
       style="fill:#0b0b0b;fill-opacity:1;stroke:#2c2626;stroke-width:2;stroke-linecap:butt;stroke-linejoin:miter;stroke-miterlimit:4;stroke-dasharray:none;stroke-opacity:1"
       d="m -175.71853,175.63216 14.96947,7.94533"
       id="path4707"
       inkscape:connector-curvature="0" />
    <path
       style="fill:#0b0b0b;fill-opacity:1;stroke:#2c2626;stroke-width:2;stroke-linecap:butt;stroke-linejoin:miter;stroke-miterlimit:4;stroke-dasharray:none;stroke-opacity:1"
       d="m -240.02966,202.8075 c -6.25795,0.62057 -7.97883,7.17015 0.2303,6.10293 29.82072,-3.87681 57.78411,-2.30102 89.64408,-10.13317 3.00975,-0.73989 2.99709,-7.74818 -1.32422,-6.79384 -39.95913,8.82479 -58.95888,7.88965 -88.55016,10.82408 z"
       id="path4709"
       inkscape:connector-curvature="0"
       sodipodi:nodetypes="sssss" />
    <path
       sodipodi:nodetypes="sssss"
       inkscape:connector-curvature="0"
       id="path4711"
       d="m -239.56906,209.77406 c -6.25795,0.62057 -5.10008,7.86105 1.26665,6.85141 29.70053,-4.70995 70.79603,-9.03728 88.26228,-12.14829 3.05134,-0.54349 2.44098,-5.14714 -0.80604,-4.66357 -25.33882,3.77362 -59.13161,7.02602 -88.72289,9.96045 z"
       style="fill:#0b0b0b;fill-opacity:1;stroke:#2c2626;stroke-width:2;stroke-linecap:butt;stroke-linejoin:miter;stroke-miterlimit:4;stroke-dasharray:none;stroke-opacity:1" />
    <path
       style="fill:#0b0b0b;fill-opacity:1;stroke:#2c2626;stroke-width:2;stroke-linecap:butt;stroke-linejoin:miter;stroke-miterlimit:4;stroke-dasharray:none;stroke-opacity:1"
       d="m -238.36642,242.63954 c 6.63246,-7.41658 10.88348,-18.36731 11.03292,-27.22556 l 8.58989,-1.20608 c -0.54286,7.22161 -10.04398,33.32139 -17.08342,38.14197 z"
       id="path4713"
       inkscape:connector-curvature="0"
       sodipodi:nodetypes="ccccc" />
    <path
       style="fill:#0b0b0b;fill-opacity:1;stroke:#2c2626;stroke-width:2;stroke-linecap:butt;stroke-linejoin:miter;stroke-miterlimit:4;stroke-dasharray:none;stroke-opacity:1"
       d="m -207.42553,212.93057 c 1.17577,8.83956 -12.19521,54.49433 -25.72972,63.87648 l 1.87768,11.86697 c 29.12255,-30.07115 33.91277,-74.39482 34.23349,-77.49405 z"
       id="path4715"
       inkscape:connector-curvature="0"
       sodipodi:nodetypes="ccccc" />
    <path
       style="fill:#0b0b0b;fill-opacity:1;stroke:#2c2626;stroke-width:2;stroke-linecap:butt;stroke-linejoin:miter;stroke-miterlimit:4;stroke-dasharray:none;stroke-opacity:1"
       d="m -180.63731,209.14439 c 0.15923,31.32519 -36.76181,106.02108 -47.99896,107.43787 l 0.89566,13.23129 c 33.22868,-31.24068 51.03285,-85.38639 58.46183,-122.13477 z"
       id="path4717"
       inkscape:connector-curvature="0"
       sodipodi:nodetypes="ccccc" />
    <path
       style="fill:#0b0b0b;fill-opacity:1;stroke:#2c2626;stroke-width:2;stroke-linecap:butt;stroke-linejoin:miter;stroke-miterlimit:4;stroke-dasharray:none;stroke-opacity:1"
       d="m -165.12619,207.14953 c -2.44307,56.75569 -39.09191,134.76653 -61.51521,147.57948 l 0.16285,10.82929 c 45.87868,-32.69809 63.80365,-118.25132 75.72355,-160.40364 z"
       id="path4719"
       inkscape:connector-curvature="0"
       sodipodi:nodetypes="ccccc" />
    <path
       style="fill:#0b0b0b;fill-opacity:1;stroke:#2c2626;stroke-width:2;stroke-linecap:butt;stroke-linejoin:miter;stroke-miterlimit:4;stroke-dasharray:none;stroke-opacity:1"
       d="m -226.9369,375.76958 c 42.13,-25.13843 81.52574,-134.2121 76.18191,-170.61492 l 3.70417,0.0661 c 3.88051,55.15254 -41.38428,158.94642 -76.55063,182.81364 z"
       id="path4723"
       inkscape:connector-curvature="0"
       sodipodi:nodetypes="ccccc" />
    <path
       transform="translate(-1.125e-5,1.3125e-6)"
       style="display:inline;fill:none;stroke:#2c2626;stroke-width:3;stroke-linecap:round;stroke-linejoin:miter;stroke-miterlimit:4;stroke-dasharray:none;stroke-opacity:1"
       d="m -297.86406,75.458075 c 8.05195,-7.982975 53.29411,-8.271954 79.32559,-21.234563"
       id="path4725"
       inkscape:connector-curvature="0"
       sodipodi:nodetypes="cc" />
    <path
       transform="translate(-1.125e-5,1.3125e-6)"
       style="display:inline;fill:none;stroke:#2c2626;stroke-width:3;stroke-linecap:round;stroke-linejoin:miter;stroke-miterlimit:4;stroke-dasharray:none;stroke-opacity:1"
       d="m -313.21473,113.43707 c 9.46535,-11.9342 33.33953,-19.103228 42.41983,-17.750721"
       id="path4727"
       inkscape:connector-curvature="0"
       sodipodi:nodetypes="cc" />
    <path
       transform="translate(-1.125e-5,1.3125e-6)"
       style="display:inline;fill:none;stroke:#2c2626;stroke-width:3;stroke-linecap:round;stroke-linejoin:miter;stroke-miterlimit:4;stroke-dasharray:none;stroke-opacity:1"
       d="m -318.17923,161.4801 c 20.57526,-10.66142 42.55237,-11.81939 54.20367,-14.25083"
       id="path4729"
       inkscape:connector-curvature="0"
       sodipodi:nodetypes="cc" />
    <path
       transform="translate(-1.125e-5,1.3125e-6)"
       style="display:inline;fill:none;stroke:#2c2626;stroke-width:3;stroke-linecap:round;stroke-linejoin:miter;stroke-miterlimit:4;stroke-dasharray:none;stroke-opacity:1"
       d="m -314.55371,180.6567 c 16.39922,-8.91477 34.81354,-11.04497 56.28435,-14.81211"
       id="path4731"
       inkscape:connector-curvature="0"
       sodipodi:nodetypes="cc" />
    <path
       style="fill:none;stroke:#2c2626;stroke-width:3;stroke-linecap:butt;stroke-linejoin:miter;stroke-miterlimit:4;stroke-dasharray:none;stroke-opacity:1"
       d="m -268.47648,217.81333 c -8.15186,5.84038 -6.59357,24.0776 -1.85208,36.44636 1.57002,4.0956 7.41253,12.5299 14.55208,20.10833 8.95846,-7.62797 14.26827,-19.64939 15.31925,-24.20097 4.35252,-18.84988 -6.188,-39.14518 -7.84477,-39.8282 -3.89687,-1.6065 -13.76039,2.87912 -20.17448,7.47448 z"
       id="path4737"
       inkscape:connector-curvature="0"
       sodipodi:nodetypes="sscsss" />
    <path
       style="fill:none;stroke:#2c2626;stroke-width:3;stroke-linecap:butt;stroke-linejoin:miter;stroke-miterlimit:4;stroke-dasharray:none;stroke-opacity:1"
       d="m -251.67544,289.51542 c -10.43438,1.21203 -13.78735,13.29233 -13.89062,19.18229 -0.24609,14.03552 4.04578,20.03157 10.45104,29.69948 4.17593,6.30303 8.44929,10.29227 13.55989,11.90624 7.09725,2.24138 6.34478,-24.99934 6.28386,-39.02603 -0.031,-7.14097 -1.15612,-10.71803 -3.96875,-15.67657 -1.39448,-2.4584 -5.17165,-6.92915 -12.43542,-6.08541 z"
       id="path4739"
       inkscape:connector-curvature="0"
       sodipodi:nodetypes="sssssss" />
  </g>
  <g
     inkscape:groupmode="layer"
     id="layer4"
     inkscape:label="eye"
     style="display:inline"
     transform="translate(427.49106,122.17561)">
    <path
       style="fill:#404040;fill-opacity:1;stroke:#000000;stroke-width:1.98282111;stroke-linecap:butt;stroke-linejoin:miter;stroke-miterlimit:4;stroke-dasharray:none;stroke-opacity:1"
       d="m -265.05943,-47.431909 c 25.79606,-5.225238 22.45125,-14.990813 35.99242,-17.029786 13.84308,-2.084434 17.69422,10.834886 37.01282,18.638156 -19.8018,7.582582 -22.04838,16.016862 -36.08518,17.408223 -8.25022,0.817783 -27.53457,-12.900984 -36.92006,-19.016593 z"
       id="path4570"
       inkscape:connector-curvature="0"
       sodipodi:nodetypes="cscsc" />
    <path
       style="fill:#404040;fill-opacity:1;stroke:#000000;stroke-width:1.95880282;stroke-linecap:butt;stroke-linejoin:miter;stroke-miterlimit:4;stroke-dasharray:none;stroke-opacity:1"
       d="m -248.78354,-46.391369 c 14.39545,-3.779762 14.1241,-9.324306 21.48197,-10.583334 5.42179,-0.927739 15.52986,7.559524 21.21005,10.772322 -10.28079,4.031054 -10.16572,8.781601 -19.48786,9.732888 -9.36786,0.955953 -7.19087,-6.52009 -23.20416,-9.921876 z"
       id="path4572"
       inkscape:connector-curvature="0"
       sodipodi:nodetypes="cscsc" />
    <ellipse
       style="fill:#e5caca;fill-opacity:1;fill-rule:nonzero;stroke:#020202;stroke-width:2.83434367;stroke-linecap:round;stroke-linejoin:miter;stroke-miterlimit:4;stroke-dasharray:none;stroke-dashoffset:0;stroke-opacity:1;paint-order:normal"
       id="path4500"
       cx="-226.55138"
       cy="-46.703201"
       rx="10.025373"
       ry="9.4082003" />
    <ellipse
       style="fill:#050001;fill-opacity:1;fill-rule:nonzero;stroke:#020202;stroke-width:3.11719584;stroke-linecap:round;stroke-linejoin:miter;stroke-miterlimit:4;stroke-dasharray:none;stroke-dashoffset:0;stroke-opacity:1;paint-order:normal"
       id="path4504"
       cx="-204.46385"
       cy="-103.41755"
       rx="4.3411436"
       ry="7.1140208"
       transform="matrix(0.96625077,-0.25760327,0.29079017,0.95678685,0,0)" />
  </g>
</svg>
