<?xml version="1.0" encoding="UTF-8" standalone="no"?>
<!-- Created with Inkscape (http://www.inkscape.org/) -->

<svg
   xmlns:dc="http://purl.org/dc/elements/1.1/"
   xmlns:cc="http://creativecommons.org/ns#"
   xmlns:rdf="http://www.w3.org/1999/02/22-rdf-syntax-ns#"
   xmlns:svg="http://www.w3.org/2000/svg"
   xmlns="http://www.w3.org/2000/svg"
   xmlns:sodipodi="http://sodipodi.sourceforge.net/DTD/sodipodi-0.dtd"
   xmlns:inkscape="http://www.inkscape.org/namespaces/inkscape"
   width="396.0918mm"
   height="117.98354mm"
   viewBox="0 0 396.0918 117.98353"
   version="1.1"
   id="svg4660"
   inkscape:version="0.92.1 15371"
   sodipodi:docname="tee-custer-had-it-coming1.svg">
  <defs
     id="defs4654" />
  <sodipodi:namedview
     id="base"
     pagecolor="#ffffff"
     bordercolor="#666666"
     borderopacity="1.0"
     inkscape:pageopacity="0.0"
     inkscape:pageshadow="2"
     inkscape:zoom="0.49497475"
     inkscape:cx="-216.84646"
     inkscape:cy="-107.06057"
     inkscape:document-units="mm"
     inkscape:current-layer="layer1"
     showgrid="false"
     inkscape:pagecheckerboard="true"
     fit-margin-top="0"
     fit-margin-left="0"
     fit-margin-right="0"
     fit-margin-bottom="0"
     inkscape:window-width="3104"
     inkscape:window-height="1770"
     inkscape:window-x="96"
     inkscape:window-y="30"
     inkscape:window-maximized="1" />
  <metadata
     id="metadata4657">
    <rdf:RDF>
      <cc:Work
         rdf:about="">
        <dc:format>image/svg+xml</dc:format>
        <dc:type
           rdf:resource="http://purl.org/dc/dcmitype/StillImage" />
        <dc:title></dc:title>
      </cc:Work>
    </rdf:RDF>
  </metadata>
  <g
     inkscape:label="Layer 1"
     inkscape:groupmode="layer"
     id="layer1"
     transform="translate(-12.377614,-143.21975)">
    <path
       style="fill:#000000;stroke-width:0.127"
       d="m 24.252259,258.9957 c 0.0371,-0.0966 -0.013,-0.36808 -0.11122,-0.60325 -0.30494,-0.72985 -0.82249,-2.77112 -1.10663,-4.36457 -0.14946,-0.8382 -0.35303,-1.92405 -0.45237,-2.413 -0.0993,-0.48895 -0.23785,-1.28905 -0.30777,-1.778 -0.0699,-0.48895 -0.23763,-1.60338 -0.37268,-2.4765 -0.26386,-1.70592 -0.45777,-3.67185 -0.58249,-5.9055 -0.0639,-1.14421 -0.13563,-1.50865 -0.39651,-2.01398 -0.51372,-0.99511 -0.98206,-2.3094 -1.49986,-4.20902 -0.44175,-1.62061 -0.82889,-2.87839 -2.93176,-9.525 -0.37569,-1.18745 -0.71982,-2.53048 -0.76472,-2.9845 -0.0449,-0.45403 -0.22213,-1.22555 -0.39382,-1.7145 -0.17169,-0.48895 -0.57437,-1.6591 -0.89484,-2.60034 -0.32048,-0.94123 -0.78189,-2.14138 -1.02537,-2.667 -0.73073,-1.57749 -0.81521,-1.90652 -0.88558,-3.44885 -0.0808,-1.77209 0.0997,-3.15545 0.58914,-4.51477 0.33145,-0.9205 0.57173,-1.85282 1.28696,-4.99354 0.15112,-0.66358 0.3163,-1.26365 0.36708,-1.3335 0.0508,-0.0699 0.19647,-0.41275 0.32377,-0.762 0.31083,-0.8528 1.12025,-2.43727 1.52254,-2.98045 0.2558,-0.34538 0.42084,-0.44374 0.76461,-0.45567 0.39575,-0.0138 0.41716,0.002 0.22002,0.16506 -0.26811,0.22134 -0.17473,0.19394 1.11512,-0.32722 1.94877,-0.7874 4.74864,-1.17458 6.35,-0.8781 0.76529,0.14168 2.09262,0.51393 2.159,0.60549 0.0349,0.0482 0.2921,0.16178 0.5715,0.25248 0.2794,0.0907 0.72509,0.30147 0.99042,0.46839 0.26534,0.16692 0.60824,0.35656 0.762,0.42141 0.15377,0.0648 0.56533,0.29023 0.91458,0.50084 0.92927,0.56037 0.94056,0.56344 1.2024,0.32648 0.22999,-0.20814 0.23764,-0.20468 0.17612,0.0798 l -0.0643,0.29745 0.2571,-0.3175 c 0.29939,-0.36972 0.44253,-0.51195 0.99166,-0.98529 0.53225,-0.4588 0.407,-0.78607 -0.46929,-1.22621 -0.35913,-0.18038 -0.77552,-0.41381 -0.92532,-0.51873 -0.1498,-0.10493 -0.38006,-0.19077 -0.5117,-0.19077 -0.17812,0 -0.21593,-0.0568 -0.14783,-0.22225 0.24591,-0.59733 0.22978,-0.62673 -0.39047,-0.71175 -0.36868,-0.0505 -0.66451,-0.0287 -0.76724,0.0565 -0.12321,0.10226 -0.27704,0.0829 -0.58466,-0.0737 -0.53253,-0.27108 -2.3856,-0.88362 -3.63873,-1.2028 -1.38649,-0.35314 -3.48972,-0.36647 -4.61148,-0.0292 -0.46627,0.14018 -0.87846,0.22417 -0.91598,0.18665 -0.0729,-0.0729 2.29258,-1.8564 3.90769,-2.94627 0.72298,-0.48786 1.05007,-0.63876 1.25802,-0.58039 0.22454,0.063 0.24274,0.0512 0.0905,-0.0588 -0.16933,-0.12235 -0.16933,-0.15053 0,-0.25362 0.10477,-0.0638 0.3048,-0.20717 0.4445,-0.31861 0.25274,-0.20162 0.25258,-0.20363 -0.0317,-0.40518 -0.37038,-0.26256 -0.39401,-0.72741 -0.0317,-0.62464 0.1397,0.0396 0.38259,0.1071 0.53975,0.14994 0.15716,0.0428 0.71322,0.42582 1.23568,0.85107 0.52246,0.42525 1.20826,0.9091 1.524,1.07522 0.31574,0.16612 0.77409,0.48663 1.01857,0.71225 0.24447,0.22561 0.87312,0.74957 1.397,1.16435 0.52387,0.41479 0.98333,0.79533 1.021,0.84566 0.13531,0.18074 1.773,-0.0878 1.773,-0.29077 0,-0.219 0.66212,-0.80551 1.16201,-1.02932 0.2867,-0.12836 0.71056,-0.39009 0.9419,-0.58161 1.30289,-1.07866 1.69899,-1.29372 3.5532,-1.92913 2.3778,-0.81485 3.85102,-1.52762 4.23729,-2.05008 l 0.29207,-0.39504 -0.29899,0.0937 c -0.16444,0.0515 -0.37107,0.12079 -0.45917,0.1539 -0.10875,0.0409 -0.1324,-0.0122 -0.0737,-0.16526 0.066,-0.17201 0.0438,-0.1997 -0.0938,-0.11676 -0.14785,0.0891 -0.15207,0.0738 -0.0234,-0.0852 0.0863,-0.10667 0.38635,-0.26967 0.66675,-0.36221 0.49581,-0.16363 0.68732,-0.3816 0.33529,-0.3816 -0.24343,0 -1.20354,0.34075 -1.70353,0.6046 -0.26474,0.1397 -0.45065,0.17397 -0.508,0.0936 -0.0497,-0.0697 -0.16188,-0.13243 -0.24919,-0.13942 -0.46893,-0.0375 -0.52623,-0.0652 -0.4649,-0.22508 0.10752,-0.28018 -0.56089,-0.34557 -0.81483,-0.0797 -0.11689,0.12237 -0.3554,0.25763 -0.53002,0.30057 -0.17462,0.0429 -0.24606,0.0453 -0.15875,0.005 0.19338,-0.0888 0.21198,-0.43275 0.0234,-0.43275 -0.0744,0 -0.25279,0.0629 -0.39633,0.13967 -0.18976,0.10156 -0.23742,0.10156 -0.17465,0 0.1613,-0.26099 -0.20423,-0.14112 -0.44548,0.14608 -0.1917,0.22821 -0.26296,0.251 -0.3539,0.11318 -0.0826,-0.12525 -0.26615,-0.14931 -0.66933,-0.0878 -0.3055,0.0466 -0.48919,0.0384 -0.40819,-0.0183 0.15884,-0.11125 0.16872,-0.80061 0.0115,-0.80076 -0.0524,-5e-5 -0.0953,0.0618 -0.0953,0.13749 0,0.0757 -0.0714,0.11139 -0.15875,0.0794 -0.0873,-0.032 -0.14447,-0.1225 -0.127,-0.20108 0.0513,-0.23103 -0.10881,-0.16534 -0.42274,0.1734 -0.17673,0.1907 -0.37161,0.28615 -0.49081,0.24041 -0.23242,-0.0892 -0.26684,0.21983 -0.0662,0.59466 0.0918,0.1715 0.0906,0.24565 -0.004,0.24565 -0.0745,0 -0.16697,-0.0821 -0.20548,-0.18248 -0.0387,-0.10099 -0.16459,-0.15307 -0.28177,-0.11663 -0.16605,0.0516 -0.15841,0.0224 0.0354,-0.1355 0.3676,-0.29944 0.0991,-0.50546 -0.45214,-0.34695 -0.37251,0.10711 -0.38757,0.12556 -0.11254,0.13793 l 0.3175,0.0143 -0.3156,0.24249 c -0.31875,0.24491 -0.44584,0.23454 -0.44707,-0.0365 -3.8e-4,-0.0855 -0.17506,-0.14171 -0.41275,-0.1329 -0.22664,0.008 -0.41208,-0.0284 -0.41208,-0.0817 0,-0.0978 0.33669,-0.27743 0.5715,-0.30494 0.0698,-0.008 0.26314,-0.0628 0.42954,-0.1214 0.23465,-0.0826 0.26314,-0.13148 0.127,-0.21771 -0.25645,-0.16242 -0.36603,-0.13984 -0.36603,0.0754 0,0.23162 -0.14857,0.24513 -0.36089,0.0328 -0.11943,-0.11944 -0.18002,-0.12156 -0.24973,-0.009 -0.0506,0.0819 -0.34829,0.16716 -0.66147,0.18943 -0.43694,0.0311 -0.56577,0.0894 -0.55377,0.25075 0.0115,0.15409 -0.12969,0.23204 -0.5285,0.29185 -0.48309,0.0724 -0.70062,0.24694 -0.74617,0.59857 -0.0292,0.22539 -0.15491,0.18407 -0.28618,-0.0941 -0.08,-0.16962 -0.10021,-0.28039 -0.0448,-0.24615 0.0554,0.0342 0.17497,-0.0272 0.2657,-0.13652 0.1362,-0.16411 0.13317,-0.21891 -0.0174,-0.31416 -0.12609,-0.0798 -0.0158,-0.11598 0.35742,-0.11732 0.39425,-0.001 0.53975,-0.0533 0.53975,-0.19244 0,-0.10478 0.0857,-0.1905 0.1905,-0.1905 0.10477,0 0.1905,-0.0572 0.1905,-0.127 0,-0.0699 -0.0796,-0.127 -0.17691,-0.127 -0.0973,0 -0.20981,-0.0857 -0.25002,-0.1905 -0.0808,-0.21061 -0.58907,-0.2654 -0.58907,-0.0635 0,0.0698 0.0857,0.127 0.1905,0.127 0.31883,0 0.21317,0.18976 -0.1905,0.34213 -0.32794,0.12378 -0.38156,0.11439 -0.38504,-0.0674 -0.004,-0.19094 -0.0189,-0.192 -0.15875,-0.0111 -0.0851,0.11009 -0.46457,0.25296 -0.8433,0.3175 -0.39271,0.0669 -0.71379,0.19383 -0.74725,0.29535 -0.0422,0.1281 0.0173,0.15815 0.21221,0.10718 0.14898,-0.039 0.3011,-0.0219 0.33803,0.0378 0.0369,0.0598 -0.14874,0.14398 -0.41262,0.18714 -1.19764,0.19589 -1.19538,0.19523 -1.93856,0.56936 -0.29398,0.14799 -0.93162,0.17128 -0.86944,0.0317 0.0234,-0.0524 0.31928,-0.51369 0.65764,-1.02512 0.33835,-0.51143 0.58996,-0.95509 0.55913,-0.98592 -0.0308,-0.0308 -0.27914,0.0322 -0.5518,0.14016 -0.40658,0.16092 -0.45407,0.16316 -0.26401,0.0125 0.21046,-0.16686 0.18714,-0.17789 -0.254,-0.12017 -0.7581,0.0992 -1.64928,-0.4572 -1.99539,-1.24577 -0.27934,-0.63646 -0.49305,-0.74263 -0.89832,-0.44629 -0.16457,0.12034 -0.19,0.19831 -0.0857,0.26277 0.25475,0.15744 0.022,0.32811 -0.44753,0.32811 -0.34209,0 -0.55302,-0.10332 -0.8815,-0.4318 -0.23749,-0.23749 -0.4318,-0.5287 -0.4318,-0.64714 0,-0.11844 -0.11619,-0.37852 -0.25819,-0.57794 -0.43683,-0.61348 -0.63468,-1.4895 -0.55783,-2.46994 0.0398,-0.50776 0.1371,-0.92608 0.22713,-0.97646 0.0866,-0.0485 0.35458,-0.37729 0.59545,-0.73069 0.24087,-0.3534 0.51346,-0.64265 0.60576,-0.64278 0.0923,-1.3e-4 0.25337,-0.0858 0.35793,-0.19036 0.21916,-0.21916 0.15524,-0.51328 -0.27607,-1.27039 -0.15917,-0.2794 -0.28648,-0.67945 -0.28291,-0.889 0.004,-0.20955 0.0316,-0.30956 0.0622,-0.22225 0.10284,0.29309 0.24621,0.16237 0.24621,-0.2245 v -0.38326 l -0.27277,0.25626 c -0.15002,0.14093 -0.29834,0.25624 -0.3296,0.25624 -0.0313,0 -0.0562,-0.27968 -0.0553,-0.62152 0.001,-0.43569 0.0753,-0.70312 0.2484,-0.89446 0.24451,-0.27032 0.24451,-0.2721 0,-0.18427 -0.13578,0.0488 -0.32767,0.15125 -0.42642,0.22772 -0.15162,0.11741 -0.15586,0.0946 -0.0273,-0.14672 0.0837,-0.15716 0.20871,-0.28575 0.27772,-0.28575 0.069,0 0.0293,-0.14678 -0.0883,-0.32617 -0.16698,-0.25485 -0.28207,-0.30902 -0.52627,-0.24773 -0.28818,0.0723 -0.2965,0.0624 -0.10671,-0.1274 0.11321,-0.11321 0.20584,-0.2805 0.20584,-0.37176 0,-0.37764 -0.40572,-1.09516 -0.73091,-1.29262 -3.10192,-1.8835 -5.14257,-3.54622 -6.33225,-5.15947 -0.7275,-0.9865 -1.96216,-3.42666 -2.31997,-4.58512 -0.80047,-2.5916 0.24466,-4.63911 3.46826,-6.79469 2.48849,-1.66402 5.86661,-3.12449 11.94031,-5.16217 1.18357,-0.39708 2.25535,-0.74188 2.38173,-0.76622 0.34149,-0.0658 0.48283,-0.17888 0.48283,-0.38643 0,-0.71783 1.57623,-3.13404 2.40024,-3.67935 0.48543,-0.32124 1.3994,-0.4255 5.53726,-0.63164 0.90805,-0.0452 2.92246,-0.22017 4.47648,-0.38874 1.55401,-0.16857 3.00271,-0.30649 3.21933,-0.30649 0.49634,0 3.03017,0.84543 4.36919,1.45781 2.05364,0.93919 3.21882,1.37679 5.13066,1.92686 2.06983,0.59552 4.18461,1.3954 5.89723,2.23052 3.28602,1.60235 7.37751,4.46361 8.80195,6.15537 1.1669,1.38588 2.25413,3.32814 2.71811,4.85571 0.38078,1.25363 0.30357,3.09619 -0.18043,4.30591 -0.88127,2.20267 -2.18493,3.89345 -4.07952,5.29092 -4.50438,3.32247 -6.36379,4.46271 -8.46341,5.18996 -0.49221,0.17049 -0.94655,0.3616 -1.00964,0.4247 -0.0683,0.0683 0.2652,0.37885 0.82412,0.76742 0.77303,0.53741 1.00019,0.77806 1.28614,1.36251 0.307,0.62749 0.34037,0.81622 0.28776,1.62731 -0.12344,1.90298 -1.13167,2.77959 -3.23002,2.80833 -0.56887,0.008 -1.0037,0.0648 -0.96629,0.12656 0.0385,0.0637 -0.18749,0.0741 -0.52158,0.024 -0.52911,-0.0793 -0.58958,-0.0632 -0.58958,0.15782 0,0.13543 0.0857,0.31738 0.1905,0.40433 0.10477,0.087 0.1905,0.34502 0.1905,0.57347 0,0.40514 0.38128,0.75918 0.48441,0.4498 0.0701,-0.21015 0.6226,-0.15724 0.709,0.0679 0.0511,0.13308 -0.1624,0.4755 -0.62469,1.00206 -0.79218,0.9023 -0.921,0.95256 -2.66659,1.04026 -1.29218,0.0649 -1.83913,-0.0729 -1.83913,-0.46335 0,-0.14391 -0.0839,-0.25715 -0.1905,-0.25715 -0.67062,0 0.63637,1.73089 3.30846,4.3815 2.0545,2.03799 2.32642,2.48432 2.97882,4.8895 0.21789,0.80328 0.50789,1.65124 0.64446,1.88436 0.37745,0.64431 1.40115,1.78639 1.8502,2.06415 0.22179,0.13718 0.4845,0.45843 0.58979,0.72118 0.10442,0.2606 0.45476,0.83343 0.77852,1.27296 0.32377,0.43953 0.79588,1.21791 1.04913,1.72973 0.41537,0.83945 0.52893,0.9664 1.15956,1.29633 0.98464,0.51514 1.72714,1.26512 2.1612,2.18296 0.27911,0.59016 0.53453,0.90767 1.01647,1.26353 0.41816,0.30877 0.91014,0.87578 1.40417,1.61831 0.41825,0.62865 1.10994,1.64245 1.53708,2.25288 0.42714,0.61044 0.98778,1.52358 1.24588,2.0292 0.39576,0.77532 0.59453,1.00642 1.2691,1.47553 0.43992,0.30593 1.03712,0.87869 1.32713,1.27281 0.58937,0.80095 0.64356,0.85975 1.16041,1.25903 0.23166,0.17898 0.5441,0.28305 0.84975,0.28305 0.53789,0 0.7996,-0.23222 0.38415,-0.34086 -0.2724,-0.0712 -0.37413,-0.29414 -0.13425,-0.29414 0.14315,0 0.33408,0.16515 2.50853,2.1699 0.78901,0.72743 1.75926,1.59393 2.15611,1.92556 0.66445,0.55525 2.8371,1.73203 3.58483,1.94166 0.17462,0.049 0.7747,0.36121 1.3335,0.69388 0.5588,0.33267 1.15887,0.64616 1.3335,0.69665 0.17462,0.0505 0.4507,0.17591 0.61351,0.27872 0.16281,0.10281 0.37425,0.15691 0.46987,0.12021 0.10466,-0.0402 0.28371,0.11103 0.44985,0.37986 0.18387,0.29751 0.49335,0.54304 0.92714,0.73557 0.96787,0.42958 1.41358,0.87207 2.03695,2.02225 l 0.56215,1.03724 -0.0597,3.2385 c -0.0889,4.82487 -0.45378,7.70022 -1.18753,9.35899 -0.61179,1.38305 -1.70361,2.76775 -3.94707,5.00587 -2.60131,2.59513 -3.38197,3.22208 -4.39743,3.53162 -0.40604,0.12377 -0.96054,0.37679 -1.23222,0.56228 -0.41252,0.28163 -0.63241,0.33704 -1.3335,0.33605 -0.93588,-0.001 -1.64664,-0.32963 -2.61753,-1.20902 -0.2794,-0.25307 -0.64031,-0.51292 -0.80202,-0.57746 -0.3779,-0.15081 -0.8769,-0.15065 -0.9702,2.6e-4 -0.10509,0.17004 0.42972,1.56659 0.67534,1.7635 0.18788,0.15062 0.17122,0.1977 -0.17312,0.48925 -0.20955,0.17742 -0.75248,0.55963 -1.2065,0.84934 -0.83304,0.53157 -1.37873,1.28697 -1.39177,1.92663 -0.003,0.1603 -0.17233,0.34685 -0.44973,0.49625 -0.24448,0.13165 -0.4532,0.30181 -0.46384,0.37813 -0.0107,0.0763 -0.0326,0.1959 -0.0489,0.26575 -0.0162,0.0699 -0.0361,0.21469 -0.0442,0.32186 -0.008,0.10718 -0.19387,0.30074 -0.41293,0.43014 -0.21905,0.1294 -0.69684,0.53623 -1.06174,0.90406 l -0.66347,0.66879 0.36186,0.0724 c 0.41263,0.0825 0.7041,0.002 1.04986,-0.28928 0.22873,-0.19283 0.23326,-0.1887 0.0908,0.0828 -0.38937,0.742 -1.34625,0.94715 -2.54025,0.5446 -1.0648,-0.35899 -1.1403,-0.27886 -0.86127,0.91413 0.11867,0.50739 0.21503,0.96538 0.21414,1.01777 -8.9e-4,0.0524 -10.34399,0.0952 -22.98464,0.0952 -19.51516,0 -22.97285,-0.0265 -22.91561,-0.17568 z m 43.7344,-3.121 c 0.55834,-0.56961 0.7657,-1.02132 0.46886,-1.02132 -0.10366,0 -0.21072,-0.0668 -0.23791,-0.14832 -0.0612,-0.18359 -0.92167,0.37848 -1.21032,0.7906 -0.18696,0.26692 -0.18226,0.30127 0.0691,0.5048 0.14833,0.12011 0.23403,0.25406 0.19043,0.29765 -0.0436,0.0436 -0.0103,0.0793 0.0739,0.0793 0.0843,0 0.37492,-0.2262 0.64592,-0.50268 z m 3.18022,-1.30371 c 0,-0.0692 0.0887,-0.0917 0.1971,-0.0501 0.11384,0.0437 0.16407,0.0222 0.1189,-0.0509 -0.043,-0.0696 0.0112,-0.21589 0.1204,-0.32512 0.2495,-0.24949 0.25509,-0.61047 0.0126,-0.81174 -0.14932,-0.12392 -0.25879,-0.10257 -0.55475,0.10817 -0.41433,0.29503 -0.8584,0.90412 -0.65916,0.90412 0.0715,0 0.12993,0.10637 0.12993,0.23639 0,0.18366 0.0708,0.22285 0.3175,0.17569 0.17462,-0.0334 0.3175,-0.11729 0.3175,-0.18647 z m 3.88627,-2.79032 c 0.25121,-0.48576 0.11587,-1.2263 -0.25103,-1.37364 -0.21986,-0.0883 -0.3578,-0.0169 -0.74599,0.38609 -0.26194,0.27193 -0.47625,0.54893 -0.47625,0.61555 0,0.0666 0.1231,0.25934 0.27356,0.42825 0.39351,0.44179 0.95581,0.41542 1.19971,-0.0563 z m -0.45727,0.15171 c 0,-0.0699 0.0571,-0.127 0.127,-0.127 0.0698,0 0.127,0.0571 0.127,0.127 0,0.0698 -0.0572,0.127 -0.127,0.127 -0.0698,0 -0.127,-0.0571 -0.127,-0.127 z m 1.84459,-6.223 c 0.0948,0 0.20553,-0.0536 0.24599,-0.11905 0.0816,-0.13201 -0.34928,-1.47451 -0.69546,-2.16695 -1.25408,-2.50839 -1.55034,-3.04377 -1.89617,-3.42653 -0.3691,-0.40851 -0.38266,-0.45424 -0.17889,-0.60325 0.32464,-0.23738 0.49229,-0.21421 2.94499,0.40697 3.97927,1.00781 7.20119,1.55048 8.50407,1.43234 0.93148,-0.0845 1.66606,-0.45453 1.99333,-1.00419 0.42344,-0.71118 0.29369,-3.07905 -0.32946,-6.01284 -0.25757,-1.21262 -0.90726,-3.05536 -1.54478,-4.3815 -0.54789,-1.13969 -0.78479,-1.47469 -1.62997,-2.3049 -1.49139,-1.46498 -3.27163,-2.37958 -4.70889,-2.41919 -0.40664,-0.0112 -0.73935,-0.0673 -0.73935,-0.12465 0,-0.11607 0.55153,-0.16342 1.35525,-0.11633 0.30886,0.0181 0.65306,-0.0494 0.8255,-0.16199 0.35127,-0.22926 1.97362,-0.44284 2.75151,-0.36223 0.70537,0.0731 0.83575,-0.0645 0.72988,-0.77052 -0.12003,-0.80045 -0.30355,-0.99549 -0.96886,-1.02968 l -0.56493,-0.029 -0.0863,-0.6032 c -0.0475,-0.33176 -0.17421,-0.73739 -0.28167,-0.9014 -0.25473,-0.38876 -0.95156,-0.62251 -1.37539,-0.46137 -0.29436,0.11192 -0.3294,0.0851 -0.46066,-0.35304 -0.0781,-0.2608 -0.29083,-0.61363 -0.47265,-0.78407 -0.28956,-0.27143 -0.4435,-0.30869 -1.24039,-0.3002 -0.68787,0.007 -1.04921,0.0814 -1.4813,0.30351 -0.54543,0.28041 -2.24009,1.52578 -2.90054,2.13155 -0.29182,0.26765 -0.52846,0.36719 -0.52846,0.22228 0,-0.0349 0.31432,-0.38032 0.6985,-0.76758 0.38417,-0.38725 0.6985,-0.75874 0.6985,-0.82553 0,-0.0668 0.0669,-0.12142 0.14875,-0.12142 0.65028,0 0.86565,-1.41015 0.30152,-1.97428 -0.44386,-0.44386 -1.09236,-0.40962 -1.98607,0.10487 -1.25059,0.71994 -2.04191,1.55672 -2.78869,2.94891 -0.76806,1.43183 -0.86633,1.65142 -0.95202,2.12725 -0.0755,0.41944 -0.0556,0.47625 0.16683,0.47625 0.13892,0 0.31793,0.0787 0.39781,0.17499 0.11465,0.13814 0.0864,0.19037 -0.13423,0.24806 -0.36891,0.0965 -2.15367,-7.6e-4 -3.00576,-0.16375 -1.0308,-0.19717 -3.413,-0.41518 -4.35871,-0.39888 -0.46423,0.008 -1.09267,0.10226 -1.39652,0.20946 -0.67102,0.23675 -1.33918,0.85711 -1.44575,1.34232 -0.10431,0.4749 -0.56059,0.55608 -2.46336,0.43825 -3.27702,-0.20293 -3.5268,-0.20567 -4.01973,-0.0442 -0.84364,0.27641 -0.7161,0.51471 0.63752,1.19118 0.66766,0.33367 1.41086,0.769 1.65155,0.96739 0.40169,0.33111 1.22996,1.46095 1.25258,1.70864 0.0122,0.13411 0.16407,0.32842 0.75403,0.96503 0.26194,0.28264 0.47625,0.55591 0.47625,0.60726 0,0.0513 0.15818,0.26269 0.35151,0.46965 0.19333,0.20696 0.50709,0.6845 0.69724,1.06118 0.19015,0.37669 0.50766,0.97064 0.70557,1.31989 0.35732,0.63051 0.3652,0.63552 1.11601,0.70833 0.49094,0.0476 0.96369,0.19497 1.34789,0.42012 l 0.59174,0.34678 0.53396,-0.24478 c 0.59706,-0.27372 0.85533,-0.24678 1.26144,0.13157 0.20026,0.18658 0.25882,0.3533 0.20994,0.59772 -0.0494,0.24714 -7.6e-4,0.3808 0.17947,0.49338 0.34645,0.21637 1.37344,0.55432 1.48505,0.4887 0.051,-0.03 0.23418,-0.001 0.40712,0.0641 0.25634,0.0967 0.27981,0.14052 0.127,0.23715 -0.1616,0.10219 -0.15949,0.1188 0.0153,0.12047 0.1115,0.001 0.36868,0.0841 0.5715,0.18451 0.58294,0.2886 2.24836,0.69811 3.32232,0.81692 0.54089,0.0598 0.99643,0.0988 1.01232,0.0867 0.0159,-0.0122 0.0481,-0.148 0.0716,-0.30187 0.0496,-0.3252 0.34405,-0.68475 0.34405,-0.42015 0,0.10316 0.0912,0.13201 0.254,0.0803 0.15138,-0.048 0.254,-0.0228 0.254,0.0624 0,0.0787 0.0629,0.1042 0.13967,0.0567 0.0982,-0.0607 0.0968,-0.006 -0.004,0.183 -0.17437,0.32581 -0.28362,0.35475 -0.17776,0.0471 0.0552,-0.16049 -0.0127,-0.13401 -0.24455,0.0953 -0.30522,0.30188 -0.30984,0.32687 -0.094,0.508 0.12487,0.10477 0.26555,0.31909 0.31262,0.47625 0.0471,0.15716 0.13291,0.28575 0.19075,0.28575 0.0578,0 0.29056,0.38576 0.51714,0.85725 0.22659,0.47149 0.51831,0.99354 0.64827,1.16013 0.32153,0.4121 0.29765,0.5226 -0.11294,0.52272 -0.21942,6e-5 -0.53538,0.16576 -0.84994,0.44572 l -0.5007,0.44562 -0.3883,-0.37425 c -0.58006,-0.55906 -3.38937,-2.42219 -3.6523,-2.42219 -0.12568,0 -0.22848,0.0429 -0.22844,0.0953 1.3e-4,0.20809 1.00089,1.70461 1.71758,2.56849 0.79881,0.96288 1.23115,1.27326 1.7736,1.27326 0.28746,0 0.7169,0.18995 1.6084,0.71142 0.13157,0.077 0.41402,0.29568 0.62767,0.48604 0.21365,0.19037 0.46791,0.31564 0.565,0.27838 0.0971,-0.0373 0.21032,-0.0131 0.25161,0.0537 0.0413,0.0668 0.17899,0.12145 0.30601,0.12145 0.12703,0 0.30731,0.092 0.40062,0.20442 0.10613,0.12789 0.18724,0.15167 0.21663,0.0635 0.0258,-0.0775 0.12457,-0.14092 0.2194,-0.14092 z m -4.63859,-7.92692 c 0,-0.099 -0.0604,-0.20006 -0.13427,-0.22467 -0.0738,-0.0246 -0.0951,-0.14696 -0.0471,-0.27188 0.0505,-0.13165 0.16472,-0.19737 0.27166,-0.15633 0.10147,0.0389 0.26554,0.0708 0.36461,0.0708 0.25273,0 0.22422,0.30171 -0.0521,0.55181 -0.28458,0.25755 -0.40275,0.26643 -0.40275,0.0303 z m -0.635,-0.58208 c 0,-0.0698 0.0572,-0.127 0.127,-0.127 0.0698,0 0.127,0.0572 0.127,0.127 0,0.0698 -0.0571,0.127 -0.127,0.127 -0.0698,0 -0.127,-0.0572 -0.127,-0.127 z m 5.588,-12.80238 c 0,-0.0663 0.0857,-0.19167 0.1905,-0.27862 0.10477,-0.087 0.1905,-0.11845 0.1905,-0.07 0,0.0485 -0.0857,0.17385 -0.1905,0.27862 -0.10478,0.10478 -0.1905,0.13627 -0.1905,0.07 z m -21.4425,16.33588 c 0.11605,0.0191 0.25012,-0.0287 0.29794,-0.10602 0.0583,-0.0944 0.13958,-0.0687 0.24681,0.0779 0.14839,0.20294 0.19152,0.19449 0.60089,-0.11775 0.25243,-0.19254 0.64035,-0.35067 0.90718,-0.36978 0.25639,-0.0184 0.46629,-0.0701 0.46643,-0.11488 2.5e-4,-0.0935 0.54917,-0.26434 1.01625,-0.31631 0.17462,-0.0194 0.4318,-0.17343 0.5715,-0.34222 0.1397,-0.16879 0.38419,-0.37424 0.54331,-0.45656 0.15912,-0.0823 0.25616,-0.2033 0.21565,-0.26885 -0.0405,-0.0655 0.009,-0.0874 0.1106,-0.0485 0.22877,0.0878 0.38571,-0.14434 0.28138,-0.41622 -0.0695,-0.18102 -0.10919,-0.1766 -0.3605,0.0401 -0.92819,0.80042 -2.76651,1.53547 -3.85818,1.54269 -0.33839,0.002 -0.71081,0.0428 -0.82759,0.0902 -0.11678,0.0474 -0.3168,0.037 -0.4445,-0.023 -0.12769,-0.06 -0.61506,-0.10568 -1.08304,-0.10148 -0.46797,0.004 -0.79388,-0.0276 -0.72424,-0.0706 0.0786,-0.0485 0.0624,-0.13157 -0.0426,-0.21868 -0.22823,-0.18941 -1.11153,-0.13574 -1.11226,0.0676 -2.6e-4,0.0873 -0.0571,0.15875 -0.12607,0.15875 -0.069,0 -0.11189,-0.12699 -0.0952,-0.28219 0.0388,-0.36165 -0.36431,-0.39163 -0.7541,-0.0561 -0.16837,0.14495 -0.34205,0.19836 -0.4445,0.13671 -0.13898,-0.0836 -0.1389,-0.0651 3.8e-4,0.10681 0.12974,0.16006 0.24139,0.18031 0.48452,0.0879 0.42224,-0.16054 0.5534,-0.15138 0.5534,0.0386 0,0.0873 0.14287,0.15875 0.3175,0.15875 0.17462,0 0.3175,-0.0429 0.3175,-0.0953 0,-0.0524 0.0571,-0.0952 0.127,-0.0952 0.0698,0 0.127,0.0891 0.127,0.19799 0,0.1089 0.0487,0.16788 0.10829,0.13107 0.0596,-0.0368 0.21672,0.0152 0.34925,0.11547 0.13252,0.10031 0.34097,0.18421 0.46321,0.18643 0.12223,0.002 0.22225,0.0936 0.22225,0.2031 0,0.13608 0.0745,0.1754 0.23559,0.12428 0.12958,-0.0411 0.37246,-0.0231 0.53975,0.04 0.16728,0.0631 0.36131,0.0801 0.43116,0.0376 0.0699,-0.0424 0.22194,-0.0616 0.33799,-0.0425 z m -4.50575,-1.65231 c -0.0405,-0.10132 -0.0706,-0.0712 -0.0767,0.0767 -0.006,0.13387 0.0245,0.20888 0.0667,0.16668 0.0422,-0.0422 0.0467,-0.15174 0.01,-0.24341 z m 10.07325,-1.06319 c 0,-0.10889 -0.0581,-0.16209 -0.12907,-0.11822 -0.071,0.0439 -0.0962,0.13297 -0.056,0.19799 0.10887,0.17616 0.18508,0.14331 0.18508,-0.0798 z m -8.42739,-12.35997 c 0.0901,0.0748 0.23721,0.11033 0.32687,0.079 0.41263,-0.14429 -2.41513,-1.14147 -3.70726,-1.30732 -0.31255,-0.0401 -0.62688,-0.11984 -0.6985,-0.17715 -0.0716,-0.0573 -0.31596,-0.14393 -0.54297,-0.19247 -0.22701,-0.0485 -0.41275,-0.13372 -0.41275,-0.18929 0,-0.12191 -0.73017,-0.30369 -1.06556,-0.26528 -0.17208,0.0197 -0.21816,-0.0296 -0.16273,-0.174 0.0425,-0.11083 0.0187,-0.2015 -0.0529,-0.2015 -0.12278,0 -1.34381,-0.85061 -2.1583,-1.50354 -0.2038,-0.16337 -0.37054,-0.23661 -0.37054,-0.16274 0,0.0739 -0.0956,0.0976 -0.21255,0.0527 -0.16387,-0.0629 -0.19296,-0.0305 -0.127,0.14138 0.0471,0.12261 0.0856,0.27097 0.0856,0.3297 0,0.0587 0.20141,0.17323 0.44757,0.25447 0.30356,0.10018 0.43637,0.21573 0.41275,0.3591 -0.0222,0.13472 0.0458,0.20499 0.18743,0.19375 0.12224,-0.01 0.22225,0.0314 0.22225,0.0913 0,0.0599 0.0951,0.0724 0.21133,0.0278 0.14226,-0.0546 0.18127,-0.0325 0.11936,0.0677 -0.0757,0.12252 0.30195,0.37511 0.68531,0.45835 0.0349,0.008 0.47427,0.22106 0.97632,0.47439 0.50206,0.25333 1.14499,0.49983 1.42875,0.54777 0.28376,0.0479 0.51593,0.13547 0.51593,0.19451 0,0.059 0.15716,0.11314 0.34925,0.12024 0.76966,0.0284 0.92075,0.0654 0.92075,0.22536 0,0.1169 0.14257,0.15208 0.47625,0.11753 0.41777,-0.0433 0.90828,0.0909 1.55575,0.42545 0.10477,0.0541 0.24343,0.0486 0.30813,-0.0124 0.0674,-0.0635 0.18756,-0.0528 0.28148,0.0252 z m -0.84361,-1.72204 c 0,-0.0308 -0.0571,-0.0913 -0.127,-0.13449 -0.0698,-0.0432 -0.127,-0.018 -0.127,0.056 0,0.074 0.0571,0.1345 0.127,0.1345 0.0698,0 0.127,-0.0252 0.127,-0.056 z m -0.254,-0.46558 c 0,-0.0624 -0.0857,-0.11341 -0.1905,-0.11341 -0.10478,0 -0.1905,0.0839 -0.1905,0.18651 0,0.11361 0.0745,0.15794 0.1905,0.11341 0.10478,-0.0402 0.1905,-0.12413 0.1905,-0.18651 z m 15.41691,-0.1873 c 0.0424,-0.11049 0.0771,-0.30351 0.0771,-0.42895 0,-0.30396 0.3317,-0.58985 0.41736,-0.35971 0.0436,0.1171 0.087,0.10138 0.15169,-0.0549 0.0549,-0.13269 0.014,-0.29564 -0.10389,-0.4135 -0.10699,-0.10698 -0.23029,-0.3072 -0.274,-0.44493 -0.1028,-0.32389 -0.97157,-0.57714 -1.32712,-0.38685 -0.56046,0.29995 -0.91317,1.40077 -0.44882,1.40077 0.10628,0 0.25409,0.13358 0.32848,0.29684 0.21246,0.4663 1.04448,0.74237 1.17921,0.39127 z m -10.76871,-0.63731 c -0.0452,-0.11779 -0.11075,-0.18558 -0.14568,-0.15066 -0.0349,0.0349 -0.0265,0.15987 0.0187,0.27766 0.0452,0.11778 0.11075,0.18558 0.14568,0.15065 0.0349,-0.0349 0.0265,-0.15987 -0.0187,-0.27765 z m 1.55962,-1.00118 c 0.21441,-0.59255 0.3563,-1.16478 0.3153,-1.27162 -0.041,-0.10683 -0.003,-0.28064 0.0848,-0.38624 0.29177,-0.35156 0.0559,-3.73833 -0.27461,-3.94257 -0.0607,-0.0375 -0.11032,-0.22222 -0.11032,-0.41049 0,-0.18827 -0.14896,-0.74211 -0.33103,-1.23075 -0.18206,-0.48865 -0.41098,-1.14148 -0.5087,-1.45073 -0.0977,-0.30926 -0.27063,-0.66499 -0.38423,-0.79051 -0.23727,-0.26219 -0.32507,-1.08036 -0.15157,-1.41246 0.17693,-0.33866 0.26652,-1.47922 0.27161,-3.45775 0.005,-1.81951 -0.13187,-4.65748 -0.24245,-5.03874 -0.0339,-0.11701 -0.11556,-0.74566 -0.18138,-1.397 -0.0658,-0.65135 -0.14999,-1.47001 -0.18705,-1.81926 -0.0371,-0.34925 -0.20711,-1.3208 -0.37789,-2.159 -0.17077,-0.8382 -0.3631,-1.80976 -0.42739,-2.15901 -0.11119,-0.60403 -0.11762,-0.61189 -0.13191,-0.1611 -0.0178,0.56082 0.17513,1.87905 0.50675,3.46311 0.13161,0.62865 0.29703,1.9431 0.36761,2.921 0.0706,0.9779 0.1834,2.06375 0.25072,2.413 0.15883,0.8239 0.1453,4.3239 -0.0258,6.6675 l -0.13443,1.8415 0.51372,1.651 c 1.31528,4.22711 1.32633,4.27865 1.26277,5.89207 -0.05,1.27026 -0.15474,1.86688 -0.54142,3.08521 -0.0402,0.12662 -0.0461,0.23022 -0.013,0.23022 0.033,0 0.23548,-0.48482 0.44989,-1.07738 z m -1.95204,0.69431 c 0.0439,-0.071 0.13078,-0.0976 0.19313,-0.059 0.1231,0.0761 0.69032,-0.93802 0.58408,-1.04425 -0.0356,-0.0356 0.003,-0.14635 0.0864,-0.2461 0.0831,-0.0998 0.20827,-0.25083 0.27812,-0.33572 0.0698,-0.0849 0.11564,-0.38294 0.10176,-0.66234 -0.0139,-0.2794 -0.0309,-1.10808 -0.0378,-1.8415 -0.0117,-1.24932 -0.24392,-2.51964 -0.52492,-2.87183 -0.062,-0.0777 -0.17381,-0.47159 -0.24843,-0.87524 -0.0746,-0.40365 -0.26636,-0.94093 -0.42609,-1.19396 -0.18398,-0.29144 -0.29042,-0.65645 -0.29042,-0.99589 0,-0.2947 -0.0688,-0.61868 -0.15282,-0.71996 -0.12107,-0.14588 -0.10661,-0.25464 0.0696,-0.52364 0.20024,-0.3056 0.22158,-0.72819 0.21368,-4.23125 -0.0102,-4.50419 -0.13301,-6.09074 -0.60124,-7.76523 -0.44311,-1.58463 -0.59812,-2.76933 -0.51514,-3.93701 0.0883,-1.24292 -0.1326,-0.79064 -0.25173,0.51534 -0.0697,0.76376 -0.0224,1.25805 0.2463,2.57539 0.18288,0.89663 0.41197,1.8396 0.50908,2.0955 0.15163,0.39954 0.35017,2.83444 0.32789,4.02128 -0.08,4.26433 -0.11393,5.42293 -0.19216,6.56788 -0.10039,1.4693 -0.15606,1.16698 0.81346,4.41762 0.81865,2.74479 0.78936,2.5765 0.64581,3.71082 -0.0732,0.57842 -0.15391,1.40841 -0.17937,1.84443 -0.0255,0.43601 -0.11894,0.8803 -0.20776,0.98732 -0.21954,0.26452 -0.30587,0.14487 -0.1311,-0.1817 0.078,-0.14568 0.0923,-0.26487 0.0317,-0.26487 -0.0605,0 -0.18872,0.15716 -0.28492,0.34925 -0.0962,0.19208 -0.2916,0.44799 -0.43421,0.56867 l -0.2593,0.21943 0.27825,0.003 c 0.15304,0.002 0.31416,-0.0553 0.35803,-0.12625 z m -13.12038,-1.16633 c -0.11853,-0.11854 -0.18627,-0.11854 -0.3048,0 -0.11853,0.11853 -0.0847,0.1524 0.1524,0.1524 0.23707,0 0.27093,-0.0339 0.1524,-0.1524 z m 0.16904,-0.34923 c -0.0467,-0.0756 -0.14429,-0.10086 -0.21677,-0.0561 -0.0853,0.0527 -0.0723,0.11819 0.0368,0.18567 0.20381,0.12595 0.29658,0.0591 0.17993,-0.1296 z m -3.68694,-1.40337 c 0.0432,-0.0699 0.018,-0.127 -0.056,-0.127 -0.074,0 -0.1345,0.0571 -0.1345,0.127 0,0.0698 0.0252,0.127 0.056,0.127 0.0308,0 0.0913,-0.0571 0.1345,-0.127 z m 3.3655,-0.254 c 0,-0.0699 -0.0571,-0.127 -0.127,-0.127 -0.0699,0 -0.127,0.0571 -0.127,0.127 0,0.0698 0.0571,0.127 0.127,0.127 0.0698,0 0.127,-0.0572 0.127,-0.127 z m 20.828,-0.0635 c 0,-0.10478 -0.0571,-0.1905 -0.127,-0.1905 -0.0698,0 -0.127,0.0857 -0.127,0.1905 0,0.10477 0.0572,0.1905 0.127,0.1905 0.0698,0 0.127,-0.0857 0.127,-0.1905 z m -21.11645,-0.39428 c -0.0889,-0.0889 -0.47355,0.0913 -0.47355,0.22183 0,0.0649 0.1191,0.0541 0.26488,-0.0239 0.14568,-0.078 0.23958,-0.16705 0.20867,-0.19796 z m 4.39205,0.0833 c -0.11655,-0.13612 -0.26752,-0.21312 -0.33549,-0.17111 -0.0688,0.0425 -0.0199,0.15223 0.11042,0.24749 0.34341,0.25111 0.46898,0.20849 0.22507,-0.0764 z m 8.42948,0.0475 c 0.22543,-0.14308 0.25915,-0.24226 0.17949,-0.52786 -0.0539,-0.19342 -0.0847,-0.69457 -0.0683,-1.11367 0.0164,-0.4191 -0.0561,-1.19063 -0.16095,-1.7145 -0.10488,-0.52388 -0.20644,-1.0668 -0.22569,-1.2065 -0.0192,-0.1397 -0.0888,-0.39688 -0.15466,-0.5715 -0.0658,-0.17463 -0.1323,-0.74613 -0.14774,-1.27 -0.0154,-0.52388 -0.088,-1.1406 -0.16121,-1.37049 -0.0732,-0.22989 -0.10186,-0.49953 -0.0636,-0.59918 0.0382,-0.0997 0.0236,-0.20957 -0.0325,-0.24424 -0.0561,-0.0347 -0.10686,-0.23397 -0.1128,-0.44288 -0.006,-0.20892 -0.096,-0.56814 -0.20021,-0.79828 -0.31072,-0.68644 -0.55971,-2.04885 -0.52595,-2.87784 0.0261,-0.64138 0.0841,-0.81926 0.33309,-1.02266 l 0.30146,-0.24622 -0.30746,-0.11519 c -0.20887,-0.0783 -0.25799,-0.14577 -0.15319,-0.21054 0.0848,-0.0524 0.23888,-0.0251 0.34228,0.0607 0.10341,0.0858 0.22949,0.11149 0.28019,0.0571 0.0507,-0.0544 0.0207,-0.1245 -0.0666,-0.15568 -0.0873,-0.0312 -0.15875,-0.11246 -0.15875,-0.18061 0,-0.0682 0.0572,-0.0886 0.127,-0.0454 0.16179,0.1 0.16166,-0.0154 -3.8e-4,-0.31815 -0.07,-0.13087 -0.0784,-0.26817 -0.0186,-0.30513 0.0598,-0.037 0.082,-0.48333 0.0494,-0.99195 -0.0326,-0.50863 -0.0671,-1.05336 -0.0766,-1.21052 -0.01,-0.15717 -0.0636,-0.28575 -0.12007,-0.28575 -0.0565,0 -0.0686,-0.0552 -0.0269,-0.12265 0.0417,-0.0675 -0.0522,-0.36749 -0.20858,-0.66675 -0.22615,-0.4327 -0.27972,-0.72853 -0.26164,-1.44486 0.013,-0.51473 0.10525,-1.059 0.21529,-1.27 0.43081,-0.82611 0.0649,-2.14063 -0.83227,-2.9896 -0.74469,-0.7047 -2.19576,-1.38361 -2.43881,-1.14105 -0.21579,0.21536 -0.32809,3.84735 -0.13986,4.52341 0.0778,0.2794 0.18024,1.05092 0.22767,1.7145 0.0795,1.11276 0.16988,1.54386 0.46577,2.2225 0.32521,0.74587 0.6071,1.68838 0.65361,2.18528 0.008,0.0843 0.0905,0.18253 0.18368,0.21826 0.0931,0.0357 0.16933,0.20965 0.16933,0.38647 0,0.17682 0.0521,0.32149 0.11584,0.32149 0.17883,0 0.30029,0.96706 0.15544,1.23771 -0.14923,0.27884 0.0686,1.3427 0.25172,1.22952 0.15407,-0.0952 0.14027,0.031 -0.0339,0.30984 -0.11218,0.17962 -0.10501,0.32599 0.031,0.63327 0.0973,0.21981 0.21332,0.39966 0.25783,0.39966 0.16507,0 0.36068,1.13959 0.28739,1.67432 -0.0446,0.32521 0.004,0.89243 0.11814,1.3762 0.10668,0.45264 0.28751,1.3659 0.40185,2.02948 0.11434,0.66357 0.26999,1.46367 0.34588,1.778 0.23965,0.99248 0.4517,2.97645 0.33425,3.12737 -0.1642,0.21099 0.52913,0.19079 0.86964,-0.0253 z m -11.89808,-0.12542 c 0,-0.22692 -0.17843,-0.23619 -0.35898,-0.0186 -0.10287,0.12395 -0.0757,0.16851 0.11145,0.18261 0.13925,0.0105 0.24753,-0.0612 0.24753,-0.16397 z m -1.57427,-0.27521 c -0.1291,-0.12909 -0.23562,0.0653 -0.1297,0.23665 0.08,0.12947 0.10993,0.12957 0.15295,5.1e-4 0.0294,-0.0882 0.019,-0.19496 -0.0232,-0.23716 z m -2.74373,0.0427 c 0,-0.0274 -0.0887,-0.0839 -0.1971,-0.12554 -0.11302,-0.0434 -0.16399,-0.0221 -0.1195,0.0499 0.0746,0.12068 0.3166,0.17849 0.3166,0.0756 z m 1.59912,-0.19053 c 0.2042,-0.16063 0.25279,-0.26075 0.14635,-0.3016 -0.0876,-0.0336 -0.26171,0.0746 -0.38684,0.24045 -0.27405,0.36332 -0.17551,0.38837 0.24049,0.0611 z m 5.07739,-0.46212 c -0.11295,-0.17239 -0.28806,-0.31343 -0.38914,-0.31343 -0.10107,0 -0.30712,-0.16684 -0.45788,-0.37076 -0.15306,-0.20702 -0.35025,-0.34154 -0.44653,-0.30459 -0.1044,0.0401 -0.22248,-0.0655 -0.29929,-0.2675 -0.0698,-0.18351 -0.22773,-0.37085 -0.35101,-0.41631 -0.12329,-0.0455 -0.401,-0.21544 -0.61715,-0.37774 -0.21614,-0.16231 -0.45903,-0.2951 -0.53975,-0.2951 -0.0807,0 -0.14676,-0.0605 -0.14676,-0.1345 0,-0.074 -0.0571,-0.0992 -0.127,-0.056 -0.0698,0.0432 -0.127,0.018 -0.127,-0.056 0,-0.074 -0.1143,-0.13449 -0.254,-0.13449 -0.1397,0 -0.254,-0.0509 -0.254,-0.11311 0,-0.0622 -0.20003,-0.13646 -0.4445,-0.165 -0.67865,-0.0792 -0.57529,0.37627 0.1767,0.77872 0.16415,0.0879 0.26398,0.10395 0.22185,0.0358 -0.0421,-0.0682 0.13671,-0.0486 0.39743,0.0434 0.26071,0.092 0.4583,0.23214 0.43908,0.31134 -0.022,0.0905 0.0606,0.11366 0.22225,0.0624 0.15277,-0.0485 0.25719,-0.0244 0.25719,0.0593 0,0.24275 0.3002,0.47533 0.53446,0.41408 0.13056,-0.0342 0.25735,0.027 0.30308,0.14621 0.0432,0.1127 0.15825,0.20491 0.25555,0.20491 0.0976,0 0.17691,0.12525 0.17691,0.2794 0,0.21731 0.0339,0.24553 0.1524,0.127 0.20742,-0.20742 0.3556,-0.19154 0.3556,0.0381 0,0.10477 0.0533,0.1905 0.11844,0.1905 0.0651,0 0.15548,0.11669 0.20074,0.2593 0.0565,0.178 0.1538,0.23662 0.31032,0.18694 0.16181,-0.0513 0.2535,0.0116 0.3158,0.21695 0.0549,0.18105 0.11283,0.22838 0.15469,0.12649 0.0368,-0.0895 -0.0255,-0.30387 -0.13848,-0.47625 z m 14.91349,0.32157 c 0,-0.0698 -0.0572,-0.127 -0.127,-0.127 -0.0698,0 -0.127,0.0572 -0.127,0.127 0,0.0699 0.0571,0.127 0.127,0.127 0.0698,0 0.127,-0.0571 0.127,-0.127 z m -25.46014,-0.48348 c -0.0391,-0.0391 -0.14158,-8e-5 -0.22773,0.0867 -0.12449,0.12543 -0.1099,0.14001 0.0711,0.0711 0.12525,-0.0477 0.19573,-0.1187 0.15663,-0.15781 z m 27.7421,-0.0711 c 0.002,0.0792 0.11834,0.17383 0.25804,0.21036 0.29378,0.0768 0.34754,-0.10072 0.0635,-0.20972 -0.10478,-0.0402 -0.1905,-0.19179 -0.1905,-0.33686 0,-0.14507 -0.13873,-0.40249 -0.30829,-0.57205 -0.16956,-0.16956 -0.41187,-0.48364 -0.53847,-0.69795 -0.1266,-0.21432 -0.37363,-0.4234 -0.54896,-0.46462 -0.48599,-0.11426 -1.14428,-0.65814 -1.14428,-0.94541 0,-0.14073 -0.0595,-0.36706 -0.13223,-0.50295 -0.0727,-0.13588 -0.1483,-0.63551 -0.16794,-1.11028 -0.0196,-0.47477 -0.0754,-0.92739 -0.12385,-1.00581 -0.0485,-0.0784 -0.0277,-0.17993 0.0461,-0.22556 0.14131,-0.0873 0.0817,-0.42086 -0.16982,-0.95058 -0.2067,-0.4353 -0.41244,-0.635 -0.65417,-0.635 -0.15159,0 -0.17574,-0.0571 -0.0939,-0.22225 0.1219,-0.24609 0.0506,-1.42875 -0.0861,-1.42875 -0.0475,0 -0.15866,0.18573 -0.24702,0.41275 l -0.16066,0.41275 -0.17855,-0.41275 c -0.0982,-0.22702 -0.26704,-0.41275 -0.37519,-0.41275 -0.2424,0 -0.24451,0.218 -0.006,0.635 0.23609,0.413 0.23772,0.90501 0.004,1.21397 -0.10255,0.13559 -0.18827,0.43739 -0.1905,0.67067 -0.003,0.28315 -0.099,0.50117 -0.28978,0.65586 l -0.28575,0.23172 0.29948,1.17242 c 0.27791,1.08792 0.89669,2.46886 1.10627,2.46886 0.0498,0 0.15353,-0.0998 0.23048,-0.22181 0.10374,-0.16447 0.0988,-0.28759 -0.019,-0.47625 -0.14765,-0.23644 -0.12736,-0.25444 0.28668,-0.25444 0.50693,0 0.51521,-0.0247 0.25508,-0.762 -0.10478,-0.29697 -0.1905,-0.65591 -0.1905,-0.79765 0,-0.24797 0.009,-0.24919 0.24906,-0.0323 0.17223,0.15588 0.24807,0.3872 0.24585,0.74994 -0.002,0.28849 0.0576,0.72418 0.13194,0.9682 0.18799,0.61711 0.17727,0.64556 -0.19062,0.50569 -0.17917,-0.0681 -0.37689,-0.12385 -0.43938,-0.12385 -0.16634,0 -0.0874,0.79691 0.0984,0.99332 0.0873,0.0923 0.15875,0.24946 0.15875,0.34925 0,0.0998 0.0572,0.18143 0.127,0.18143 0.0698,0 0.127,0.0633 0.127,0.14058 0,0.0773 -0.0857,0.1077 -0.1905,0.0675 -0.11604,-0.0445 -0.1905,-2.5e-4 -0.1905,0.11341 0,0.10258 0.0825,0.18652 0.1833,0.18652 0.10081,0 0.27095,0.12514 0.37808,0.27808 0.10713,0.15295 0.23895,0.23085 0.29295,0.17312 0.054,-0.0577 0.0267,-0.13049 -0.0606,-0.16167 -0.0873,-0.0312 -0.15875,-0.1152 -0.15875,-0.1867 0,-0.0715 0.0864,-0.0969 0.192,-0.0563 0.36151,0.13872 0.824,-0.18395 0.824,-0.57489 0,-0.25473 0.0634,-0.36061 0.2159,-0.36061 0.16792,0 0.18203,0.0339 0.0635,0.1524 -0.26567,0.26567 -0.17225,0.44152 0.20513,0.38613 0.31456,-0.0462 0.39397,0.0162 0.66074,0.51907 0.26859,0.50631 0.32155,0.54743 0.46393,0.36022 0.0884,-0.11623 0.16254,-0.14655 0.16476,-0.0674 z m -2.44469,-0.7935 c -0.16516,-0.16515 -0.0953,-0.52823 0.11741,-0.60984 0.11477,-0.044 0.23859,-0.0502 0.27516,-0.0136 0.0366,0.0366 -0.004,0.0665 -0.0892,0.0665 -0.0856,0 -0.13086,0.0429 -0.10056,0.0952 0.0847,0.14636 -0.0993,0.56519 -0.20284,0.46168 z m -2.00082,-2.79139 c -0.0996,-0.26193 -0.0681,-0.43114 0.15353,-0.8255 0.27412,-0.48772 0.60876,-0.70926 0.41358,-0.27379 -0.0548,0.12223 -0.12357,0.49371 -0.15284,0.8255 -0.059,0.6684 -0.22302,0.77681 -0.41427,0.27379 z m -0.4834,-1.32154 c 0,-0.17463 0.0288,-0.24607 0.0641,-0.15875 0.0352,0.0873 0.0352,0.23018 0,0.3175 -0.0352,0.0873 -0.0641,0.0159 -0.0641,-0.15875 z m 0.89435,-0.5334 c -0.0838,-0.0838 -0.1524,-0.22849 -0.1524,-0.32149 0,-0.093 -0.0857,-0.20198 -0.1905,-0.24219 -0.25015,-0.096 -0.24398,-0.37923 0.0104,-0.47684 0.34095,-0.13083 0.40107,-0.0885 0.3386,0.2383 -0.0332,0.17346 -0.0246,0.40825 0.0189,0.52176 0.0727,0.18948 0.10599,0.18882 0.40642,-0.008 0.40666,-0.26645 0.55139,-0.15533 0.2424,0.18611 -0.26372,0.2914 -0.45563,0.32056 -0.67381,0.10238 z m 0.3556,-0.92051 c 0,-0.31987 0.23476,-0.52236 0.50007,-0.43132 0.16119,0.0553 -0.11826,0.63746 -0.34132,0.71103 -0.0999,0.0329 -0.15875,-0.0708 -0.15875,-0.27971 z m -1.0414,-0.47649 c 0.11853,-0.11854 0.18627,-0.11854 0.3048,0 0.11853,0.11853 0.0847,0.1524 -0.1524,0.1524 -0.23707,0 -0.27093,-0.0339 -0.1524,-0.1524 z m 0.9144,-0.3631 c 0,-0.074 0.0571,-0.0992 0.127,-0.056 0.0698,0.0432 0.127,0.10369 0.127,0.13449 0,0.0308 -0.0572,0.056 -0.127,0.056 -0.0698,0 -0.127,-0.0605 -0.127,-0.1345 z m -0.3708,-0.3735 c 0.18514,-0.38875 0.2438,-0.4608 0.2438,-0.29944 0,0.0681 -0.0889,0.23482 -0.19751,0.37041 -0.18623,0.23245 -0.18887,0.2284 -0.0463,-0.071 z m 2.6568,7.30999 c 0,-0.0308 -0.0571,-0.0913 -0.127,-0.13449 -0.0698,-0.0432 -0.127,-0.018 -0.127,0.056 0,0.074 0.0572,0.1345 0.127,0.1345 0.0698,0 0.127,-0.0252 0.127,-0.056 z m 0.508,-0.14199 c 0,-0.1089 -0.0581,-0.1621 -0.12907,-0.11822 -0.071,0.0439 -0.0962,0.13297 -0.056,0.19799 0.10887,0.17616 0.18508,0.14331 0.18508,-0.0798 z m -21.844,-2.48399 c 0,-0.0698 -0.0571,-0.0917 -0.127,-0.0485 -0.0698,0.0432 -0.127,0.13564 -0.127,0.20549 0,0.0699 0.0572,0.0917 0.127,0.0485 0.0698,-0.0432 0.127,-0.13564 0.127,-0.20549 z m 20.66075,-0.89783 c -0.0405,-0.10131 -0.0706,-0.0712 -0.0767,0.0767 -0.006,0.13388 0.0245,0.20889 0.0667,0.16669 0.0422,-0.0422 0.0467,-0.15174 0.01,-0.24342 z m -34.31325,-2.26218 c 0.0432,-0.0698 -0.0106,-0.127 -0.1195,-0.127 -0.1089,0 -0.198,0.0572 -0.198,0.127 0,0.0698 0.0538,0.127 0.1195,0.127 0.0657,0 0.15483,-0.0572 0.198,-0.127 z m 0.74421,-0.28278 c -0.0553,-0.0896 0.008,-0.11389 0.17893,-0.0691 0.19016,0.0497 0.24539,0.0197 0.19677,-0.107 -0.0372,-0.0969 -0.12841,-0.17612 -0.20275,-0.17612 -0.0743,0 -0.234,-0.0894 -0.3548,-0.19878 -0.14565,-0.13181 -0.24781,-0.1532 -0.30325,-0.0635 -0.046,0.0744 -0.0302,0.13528 0.035,0.13528 0.0652,0 0.15367,0.17523 0.1965,0.38941 0.0442,0.22075 0.13444,0.35447 0.20845,0.30873 0.0718,-0.0444 0.0921,-0.1429 0.0451,-0.21892 z m 1.47829,-0.68331 c 0,-0.0274 -0.0857,-0.0499 -0.1905,-0.0499 -0.10478,0 -0.1905,0.0554 -0.1905,0.12301 0,0.0677 0.0857,0.0901 0.1905,0.0499 0.10477,-0.0402 0.1905,-0.0956 0.1905,-0.12301 z m 34.45055,-2.44528 c 0.21614,-0.18065 0.19563,-0.62513 -0.036,-0.77963 -0.0524,-0.0349 -0.11648,-0.17579 -0.14251,-0.31304 -0.0588,-0.31016 -0.80919,-0.82996 -1.19812,-0.82996 -0.38267,0 -0.81594,0.5673 -0.81594,1.06836 0,0.47039 0.31752,0.98002 0.55405,0.88926 0.0914,-0.0351 0.30197,0.0463 0.46805,0.18078 0.32216,0.26087 0.67881,0.19512 1.17045,-0.21577 z m -27.67362,0.0459 c 0.0441,-0.11488 6.3e-4,-0.1905 -0.10943,-0.1905 -0.11007,0 -0.15351,0.0756 -0.10943,0.1905 0.0402,0.10477 0.0895,0.1905 0.10943,0.1905 0.02,0 0.0692,-0.0857 0.10943,-0.1905 z m 16.14397,-1.23825 c 0.44244,-0.41677 0.73046,-1.11125 0.46087,-1.11125 -0.0774,0 -0.14077,-0.20652 -0.14077,-0.45892 0,-0.43401 -0.02,-0.45598 -0.36783,-0.40493 -0.26611,0.0391 -0.35016,0.008 -0.30391,-0.11258 0.10742,-0.27995 -0.1512,-0.18601 -0.50292,0.18268 -0.54081,0.56689 -0.84387,1.67522 -0.41284,1.50982 0.11832,-0.0454 0.1905,7.6e-4 0.1905,0.12176 0,0.31115 0.2464,0.68617 0.45083,0.68617 0.10335,0 0.38508,-0.18574 0.62607,-0.41275 z m 0.41945,0.17837 c 0.0364,-0.1093 -0.0247,-0.15507 -0.16945,-0.127 -0.12449,0.0241 -0.25196,0.12077 -0.28325,0.21475 -0.0364,0.1093 0.0247,0.15507 0.16945,0.127 0.12449,-0.0241 0.25196,-0.12077 0.28325,-0.21475 z m -20.10185,-0.40062 c 0.0432,-0.0698 -0.0392,-0.127 -0.183,-0.127 -0.14383,0 -0.2615,0.0571 -0.2615,0.127 0,0.0699 0.0824,0.127 0.183,0.127 0.10066,0 0.21833,-0.0571 0.2615,-0.127 z m -0.79375,-0.33811 c -0.0873,-0.0352 -0.23019,-0.0352 -0.3175,0 -0.0873,0.0352 -0.0159,0.0641 0.15875,0.0641 0.17462,0 0.24606,-0.0288 0.15875,-0.0641 z m -0.62725,-0.23154 c -0.0132,-0.0688 -0.21323,-0.174 -0.4445,-0.2337 -0.23128,-0.0597 -0.49121,-0.16694 -0.57763,-0.23831 -0.18268,-0.15086 -0.54137,-0.0467 -0.54137,0.15723 0,0.0845 0.10648,0.10575 0.26986,0.0539 0.29877,-0.0948 0.57981,0.18986 0.33612,0.34047 -0.0784,0.0485 0.11031,0.0786 0.41945,0.0669 0.30914,-0.0117 0.55127,-0.0776 0.53807,-0.14644 z m 5.11337,-0.30419 c -0.0901,-0.14582 -0.70787,-0.26375 -0.70787,-0.13514 0,0.12044 0.23792,0.22345 0.54725,0.23695 0.12636,0.006 0.19864,-0.0403 0.16062,-0.10181 z m -6.87776,-0.21925 c 0.11049,-0.0424 0.20089,-0.13424 0.20089,-0.20409 0,-0.0699 -0.091,-0.0921 -0.20225,-0.0494 -0.13493,0.0518 -0.22441,-0.007 -0.26881,-0.17691 -0.071,-0.27149 -0.0699,-0.27085 -0.52714,-0.31756 -0.16484,-0.0168 -0.33629,-0.0863 -0.381,-0.15432 -0.0447,-0.068 -0.28132,-0.16026 -0.5258,-0.20493 -0.36358,-0.0664 -0.40982,-0.0527 -0.254,0.0753 0.21867,0.17965 0.24905,0.48807 0.0635,0.64474 -0.0731,0.0617 -0.0276,0.0749 0.10705,0.0312 0.6269,-0.20362 0.84545,-0.22304 0.84545,-0.0751 0,0.0849 0.0848,0.12179 0.18856,0.082 0.11084,-0.0425 0.24355,0.0304 0.32197,0.17692 0.14909,0.27858 0.15165,0.2796 0.43158,0.17218 z m 5.28089,-0.62891 c 0,-0.1089 -0.0571,-0.16267 -0.127,-0.1195 -0.0698,0.0432 -0.127,0.13226 -0.127,0.19799 0,0.0657 0.0572,0.11951 0.127,0.11951 0.0698,0 0.127,-0.0891 0.127,-0.198 z m -7.239,-0.056 c 0,-0.0699 -0.0572,-0.127 -0.127,-0.127 -0.0698,0 -0.127,0.0571 -0.127,0.127 0,0.0698 0.0571,0.127 0.127,0.127 0.0698,0 0.127,-0.0572 0.127,-0.127 z m -0.38993,-0.47625 c -0.008,-0.30948 -0.0213,-0.32033 -0.11807,-0.0953 -0.14906,0.34688 -0.14906,0.4445 0,0.4445 0.0698,0 0.12298,-0.15717 0.11807,-0.34925 z m -0.51712,-0.0968 c 0.0417,-0.21543 0.0288,-0.21789 -0.15875,-0.0303 -0.24402,0.24401 -0.26501,0.39075 -0.0454,0.31765 0.0873,-0.0291 0.1792,-0.15839 0.2042,-0.28736 z m -0.29945,-0.18895 c -0.0432,-0.0699 -0.14656,-0.12613 -0.22975,-0.12506 -0.0909,0.001 -0.0752,0.0511 0.0393,0.12506 0.24398,0.15767 0.28795,0.15767 0.1905,0 z m -0.635,-0.381 c 0.0432,-0.0698 -0.0106,-0.127 -0.1195,-0.127 -0.1089,0 -0.198,0.0572 -0.198,0.127 0,0.0699 0.0538,0.127 0.1195,0.127 0.0657,0 0.15483,-0.0571 0.198,-0.127 z m 35.68828,-1.14508 c 0.0439,-0.071 0.12698,-0.0999 0.18469,-0.0642 0.19462,0.12029 0.27811,-0.36728 0.0868,-0.50714 -0.1265,-0.0925 -0.14912,-0.20068 -0.0711,-0.34007 0.16749,-0.29927 -0.67835,-1.01982 -1.13508,-0.96695 -0.32071,0.0371 -0.33449,0.0687 -0.29178,0.66836 0.0594,0.83384 0.22651,1.25699 0.46087,1.16706 0.10157,-0.039 0.21844,-0.0162 0.25973,0.0506 0.0989,0.16004 0.40508,0.15543 0.50585,-0.008 z m -28.44928,-0.48054 c -0.57288,-0.34233 -1.81949,-0.78752 -2.20205,-0.78639 -0.23827,6.3e-4 -0.38254,0.0971 -0.48912,0.32676 -0.13049,0.2812 -0.12582,0.30473 0.0341,0.17198 0.14772,-0.1226 0.23416,-0.10958 0.42618,0.0642 0.22451,0.20317 0.26259,0.20377 0.5603,0.009 0.30282,-0.19842 0.33351,-0.19519 0.59073,0.062 0.22062,0.22061 0.30653,0.2421 0.4597,0.11498 0.15162,-0.12583 0.22962,-0.1151 0.39972,0.055 0.11624,0.11624 0.2991,0.21113 0.40637,0.21087 0.10727,-2.6e-4 0.0236,-0.10293 -0.18596,-0.22815 z m -3.468,-0.6735 c 0.19574,-0.10476 0.28577,-0.10133 0.35678,0.0136 0.0594,0.0961 0.1242,0.10638 0.17295,0.0275 0.11612,-0.18788 -0.17322,-0.37446 -0.74473,-0.48024 -0.2794,-0.0517 -0.6223,-0.16276 -0.762,-0.24676 -0.1397,-0.084 -0.64151,-0.16314 -1.11514,-0.17585 -0.79775,-0.0214 -0.85068,-0.006 -0.71909,0.20365 0.10818,0.17268 0.328,0.2323 0.92181,0.25 0.42886,0.0128 0.79805,0.0782 0.82042,0.14527 0.0224,0.0671 0.15224,0.0928 0.28859,0.0572 0.17038,-0.0446 0.24791,-6.3e-4 0.24791,0.14048 0,0.24009 0.16743,0.26058 0.5325,0.0652 z m 20.22088,0.0633 c 0.11009,-0.0422 0.16865,-0.1278 0.13013,-0.19012 -0.0385,-0.0623 0.0809,-0.0559 0.26539,0.0142 0.33787,0.12846 0.5681,0.0772 0.5681,-0.12648 0,-0.0606 -0.0959,-0.12867 -0.21318,-0.15125 -0.1971,-0.038 -0.19756,-0.0567 -0.006,-0.2482 0.11393,-0.11392 0.1799,-0.23436 0.14662,-0.26765 -0.0333,-0.0333 0.0266,-0.13281 0.13304,-0.22117 0.46517,-0.38605 -0.0341,-1.18563 -0.82243,-1.31699 -0.54027,-0.09 -0.77117,0.0665 -1.09773,0.7439 -0.20672,0.42886 -0.21993,0.55597 -0.0857,0.8243 0.1363,0.27241 0.69175,1.01625 0.75887,1.01625 0.0125,0 0.11283,-0.0346 0.22292,-0.0768 z m -12.66563,-0.58201 c -0.0405,-0.10131 -0.0706,-0.0712 -0.0767,0.0767 -0.006,0.13388 0.0245,0.20889 0.0667,0.16669 0.0422,-0.0422 0.0467,-0.15174 0.01,-0.24342 z m 3.1618,-0.30178 c -0.26166,-0.26166 -0.35916,-0.22477 -0.19865,0.0752 0.0758,0.14166 0.19256,0.22374 0.25945,0.18241 0.0708,-0.0438 0.0454,-0.15135 -0.0608,-0.25756 z m -15.78738,-0.0117 c -0.086,-0.0348 -0.25744,-0.0369 -0.381,-0.005 -0.12357,0.0322 -0.0532,0.0607 0.15633,0.0632 0.20955,0.003 0.31065,-0.0238 0.22467,-0.0585 z m 1.48983,0.0273 c 0,-0.0308 -0.0571,-0.0913 -0.127,-0.13449 -0.0698,-0.0432 -0.127,-0.018 -0.127,0.056 0,0.074 0.0572,0.1345 0.127,0.1345 0.0698,0 0.127,-0.0252 0.127,-0.056 z m 13.716,-0.19799 c 0,-0.0699 -0.0605,-0.127 -0.1345,-0.127 -0.074,0 -0.0992,0.0571 -0.056,0.127 0.0432,0.0698 0.10369,0.127 0.1345,0.127 0.0308,0 0.056,-0.0571 0.056,-0.127 z m -3.048,-0.508 c 0,-0.0698 -0.0538,-0.127 -0.1195,-0.127 -0.0657,0 -0.15483,0.0572 -0.198,0.127 -0.0432,0.0699 0.0106,0.127 0.1195,0.127 0.1089,0 0.198,-0.0571 0.198,-0.127 z m 3.1406,0.0503 c -0.0422,-0.0422 -0.15174,-0.0467 -0.24341,-0.01 -0.10131,0.0405 -0.0712,0.0706 0.0767,0.0767 0.13388,0.006 0.20889,-0.0245 0.16668,-0.0667 z m 22.6404,-0.48752 c 0,-0.0309 -0.11795,-0.25615 -0.26211,-0.50048 -0.19461,-0.32985 -0.41886,-0.49631 -0.87076,-0.64641 -0.33476,-0.11119 -0.74112,-0.34317 -0.90303,-0.51551 -0.37648,-0.40075 -0.47818,-0.3954 -0.43228,0.0228 0.0391,0.35608 0.2401,0.54775 0.5778,0.55095 0.11282,0.001 0.34142,0.10838 0.508,0.23848 0.16658,0.13009 0.43153,0.27683 0.58876,0.3261 0.15724,0.0493 0.34499,0.2 0.41722,0.33497 0.11472,0.21435 0.3764,0.34586 0.3764,0.18915 z m -17.48217,-0.64773 c -0.0414,-0.10779 -0.10245,-0.16874 -0.13574,-0.13545 -0.0333,0.0333 -0.0228,0.12148 0.0232,0.19598 0.12523,0.20262 0.19842,0.16326 0.11255,-0.0605 z m -8.80683,-1.12394 c 0,-0.0274 -0.0887,-0.0839 -0.1971,-0.12554 -0.11302,-0.0434 -0.16399,-0.0221 -0.1195,0.0499 0.0746,0.12068 0.3166,0.17849 0.3166,0.0756 z m 12.0015,-0.81386 c 0,-0.0721 0.0429,-0.17392 0.0952,-0.22631 0.19069,-0.19068 0.10057,-0.46294 -0.127,-0.38369 -0.19782,0.0689 -0.20029,0.0599 -0.0225,-0.0817 0.28833,-0.22954 0.0858,-0.88198 -0.40095,-1.29154 -0.29975,-0.25222 -0.52962,-0.32803 -0.99471,-0.32803 -0.52493,0 -0.62435,0.0428 -0.75225,0.32348 -0.27425,0.60191 -0.18417,1.28309 0.22989,1.73827 0.2075,0.22812 0.37895,0.34867 0.381,0.26789 0.004,-0.16993 0.51172,-0.0728 0.51172,0.0979 0,0.0616 0.24289,0.0901 0.53975,0.0633 0.29686,-0.0267 0.53975,-0.10759 0.53975,-0.17967 z m 5.77656,-3.23198 c -0.003,-0.28014 -0.17502,-0.42071 -0.79953,-0.65497 -0.65085,-0.24414 -0.86061,-0.19556 -0.64328,0.14897 0.30282,0.48007 1.44741,0.88149 1.44281,0.506 z m 2.00427,-0.80815 c -0.0832,-0.18255 -0.17308,-0.26635 -0.19978,-0.18623 -0.0267,0.0801 0.021,0.22948 0.10599,0.3319 0.23035,0.27756 0.2633,0.22638 0.0938,-0.14567 z m -0.7811,-0.30875 c -0.17894,-0.21266 -0.43175,-0.6272 -0.56181,-0.92121 -0.13005,-0.294 -0.44592,-0.75665 -0.70194,-1.02811 -0.46973,-0.49806 -0.57144,-0.71203 -0.33848,-0.71203 0.0699,0 0.127,0.0566 0.127,0.12584 0,0.0692 0.19155,0.25139 0.42566,0.40486 0.23412,0.15347 0.49078,0.42545 0.57036,0.60442 0.0796,0.17896 0.28423,0.51386 0.45478,0.74422 0.17055,0.23036 0.33469,0.48754 0.36476,0.5715 0.0301,0.084 0.0921,0.1183 0.13782,0.0763 0.0947,-0.0869 -0.10692,-0.50504 -0.52463,-1.08804 -0.15716,-0.21935 -0.28575,-0.43525 -0.28575,-0.47977 0,-0.0445 -0.1143,-0.20364 -0.254,-0.35359 -0.26511,-0.28457 -0.34659,-0.55096 -0.127,-0.41525 0.0699,0.0432 0.127,0.0271 0.127,-0.0357 0,-0.0628 -0.24289,-0.18604 -0.53975,-0.27388 -0.29686,-0.0878 -0.63899,-0.21128 -0.76028,-0.27432 -0.12129,-0.063 -0.53414,-0.11463 -0.91744,-0.11463 -0.48609,0 -0.99567,-0.12035 -1.68447,-0.39785 -1.30249,-0.52474 -3.29083,-1.12615 -3.72319,-1.12615 -0.18962,0 -0.41419,0.0836 -0.49903,0.18588 -0.12805,0.15429 -0.051,0.25138 0.45381,0.5715 0.33445,0.21209 0.67524,0.38562 0.75734,0.38562 0.0821,0 0.71654,0.25153 1.40989,0.55894 0.69335,0.30741 1.55347,0.6459 1.91139,0.75219 0.35791,0.10629 1.03899,0.37295 1.5135,0.59258 0.47452,0.21963 1.0648,0.41638 1.31174,0.43723 0.38532,0.0325 0.49101,0.11685 0.7453,0.59473 0.33357,0.62686 0.63804,1.00133 0.81416,1.00133 0.0652,0 -0.0278,-0.17399 -0.20674,-0.38665 z m -1.56593,-1.626 c -0.32525,-0.16865 -1.0523,-0.94491 -1.0523,-1.12352 0,-0.0213 0.14287,-0.0388 0.3175,-0.0388 0.17462,0 0.3175,0.069 0.3175,0.1534 0,0.0844 0.2106,0.36907 0.468,0.63267 0.54225,0.55531 0.52607,0.67536 -0.0507,0.37628 z m 0.9797,-2.44385 c 0.16933,-0.0958 0.16933,-0.1077 0,-0.10713 -0.10478,3.8e-4 -0.33338,0.0867 -0.508,0.19193 l -0.3175,0.1913 0.3175,-0.0842 c 0.17462,-0.0463 0.40322,-0.13266 0.508,-0.19194 z m 0.98573,-0.20275 c -0.12142,-0.0318 -0.35002,-0.0329 -0.508,-0.003 -0.15798,0.0304 -0.0586,0.0564 0.22077,0.0578 0.2794,0.001 0.40865,-0.0235 0.28723,-0.0552 z m -15.62248,-1.85577 c -0.19209,-0.0759 -0.34925,-0.2127 -0.34925,-0.30399 0,-0.0913 -0.0571,-0.16599 -0.127,-0.16599 -0.0698,0 -0.127,0.11011 -0.127,0.24469 0,0.24486 0.22171,0.35978 0.6985,0.36207 0.19456,8.9e-4 0.17227,-0.0311 -0.0952,-0.13678 z m 0.47968,-0.59143 c -0.0413,-0.0668 -0.15896,-0.0893 -0.2615,-0.0499 -0.26252,0.10074 -0.23158,0.17136 0.0751,0.17136 0.14382,0 0.22771,-0.0546 0.18643,-0.12145 z m -1.24433,-0.0823 c -0.0422,-0.0422 -0.15174,-0.0467 -0.24341,-0.01 -0.10131,0.0405 -0.0712,0.0706 0.0767,0.0767 0.13388,0.006 0.20889,-0.0245 0.16668,-0.0667 z m 0.4154,-0.17727 c 0,-0.0699 -0.0252,-0.127 -0.056,-0.127 -0.0308,0 -0.0913,0.0571 -0.1345,0.127 -0.0432,0.0698 -0.018,0.127 0.056,0.127 0.074,0 0.1345,-0.0572 0.1345,-0.127 z m 13.208,-0.889 c 0,-0.1397 0.0791,-0.254 0.17569,-0.254 0.0966,0 0.20311,-0.14337 0.23661,-0.31861 0.0455,-0.23824 0.0223,-0.28657 -0.0921,-0.1916 -0.0842,0.0699 -0.19064,0.0894 -0.23661,0.0435 -0.17161,-0.17162 -0.0737,-0.29524 0.23394,-0.29524 0.3587,0 0.37461,-0.037 0.17573,-0.4086 -0.11969,-0.22364 -0.1098,-0.25264 0.0635,-0.18614 0.1129,0.0433 0.20527,0.0234 0.20527,-0.0442 0,-0.0677 -0.0571,-0.12302 -0.127,-0.12302 -0.0698,0 -0.12338,-0.15716 -0.11895,-0.34925 0.008,-0.33571 0.0125,-0.33817 0.12291,-0.0635 0.0632,0.15717 0.18051,0.28575 0.26076,0.28575 0.0833,0 0.11744,0.10884 0.0795,0.25388 -0.10662,0.40773 0.11969,0.41315 0.28796,0.007 0.15218,-0.36739 0.0752,-1.14977 -0.11311,-1.14977 -0.0527,0 -0.0958,-0.0857 -0.0958,-0.1905 0,-0.10478 0.0619,-0.19138 0.13759,-0.19245 0.0924,-0.001 0.09,-0.0326 -0.007,-0.0953 -0.0797,-0.0513 -0.27118,-0.33619 -0.42557,-0.63305 -0.1544,-0.29686 -0.29885,-0.53975 -0.32101,-0.53975 -0.0222,0 -0.13069,0.0347 -0.24117,0.0771 -0.22385,0.0859 -0.277,0.43091 -0.0664,0.43091 0.074,0 0.0968,0.061 0.0507,0.13555 -0.0461,0.0745 0.0323,0.1659 0.17422,0.20301 0.21505,0.0562 0.5108,0.42344 0.34105,0.42344 -0.26585,0 -0.69174,-0.35253 -0.8196,-0.67842 l -0.15736,-0.40108 -1.16352,0.0194 c -0.63993,0.0106 -1.25723,0.0249 -1.37177,0.0317 -0.11558,0.007 -0.32631,0.26351 -0.47351,0.57666 l -0.26523,0.56427 -0.66634,-0.0496 c -0.44392,-0.0331 -0.72038,-0.12352 -0.82825,-0.27105 -0.19446,-0.26594 -0.20763,-0.42688 -0.0349,-0.42688 0.0699,0 0.127,-0.0891 0.127,-0.19799 0,-0.1246 0.0589,-0.16264 0.15875,-0.10262 0.12149,0.073 0.12521,0.0524 0.0159,-0.0878 -0.29845,-0.38251 -0.0486,-1.06636 0.34407,-0.94173 0.29376,0.0932 0.31905,-0.047 0.0446,-0.24766 -0.10926,-0.0799 -0.21525,-0.29633 -0.23551,-0.48097 -0.029,-0.26371 0.0153,-0.33177 0.20626,-0.31738 0.16493,0.0124 0.22446,0.0896 0.18513,0.24004 -0.06,0.22951 0.19748,0.54205 0.33405,0.40548 0.0426,-0.0426 0.0448,-0.24033 0.005,-0.43948 -0.0398,-0.19915 -0.0364,-0.45601 0.008,-0.57081 0.1298,-0.33825 0.47441,0.0346 0.40707,0.44037 -0.0303,0.18261 -0.0598,0.40682 -0.0655,0.49826 -0.006,0.0914 -0.0616,0.13462 -0.12413,0.096 -0.12401,-0.0766 -0.31498,0.30394 -0.2068,0.41212 0.0366,0.0366 0.0674,-0.0145 0.0684,-0.11343 0.002,-0.15323 0.0186,-0.15362 0.11419,-0.003 0.0634,0.10019 0.20327,0.14233 0.32162,0.0969 0.16243,-0.0623 0.19107,-0.17793 0.12773,-0.51557 -0.0696,-0.37124 -0.0379,-0.45823 0.21619,-0.5917 0.16381,-0.0861 0.33692,-0.22203 0.38469,-0.30216 0.0542,-0.0909 0.41265,-0.13675 0.9525,-0.12193 0.4761,0.0131 0.93246,-0.0305 1.01414,-0.0968 0.0988,-0.0803 0.18486,-0.0556 0.25725,0.0738 0.0937,0.16747 0.15217,0.15528 0.423,-0.0882 0.62733,-0.56401 0.71891,-1.52418 0.18344,-1.92318 -0.21744,-0.16202 -0.0628,-0.92033 0.17696,-0.8676 0.0794,0.0175 0.14435,-0.054 0.14435,-0.15875 0,-0.13592 0.13829,-0.1905 0.4826,-0.1905 0.26543,0 0.54391,-0.0613 0.61885,-0.13625 0.0749,-0.0749 0.32926,-0.11755 0.56515,-0.0947 l 0.4289,0.0416 -0.48894,0.47912 c -0.38058,0.37295 -0.45738,0.51717 -0.34652,0.65074 0.0991,0.11946 0.10395,0.27279 0.0158,0.50456 -0.13584,0.35728 -0.32128,0.43111 -0.43755,0.1742 -0.0395,-0.0873 -0.0565,-0.0445 -0.0377,0.0952 0.0188,0.1397 -0.0515,0.31923 -0.15612,0.39895 -0.11987,0.0913 -0.1788,0.31511 -0.15929,0.60484 0.0262,0.38914 -0.0185,0.4787 -0.29061,0.58215 -0.33279,0.12653 -0.41398,0.31047 -0.19639,0.44494 0.22294,0.13779 1.83263,-0.32638 2.06555,-0.59562 0.12224,-0.1413 0.22225,-0.19342 0.22225,-0.11583 0,0.27647 0.2506,0.13534 0.33141,-0.18665 0.0581,-0.23165 0.002,-0.4364 -0.19188,-0.6985 -0.26683,-0.3609 -0.26746,-0.37078 -0.0238,-0.37078 0.13767,0 0.28563,0.0571 0.3288,0.127 0.12491,0.20211 0.29704,0.14853 0.4518,-0.14064 0.10358,-0.19355 0.10482,-0.30604 0.004,-0.4064 -0.19704,-0.19702 -0.17181,-0.34196 0.0595,-0.34196 0.16125,0 0.18323,-0.10081 0.11769,-0.53975 -0.0443,-0.29686 -0.0192,-0.70089 0.0559,-0.89785 0.15434,-0.40479 -0.0452,-0.71987 -0.45809,-0.72334 -0.1899,-0.002 -0.1983,-0.0228 -0.0469,-0.11862 0.10144,-0.0642 0.23327,-0.0865 0.29296,-0.0496 0.15949,0.0986 0.7291,-0.068 0.7291,-0.21326 0,-0.0685 -0.10001,-0.12859 -0.22225,-0.1335 -0.18879,-0.008 -0.18401,-0.0244 0.0317,-0.11152 0.23818,-0.0962 0.23225,-0.11274 -0.0952,-0.26546 -0.19209,-0.0896 -0.34925,-0.21084 -0.34925,-0.26948 0,-0.0586 -0.17756,-0.10662 -0.39459,-0.10662 -0.30223,0 -0.37711,-0.0455 -0.31992,-0.19456 0.0496,-0.12933 -0.031,-0.23474 -0.24042,-0.31436 -0.37822,-0.1438 -0.41619,-0.38008 -0.0611,-0.38008 0.1397,0 0.254,0.0572 0.254,0.127 0,0.0699 0.12859,0.12778 0.28575,0.12874 0.5254,0.003 0.85725,0.15114 0.85725,0.38219 0,0.20109 0.0513,0.21157 0.4445,0.0909 0.24447,-0.075 0.4445,-0.21256 0.4445,-0.30561 0,-0.0931 0.0667,-0.1692 0.14817,-0.1692 0.0815,0 0.11056,-0.0376 0.0646,-0.0836 -0.046,-0.046 -0.0286,-0.14977 0.0385,-0.23069 0.11232,-0.13535 0.15091,-0.49976 0.12138,-1.14625 -0.0151,-0.33007 -0.25138,-0.82246 -0.53144,-1.10739 -0.12224,-0.12436 -0.22225,-0.30469 -0.22225,-0.40073 0,-0.10351 -0.13483,-0.17463 -0.33106,-0.17463 -0.22479,0 -0.27693,0.0335 -0.16243,0.10422 0.19942,0.12325 0.17998,0.14041 -0.38532,0.33994 -0.36875,0.13016 -0.56375,0.11399 -1.29174,-0.10713 -0.47159,-0.14324 -0.88606,-0.33503 -0.92104,-0.4262 -0.0512,-0.13355 0.0515,-0.13112 0.52872,0.0125 0.61365,0.18468 1.59567,0.12582 1.89612,-0.11365 0.24719,-0.19702 0.18695,-0.69627 -0.10902,-0.90358 -0.14727,-0.10315 -0.23677,-0.23771 -0.19888,-0.29902 0.0379,-0.0613 0.0159,-0.19446 -0.0489,-0.2959 -0.0955,-0.14943 -0.17997,-0.10611 -0.44533,0.22832 -0.18012,0.22701 -0.3875,0.41275 -0.46084,0.41275 -0.0821,0 -0.0726,-0.0732 0.0248,-0.1905 0.19369,-0.23338 0.22099,-0.2335 -0.90651,0.004 -0.97644,0.2054 -1.25249,0.18067 -1.25249,-0.11218 0,-0.099 -0.0843,-0.34247 -0.18735,-0.54109 -0.17218,-0.33188 -0.17277,-0.55515 -0.004,-1.50942 0.0247,-0.1397 0.0493,-0.29061 0.0546,-0.33535 0.005,-0.0448 0.19545,-0.10906 0.42246,-0.14291 0.85589,-0.12764 1.94655,-0.37436 2.20902,-0.4997 0.21877,-0.10447 1.49319,-0.0634 2.1712,0.07 0.0531,0.0104 0.0992,-0.13817 0.10244,-0.33026 0.003,-0.19209 -0.0539,-0.35072 -0.127,-0.35252 -0.14021,-0.003 -0.65644,-1.00596 -0.60507,-1.17501 0.0165,-0.0543 -0.0562,-0.13188 -0.16166,-0.17234 -0.10542,-0.0404 -0.19167,-0.12926 -0.19167,-0.19734 0,-0.23013 -0.91641,-1.24409 -1.04986,-1.16161 -0.074,0.0457 -0.0948,0.0209 -0.0471,-0.0561 0.0469,-0.0759 -0.0375,-0.22392 -0.18757,-0.32902 -0.16676,-0.1168 -0.24319,-0.2683 -0.19661,-0.38969 0.0519,-0.13514 0.003,-0.1986 -0.15412,-0.1986 -0.12668,0 -0.32899,-0.10901 -0.44957,-0.24225 -0.12058,-0.13324 -0.5152,-0.36877 -0.87694,-0.52339 -0.36173,-0.15463 -0.70339,-0.35994 -0.75925,-0.45625 -0.0559,-0.0963 -0.17745,-0.17511 -0.2702,-0.17511 -0.0928,0 -0.24203,-0.0884 -0.33173,-0.19651 -0.11346,-0.13671 -0.18987,-0.15317 -0.25111,-0.0541 -0.0633,0.10239 -0.21812,0.0881 -0.55096,-0.051 -0.47074,-0.19669 -0.59094,-0.39293 -0.30419,-0.49663 0.27934,-0.10102 -1.04441,-0.25165 -1.58008,-0.1798 -0.42696,0.0573 -0.57343,0.0161 -0.84785,-0.23837 -0.18245,-0.16917 -0.44947,-0.30759 -0.59337,-0.30759 -0.14391,0 -0.33154,-0.0699 -0.41696,-0.15531 -0.0854,-0.0854 -0.36832,-0.13789 -0.62865,-0.11658 -0.38323,0.0314 -0.44312,0.008 -0.31459,-0.12409 0.22404,-0.22978 0.19826,-0.33636 -0.10458,-0.43248 -0.1763,-0.056 -0.31679,-0.0105 -0.4251,0.13767 -0.1449,0.19816 -0.20357,0.20275 -0.56218,0.044 -0.52123,-0.23072 -0.51405,-0.4112 0.0124,-0.3103 0.33182,0.0636 0.36891,0.0517 0.18917,-0.0605 -0.33191,-0.20721 -2.02184,-0.17237 -2.56072,0.0528 -0.25324,0.1058 -0.53489,0.16379 -0.62591,0.12887 -0.091,-0.0349 -0.3318,-2.6e-4 -0.53507,0.077 -0.3116,0.11847 -0.39972,0.10406 -0.56165,-0.0918 -0.16241,-0.19647 -0.29995,-0.21858 -0.89057,-0.14316 -0.38418,0.0491 -0.82709,0.0579 -0.98425,0.0198 -0.23487,-0.0571 -0.2861,-0.0161 -0.28769,0.23007 -0.001,0.21248 -0.0332,0.25029 -0.10933,0.13012 -0.0864,-0.13625 -0.12257,-0.12982 -0.18499,0.0328 -0.0427,0.11124 -0.22099,0.26758 -0.39623,0.34742 -0.17525,0.0799 -0.34994,0.24384 -0.38821,0.36442 -0.0398,0.12543 -0.30909,0.2863 -0.62932,0.37596 -0.67519,0.18904 -0.78795,0.41421 -0.44712,0.89287 0.14121,0.1983 0.2057,0.39209 0.14331,0.43065 -0.0624,0.0385 -0.11342,0.21384 -0.11342,0.38952 0,0.36575 -0.23528,0.70121 -0.4918,0.70121 -0.0962,0 -0.17495,0.0919 -0.17495,0.20427 0,0.14649 0.0808,0.18582 0.28575,0.13907 0.15716,-0.0359 0.40005,-0.0207 0.53975,0.0336 0.21414,0.0833 0.17246,0.12118 -0.26558,0.2414 -0.58415,0.16032 -1.12418,0.64706 -0.83117,0.74914 0.12156,0.0424 0.0647,0.14913 -0.1905,0.35788 -0.28346,0.23185 -0.31469,0.29853 -0.1415,0.30209 0.2825,0.006 0.28877,0.20586 0.01,0.31291 -0.1875,0.072 -0.18005,0.1042 0.0635,0.27478 0.31941,0.22373 0.36068,0.43287 0.0854,0.43287 -0.21567,0 -0.25544,0.19888 -0.0635,0.3175 0.0698,0.0432 0.127,0.22598 0.127,0.40625 0,0.18026 0.0889,0.39278 0.19762,0.47226 0.17861,0.1306 0.17869,0.18082 7.6e-4,0.522 -0.23654,0.45365 -0.26143,1.59629 -0.0396,1.82114 0.12723,0.12899 0.11092,0.19627 -0.0822,0.3388 -0.17613,0.13002 -0.2534,0.3753 -0.28737,0.9122 -0.0642,1.01526 -0.12422,1.45854 -0.23277,1.72022 -0.12224,0.29467 0.14237,0.60163 0.51861,0.60163 0.21234,0 0.27701,0.0546 0.22506,0.19001 -0.0582,0.15164 0.004,0.1747 0.30608,0.1142 0.21997,-0.044 0.41525,-0.0171 0.46539,0.064 0.12418,0.20093 -0.0313,0.39513 -0.24943,0.31144 -0.10214,-0.0392 -0.15408,-0.12242 -0.11544,-0.18495 0.0387,-0.0625 0.01,-0.1137 -0.0642,-0.1137 -0.074,0 -0.1345,0.1143 -0.1345,0.254 0,0.1397 -0.0612,0.254 -0.13607,0.254 -0.22958,0 -0.50235,0.35133 -0.42641,0.54922 0.0395,0.1029 0.008,0.22637 -0.0694,0.27437 -0.19284,0.11918 -0.51109,-0.1661 -0.51109,-0.45814 0,-0.13184 -0.089,-0.23845 -0.19906,-0.23845 -0.13309,0 -0.17527,-0.0749 -0.12728,-0.22616 0.0441,-0.13906 -0.0215,-0.29339 -0.17039,-0.40071 -0.13319,-0.096 -0.21268,-0.25141 -0.17663,-0.34534 0.036,-0.0939 0.006,-0.17079 -0.0665,-0.17079 -0.0726,0 -0.16831,-0.1143 -0.21265,-0.254 -0.14008,-0.44136 -0.3892,-0.28732 -0.41078,0.254 -0.0111,0.2794 0.0339,0.508 0.10001,0.508 0.0661,0 0.12027,0.0857 0.12027,0.1905 0,0.10584 -0.11289,0.1905 -0.254,0.1905 -0.14111,0 -0.254,0.0847 -0.254,0.1905 0,0.22884 0.50623,0.26023 0.51204,0.0317 0.002,-0.0892 0.0859,-0.0505 0.19097,0.0884 0.28407,0.37559 0.03,0.50976 -0.49419,0.26101 -0.32254,-0.15306 -0.5996,-0.1899 -0.96449,-0.12826 -0.45912,0.0776 -0.55239,0.046 -0.90391,-0.30547 -0.21558,-0.21557 -0.41999,-0.39196 -0.45425,-0.39196 -0.12376,0 0.11833,0.5578 0.35003,0.8065 0.28559,0.30655 0.22939,0.40784 -0.12197,0.21979 -0.39332,-0.21049 -0.49761,-0.16658 -0.43106,0.18153 0.079,0.41327 1.82485,2.18849 2.25959,2.2976 0.18384,0.0461 0.5647,0.0149 0.84637,-0.0695 0.59791,-0.17914 0.77363,-0.0704 0.71305,0.44109 -0.044,0.3715 -0.21077,0.50871 -0.75675,0.62258 -0.37697,0.0786 -0.5342,0.45966 -0.36269,0.87899 0.0614,0.15013 0.19901,0.59119 0.30579,0.98014 0.10678,0.38894 0.30987,0.8406 0.45131,1.00368 0.14144,0.16308 0.25716,0.42064 0.25716,0.57235 0,0.15172 0.10001,0.36992 0.22225,0.48489 1.70373,1.60242 2.26171,2.10161 3.01625,2.69843 0.72814,0.57593 0.95343,0.69108 1.24506,0.63638 0.29152,-0.0547 0.44116,0.0217 0.8255,0.42127 0.51386,0.53423 1.01508,0.84651 1.14698,0.71462 0.0464,-0.0464 -0.0871,-0.23898 -0.29663,-0.42805 -0.2095,-0.18907 -0.53939,-0.57508 -0.73309,-0.85781 -0.36446,-0.53197 -0.68122,-1.38242 -0.46516,-1.24889 0.0654,0.0404 0.11884,0.19049 0.11884,0.33354 0,0.17901 0.0594,0.2373 0.1905,0.18699 0.10478,-0.0402 0.1905,-0.005 0.1905,0.0774 0,0.23274 1.55384,1.67151 2.06941,1.91616 0.25289,0.12001 0.49418,0.27381 0.53619,0.34179 0.11845,0.19167 0.44317,0.14638 0.36734,-0.0512 -0.0421,-0.10964 0.0485,-0.20383 0.24281,-0.25261 0.30865,-0.0775 0.54888,-0.54018 0.32005,-0.61646 -0.0661,-0.022 -0.1774,-0.26767 -0.24726,-0.54584 -0.20975,-0.83521 -0.20296,-0.89035 0.10447,-0.84774 0.21189,0.0294 0.30166,-0.0413 0.36301,-0.28575 0.0448,-0.17862 0.16442,-0.32477 0.26574,-0.32477 0.10133,0 0.15943,-0.0429 0.12913,-0.0953 -0.0303,-0.0524 -0.009,-0.20955 0.0471,-0.34925 0.0977,-0.24291 0.10257,-0.24335 0.1111,-0.01 0.005,0.1342 0.10351,0.34851 0.21911,0.47625 0.1549,0.17116 0.16604,0.23225 0.0423,0.23225 -0.0923,0 -0.13793,0.0299 -0.10136,0.0665 0.11076,0.11076 0.48384,-0.0827 0.48384,-0.2509 0,-0.0865 0.10653,-0.25364 0.23673,-0.37147 0.22413,-0.20283 0.24852,-0.19627 0.4579,0.12329 0.18202,0.2778 0.19069,0.35684 0.049,0.44661 -0.14073,0.0892 -0.13738,0.11219 0.0183,0.12608 0.10477,0.009 0.26194,0.008 0.34925,-0.004 0.0873,-0.0113 0.15875,0.0944 0.15875,0.23496 0,0.17501 -0.0601,0.23254 -0.1905,0.18248 -0.21769,-0.0835 -0.26152,0.1492 -0.0524,0.27842 0.0975,0.0603 0.0984,0.12497 0.003,0.22039 -0.0954,0.0954 -0.20215,0.0744 -0.36363,-0.0718 -0.12571,-0.11377 -0.46996,-0.24545 -0.765,-0.29263 -0.3618,-0.0578 -0.54264,-0.15285 -0.55551,-0.2918 -0.0105,-0.1133 -0.0576,0.0512 -0.10471,0.36549 l -0.0857,0.5715 -0.1617,-0.41275 c -0.16402,-0.41865 -0.31342,-0.51381 -0.45274,-0.28838 -0.0858,0.13885 0.15073,0.65079 0.36664,0.79348 0.0769,0.0508 0.23494,0.0627 0.3513,0.0266 0.28424,-0.0884 0.42094,0.16253 0.22029,0.40431 -0.13085,0.15765 -0.13035,0.21388 0.003,0.29606 0.11443,0.0707 0.12195,0.12752 0.0249,0.18753 -0.0992,0.0613 -0.0948,0.1337 0.0151,0.25141 0.12676,0.1357 0.2277,0.1347 0.56344,-0.006 0.26604,-0.11116 0.43665,-0.12618 0.48808,-0.043 0.0435,0.0704 0.13227,0.0951 0.1973,0.0549 0.065,-0.0402 0.11822,-0.0393 0.11822,0.002 0,0.0413 -0.12859,0.12677 -0.28575,0.18994 -0.27577,0.11085 -0.27369,0.11514 0.0596,0.12291 0.18996,0.004 0.54928,0.12257 0.7985,0.26255 0.3302,0.18546 0.62279,0.24192 1.07866,0.20814 0.3512,-0.026 0.64432,0.01 0.66835,0.082 0.0286,0.0859 0.16676,0.0867 0.41745,0.002 0.2738,-0.0922 0.36467,-0.19564 0.33757,-0.38442 -0.0205,-0.14272 0.0505,-0.29193 0.15875,-0.33345 0.13803,-0.053 0.19583,-0.25144 0.19583,-0.67239 0,-0.37751 0.0773,-0.68268 0.21018,-0.82948 0.31318,-0.34606 0.42482,-0.28456 0.42482,0.234 0,0.26169 0.0953,0.57154 0.2172,0.70625 0.18485,0.20426 0.19011,0.25674 0.0353,0.35242 -0.15203,0.094 -0.14546,0.12639 0.04,0.19758 0.15446,0.0593 0.18381,0.13109 0.0965,0.23624 -0.0938,0.11302 10e-4,0.14459 0.37841,0.12535 0.51548,-0.0263 0.7883,0.15226 0.50249,0.32891 -0.0878,0.0542 -0.12027,0.16214 -0.0723,0.2398 0.14031,0.22701 0.32628,0.16272 0.32628,-0.11281 z m -8.8198,-1.64015 c -0.0395,-0.0639 -0.002,-0.13936 0.083,-0.16773 0.22865,-0.0762 0.73583,0.0421 0.73583,0.17169 0,0.14859 -0.72669,0.14508 -0.8188,-0.004 z m 7.55983,-0.46593 c 0.006,-0.14795 0.0362,-0.17804 0.0767,-0.0767 0.0367,0.0917 0.0322,0.20122 -0.01,0.24342 -0.0422,0.0422 -0.0722,-0.0328 -0.0667,-0.16669 z m 0.88344,-0.42557 c -0.0723,-0.1351 -0.12696,-0.34942 -0.12144,-0.47625 0.008,-0.17978 0.0263,-0.18862 0.0841,-0.0401 0.0938,0.24136 0.4446,0.504 0.56977,0.42665 0.0524,-0.0324 0.0612,0.0299 0.0196,0.13826 -0.10451,0.27234 -0.39388,0.24688 -0.55199,-0.0486 z m -12.2388,-0.093 c -0.0466,-0.0466 -0.0847,-0.14372 -0.0847,-0.2159 0,-0.0796 0.0592,-0.0721 0.15028,0.019 0.0827,0.0827 0.12076,0.17981 0.0847,0.2159 -0.0361,0.0361 -0.10372,0.0275 -0.15028,-0.019 z m 11.53583,-0.16934 c -0.0926,-0.14984 0.0275,-0.381 0.198,-0.381 0.0657,0 0.1195,0.1143 0.1195,0.254 0,0.26786 -0.18477,0.34177 -0.3175,0.127 z m 1.7145,-0.127 c 0,-0.0699 0.0605,-0.127 0.1345,-0.127 0.074,0 0.0992,0.0571 0.056,0.127 -0.0432,0.0698 -0.10369,0.127 -0.1345,0.127 -0.0308,0 -0.056,-0.0572 -0.056,-0.127 z m -13.7795,-0.381 c -0.1272,-0.14055 -0.2027,-0.28413 -0.16778,-0.31905 0.0349,-0.0349 0.16758,0.0515 0.29478,0.19205 0.1272,0.14056 0.2027,0.28414 0.16778,0.31906 -0.0349,0.0349 -0.16758,-0.0515 -0.29478,-0.19206 z m 10.61453,-0.0741 c 0.006,-0.14795 0.0362,-0.17804 0.0767,-0.0767 0.0367,0.0917 0.0322,0.20122 -0.01,0.24342 -0.0422,0.0422 -0.0722,-0.0328 -0.0667,-0.16669 z m -5.56856,-0.30692 c 0.16025,-0.25659 0.35153,-0.33952 0.35153,-0.1524 0,0.13196 -0.27517,0.4064 -0.40748,0.4064 -0.0565,0 -0.0313,-0.1143 0.056,-0.254 z m 7.23387,-0.11878 c 0.0844,-0.13518 0.20199,-0.21582 0.26125,-0.17919 0.12108,0.0748 -0.12792,0.42497 -0.30222,0.42497 -0.0619,0 -0.0435,-0.1106 0.041,-0.24578 z m -13.20059,-0.70619 c -0.0873,-0.0992 -0.15875,-0.21379 -0.15875,-0.25471 0,-0.0409 -0.14329,-0.22893 -0.31842,-0.4178 -0.17684,-0.19071 -0.25708,-0.36385 -0.18046,-0.38939 0.13527,-0.0451 0.34289,0.19323 0.78276,0.89851 0.23017,0.36905 0.14912,0.47488 -0.12513,0.16339 z m 8.55107,-0.52743 c -0.10771,-0.28069 -0.0175,-0.34633 0.16825,-0.12247 0.0902,0.10867 0.10287,0.21217 0.0314,0.25634 -0.0659,0.0407 -0.15576,-0.0195 -0.19965,-0.13387 z m 7.46472,-2.49258 c -0.11301,-0.49385 -0.10601,-0.60002 0.0396,-0.60002 0.25622,0 0.34578,0.33518 0.21314,0.79766 l -0.1154,0.40238 z m -6.71304,-0.092 c 0.0432,-0.0698 0.13227,-0.127 0.198,-0.127 0.0657,0 0.1195,0.0572 0.1195,0.127 0,0.0699 -0.0891,0.127 -0.198,0.127 -0.10889,0 -0.16267,-0.0571 -0.1195,-0.127 z m 4.31052,-2.21846 c -0.28196,-0.21326 -1.01839,-0.25706 -1.13552,-0.0675 -0.13047,0.21111 -0.64486,0.14277 -0.87985,-0.11689 -0.21101,-0.23315 -0.20768,-0.25098 0.0756,-0.40481 0.16296,-0.0885 0.58629,-0.16449 0.94074,-0.16886 0.53625,-0.007 0.7213,0.056 1.10208,0.37306 0.2517,0.20955 0.46176,0.42387 0.4668,0.47625 0.0153,0.15867 -0.30782,0.10695 -0.56981,-0.0912 z m 3.84129,-1.67356 c -0.048,-0.048 -0.0873,-0.1941 -0.0873,-0.32461 0,-0.20028 0.0408,-0.21545 0.26172,-0.0972 0.14394,0.077 0.24038,0.20407 0.21431,0.28228 -0.0594,0.17822 -0.27328,0.25501 -0.38872,0.13957 z m -19.07381,-1.94998 c 0.0432,-0.0699 0.10369,-0.127 0.1345,-0.127 0.0308,0 0.056,0.0571 0.056,0.127 0,0.0698 -0.0605,0.127 -0.1345,0.127 -0.074,0 -0.0992,-0.0572 -0.056,-0.127 z m 8.3185,-0.127 c 0,-0.0699 0.0605,-0.127 0.1345,-0.127 0.074,0 0.0992,0.0571 0.056,0.127 -0.0432,0.0698 -0.10369,0.127 -0.1345,0.127 -0.0308,0 -0.056,-0.0572 -0.056,-0.127 z m 10.03668,-0.88404 c -0.10275,-0.065 -0.14426,-0.16071 -0.0922,-0.21274 0.052,-0.052 0.19121,0.002 0.30929,0.12009 0.22954,0.22954 0.0921,0.28819 -0.21706,0.0926 z m -8.76668,-1.70068 c 0.4894,-0.17329 1.03897,-0.12849 0.74099,0.0604 -0.0932,0.0591 -0.39809,0.10508 -0.67749,0.10221 l -0.508,-0.005 0.4445,-0.15739 z m 1.15797,-0.0703 c -0.13717,-0.0869 -0.11425,-0.13062 0.10482,-0.20015 0.31489,-0.0999 0.45546,-0.0233 0.32993,0.17976 -0.10078,0.16307 -0.20197,0.16782 -0.43475,0.0204 z m 0.68353,-1.02794 c -0.0432,-0.0699 -0.27514,-0.127 -0.5155,-0.127 -0.34283,0 -0.437,-0.0514 -0.437,-0.23845 0,-0.3474 -0.33384,-0.59379 -0.5554,-0.40991 -0.0959,0.0796 -0.26159,0.11129 -0.36816,0.0704 -0.10656,-0.0409 -0.23148,-0.0133 -0.27759,0.0613 -0.12487,0.20204 -0.57685,0.16401 -0.57685,-0.0485 0,-0.1013 0.10001,-0.24244 0.22225,-0.31363 0.20279,-0.11812 0.19935,-0.12979 -0.0392,-0.13332 -0.39047,-0.006 -0.74744,0.30094 -0.64895,0.55758 0.0659,0.17184 0.0314,0.2007 -0.16524,0.13828 -0.13671,-0.0434 -0.62903,0.0165 -1.09403,0.13314 -0.67581,0.16948 -0.86551,0.17959 -0.94538,0.0504 -0.10839,-0.17538 -0.0272,-0.50221 0.12474,-0.50221 0.1474,0 0.64084,-0.46048 0.64084,-0.59804 0,-0.0681 0.23329,-0.19365 0.51843,-0.27908 0.34869,-0.10447 0.4967,-0.21196 0.45205,-0.32832 -0.0989,-0.25785 0.18892,-0.43312 0.68495,-0.41704 0.99179,0.0321 3.09067,-0.35757 2.97075,-0.5516 -0.099,-0.16022 0.84224,-0.39618 1.25283,-0.31406 0.21741,0.0435 0.52605,0.2019 0.68588,0.35205 0.24421,0.22943 0.34013,0.25044 0.60095,0.1316 0.3453,-0.15733 0.49335,0.008 0.31634,0.35349 -0.0537,0.10478 -0.12652,0.28513 -0.16183,0.40078 -0.0353,0.11565 -0.23357,0.24748 -0.4406,0.29294 -0.41181,0.0904 -0.70962,0.36758 -0.83352,0.77562 -0.0439,0.14457 -0.27925,0.35796 -0.52302,0.4742 -0.24376,0.11624 -0.44321,0.298 -0.44321,0.40391 0,0.21512 -0.32265,0.26271 -0.4445,0.0656 z M 42.408859,166.91 c 0.31571,-0.23879 0.0906,-0.24159 -0.32498,-0.004 -0.20351,0.11634 -0.24642,0.18312 -0.11952,0.186 0.10888,0.002 0.30891,-0.0794 0.4445,-0.18196 z m -4.89698,-8.95754 c 0,-0.0699 0.0605,-0.127 0.1345,-0.127 0.074,0 0.0992,0.0572 0.056,0.127 -0.0432,0.0699 -0.10369,0.127 -0.1345,0.127 -0.0308,0 -0.056,-0.0572 -0.056,-0.127 z m -4.88614,26.69453 c -0.0391,-0.0391 -0.14158,-8e-5 -0.22773,0.0867 -0.12449,0.12543 -0.1099,0.14002 0.0711,0.0711 0.12525,-0.0477 0.19573,-0.11871 0.15663,-0.15781 z m 4.37814,-0.33453 c 0,-0.0308 -0.0572,-0.0913 -0.127,-0.1345 -0.0698,-0.0432 -0.127,-0.018 -0.127,0.056 0,0.074 0.0571,0.13449 0.127,0.13449 0.0698,0 0.127,-0.0252 0.127,-0.056 z m 17.018,-1.0235 c 0,-0.20908 -0.34787,-0.34684 -0.45169,-0.17887 -0.0434,0.0701 -0.0473,0.20956 -0.009,0.30981 0.0825,0.21514 0.46056,0.10767 0.46056,-0.13094 z m -29.337,0.0544 c 0,-0.0748 0.0857,-0.2218 0.1905,-0.32658 0.29354,-0.29354 0.24108,-0.63881 -0.0953,-0.62694 -0.2048,0.007 -0.33682,-0.10592 -0.46601,-0.39938 -0.17902,-0.40666 -0.28086,-0.43623 -1.04422,-0.30323 -0.12469,0.0217 -0.27901,0.67368 -0.24385,1.03019 0.0172,0.17463 0.10927,0.40498 0.20455,0.5119 0.20337,0.22822 1.45428,0.32632 1.45428,0.11404 z m 2.413,-0.62594 c 0,-0.0699 -0.0824,-0.127 -0.183,-0.127 -0.10066,0 -0.21833,0.0571 -0.2615,0.127 -0.0432,0.0698 0.0392,0.127 0.183,0.127 0.14383,0 0.2615,-0.0571 0.2615,-0.127 z m 21.08782,-1.91587 c 0.17977,-0.3359 0.0887,-0.42966 -0.24421,-0.25148 -0.15481,0.0829 -0.23085,0.21558 -0.18779,0.32779 0.10124,0.26384 0.26548,0.23483 0.432,-0.0763 z m 11.37723,-0.0198 c 0.52737,-0.24028 0.32334,-0.34499 -0.3023,-0.15515 -0.33179,0.10068 -0.73184,0.18367 -0.889,0.18443 -0.15716,7.6e-4 -0.28575,0.065 -0.28575,0.14279 0,0.16405 0.99332,0.0483 1.47705,-0.17207 z m -35.06855,-0.22335 c 0.0928,-0.15021 -0.0314,-0.15021 -0.381,0 -0.24489,0.10523 -0.24402,0.10947 0.0243,0.11808 0.15304,0.005 0.31358,-0.0482 0.35675,-0.11808 z m -1.3335,-0.183 c 0,-0.0308 -0.0571,-0.0913 -0.127,-0.1345 -0.0698,-0.0432 -0.127,-0.018 -0.127,0.056 0,0.074 0.0572,0.13449 0.127,0.13449 0.0698,0 0.127,-0.0252 0.127,-0.056 z m 1.778,-0.198 c 0.15405,-0.0996 0.13582,-0.12348 -0.0952,-0.12505 -0.15716,-10e-4 -0.28575,0.0552 -0.28575,0.12505 0,0.15912 0.13478,0.15912 0.381,0 z m 35.61347,-0.28575 c 0.30294,-0.22701 0.61509,-0.58887 0.69366,-0.80414 0.2018,-0.55284 0.0462,-1.55141 -0.26798,-1.71954 -0.30251,-0.16191 -0.27627,-0.19991 -0.46462,0.67286 -0.16639,0.77105 -0.55515,1.67875 -0.87428,2.04132 -0.35638,0.4049 0.30196,0.26757 0.91322,-0.1905 z m -36.34372,0.20164 c -0.0873,-0.0352 -0.23019,-0.0352 -0.3175,0 -0.0873,0.0352 -0.0159,0.0641 0.15875,0.0641 0.17462,0 0.24606,-0.0288 0.15875,-0.0641 z m -1.68275,-0.23339 c -0.087,-0.10477 -0.24383,-0.1905 -0.3486,-0.1905 -0.15493,0 -0.16098,0.0356 -0.0324,0.1905 0.087,0.10478 0.24383,0.1905 0.3486,0.1905 0.15493,0 0.16098,-0.0356 0.0324,-0.1905 z m 6.62032,-0.0953 c 0.13807,-0.2591 0.13256,-0.2695 -0.059,-0.11145 -0.11621,0.0959 -0.21129,0.22446 -0.21129,0.28575 0,0.19399 0.11286,0.12123 0.27032,-0.1743 z m -5.61516,-0.29607 c 0.15089,-0.15089 -0.26114,-0.23771 -0.94166,-0.19843 l -0.381,0.022 0.3175,0.17888 c 0.27673,0.15592 0.84818,0.15452 1.00516,-0.002 z m 31.21019,-0.37921 c 0.13625,-0.35505 -0.15574,-0.46853 -0.31367,-0.12191 -0.12125,0.26612 -0.11348,0.32094 0.0455,0.32094 0.10547,0 0.22613,-0.0896 0.26814,-0.19903 z m 3.01356,-0.50985 c 0.10623,-0.27684 0.0967,-0.66103 -0.0182,-0.73203 -0.0524,-0.0324 -0.26562,0.0769 -0.47376,0.24286 -0.37049,0.29541 -0.37316,0.30576 -0.12694,0.49187 0.32706,0.24721 0.52335,0.24635 0.61892,-0.003 z m 0.83909,-0.56112 c 0,-0.1397 -0.0219,-0.254 -0.0487,-0.254 -0.0268,0 -0.0786,0.1143 -0.11511,0.254 -0.0365,0.1397 -0.0146,0.254 0.0487,0.254 0.0633,0 0.11511,-0.1143 0.11511,-0.254 z m -26.797,-0.13277 c 0,-0.18526 -0.58978,-0.75623 -0.78114,-0.75623 -0.0867,0 0.0362,0.20003 0.27314,0.4445 0.47054,0.48548 0.508,0.50846 0.508,0.31173 z m -1.12589,-0.87574 c -0.0604,-0.039 -0.14825,-0.19406 -0.19516,-0.34448 -0.0469,-0.15042 -0.28836,-0.36986 -0.53656,-0.48764 -0.43746,-0.20759 -0.46031,-0.20565 -0.74641,0.0631 l -0.29514,0.27727 -0.37952,-0.2806 c -0.51942,-0.38402 -0.80483,-0.27029 -0.35904,0.14307 0.2037,0.18888 0.64514,0.38402 1.09393,0.48359 0.41384,0.0918 0.85345,0.27855 0.97691,0.41497 0.21274,0.23508 0.23301,0.23638 0.38767,0.0249 0.0898,-0.12275 0.11375,-0.25512 0.0533,-0.29417 z m 24.49389,0.39468 c 0,-0.16536 -0.15097,-0.27534 -0.27379,-0.19944 -0.13134,0.0812 -0.0181,0.30527 0.15429,0.30527 0.0657,0 0.1195,-0.0476 0.1195,-0.10583 z m -29.845,-0.16193 c 0,-0.0858 0.12098,-0.11041 0.30993,-0.063 0.21415,0.0537 0.36194,0.009 0.47819,-0.14499 0.36142,-0.47854 0.64213,-0.52766 1.08513,-0.18986 l 0.41275,0.31474 v -0.30717 c 0,-0.59208 -0.41655,-0.75746 -1.06111,-0.4213 -0.30659,0.15991 -0.3519,0.16122 -0.2933,0.009 0.0381,-0.0993 -0.0144,-0.25008 -0.11671,-0.33499 -0.24564,-0.20387 -0.38768,-0.0511 -0.18243,0.19624 0.0915,0.11021 0.10511,0.19357 0.0317,0.19357 -0.0709,0 -0.16368,-0.0905 -0.20612,-0.20106 -0.11588,-0.30198 -0.38444,-0.14486 -0.47013,0.27504 l -0.0756,0.37052 -0.12538,-0.30654 c -0.10783,-0.2636 -0.21787,-0.30979 -0.78573,-0.32977 -0.43113,-0.0152 -0.64446,0.0251 -0.61456,0.11604 0.0252,0.0766 0.18418,0.15877 0.35334,0.1826 0.3614,0.0509 0.75205,0.36848 0.75205,0.61135 0,0.094 0.1143,0.17082 0.254,0.17082 0.1397,0 0.254,-0.0634 0.254,-0.14077 z m 31.67076,-0.002 c 0.33994,-0.15489 0.55145,-0.70565 0.34881,-0.9083 -0.18939,-0.18938 -0.52357,-0.007 -0.52357,0.28526 0,0.14189 -0.0571,0.25798 -0.127,0.25798 -0.0698,0 -0.127,0.081 -0.127,0.17992 0,0.099 -0.0714,0.20874 -0.15875,0.24397 -0.0971,0.0392 -0.0748,0.0679 0.0575,0.0741 0.11896,0.006 0.35745,-0.0543 0.52999,-0.13291 z m -29.14014,-2.83025 c 0.23372,-0.28162 -0.0631,-0.37036 -0.43153,-0.12898 -0.1766,0.11571 -0.32109,0.23238 -0.32109,0.25927 0,0.13346 0.62328,0.0256 0.75262,-0.13029 z m -1.41387,-0.71089 c 0.26464,-0.28406 0.27978,-0.84655 0.0211,-0.78551 -0.13484,0.0318 -0.13499,0.003 -8.9e-4,-0.15875 0.29193,-0.35175 -0.0438,-0.19922 -0.55496,0.25213 -0.27358,0.24156 -0.43741,0.43921 -0.36407,0.43921 0.0734,0 0.16324,0.1143 0.19977,0.254 0.0851,0.32535 0.39528,0.32487 0.69895,-10e-4 z m -1.24691,-0.5163 c 0.44481,-0.20177 0.52761,-0.28397 0.381,-0.37821 -0.16308,-0.10482 -0.16353,-0.13573 -0.003,-0.23869 0.12594,-0.081 -0.004,-0.11102 -0.41275,-0.0952 -0.32814,0.0127 -0.59662,0.0517 -0.59662,0.0867 0,0.035 -0.27019,0.20649 -0.60041,0.381 l -0.6004,0.31728 0.50515,0.0772 c 0.27784,0.0425 0.5623,0.0841 0.63215,0.0925 0.0698,0.008 0.38275,-0.10078 0.69534,-0.24257 z m 7.24648,-2.87889 c 0.008,-0.0494 -0.0459,-0.11009 -0.11997,-0.13478 -0.19234,-0.0641 -0.44277,0.55011 -0.33605,0.8242 0.0756,0.19417 0.11729,0.16519 0.26548,-0.18459 0.0967,-0.22822 0.18243,-0.45539 0.19054,-0.50483 z m -7.49732,-0.86572 c 0,-0.10066 -0.0571,-0.18301 -0.127,-0.18301 -0.0699,0 -0.127,0.11768 -0.127,0.2615 0,0.14382 0.0571,0.22617 0.127,0.183 0.0698,-0.0432 0.127,-0.16084 0.127,-0.26149 z m 1.524,0.19799 c 0,-0.0698 0.11093,-0.127 0.2465,-0.127 0.13558,0 0.28029,-0.0546 0.32157,-0.12145 0.0413,-0.0668 0.15896,-0.0893 0.2615,-0.0499 0.12756,0.0489 0.18643,-0.013 0.18643,-0.19605 0,-0.33703 0.14601,-0.34268 0.35153,-0.0136 0.0872,0.1397 0.26101,0.254 0.38615,0.254 0.12513,0 0.2961,0.0686 0.37992,0.1524 0.10726,0.10726 0.19224,0.11256 0.28689,0.0179 0.0946,-0.0947 0.0353,-0.31222 -0.20049,-0.73448 -0.18424,-0.33 -0.41863,-0.8817 -0.52088,-1.226 -0.16183,-0.54495 -0.21593,-0.60993 -0.41781,-0.50189 -0.12755,0.0683 -0.26765,0.0884 -0.31133,0.0447 -0.10805,-0.10805 -0.58898,0.34053 -0.58898,0.54936 0,0.12124 -0.11426,0.14502 -0.41275,0.0859 -0.35855,-0.071 -0.39196,-0.0564 -0.25445,0.1109 0.12965,0.15778 0.11242,0.23416 -0.0952,0.4221 -0.13945,0.1262 -0.25355,0.33866 -0.25355,0.47213 0,0.13346 -0.063,0.36047 -0.14011,0.50446 -0.10758,0.20102 -0.10021,0.28709 0.0317,0.37071 0.23716,0.15028 0.74336,0.14061 0.74336,-0.0142 z m 0.127,-1.27 c 0,-0.0699 0.0572,-0.127 0.127,-0.127 0.0698,0 0.127,0.0571 0.127,0.127 0,0.0699 -0.0571,0.127 -0.127,0.127 -0.0698,0 -0.127,-0.0572 -0.127,-0.127 z m 0.635,-0.4445 c 0,-0.19177 0.0725,-0.3175 0.183,-0.3175 0.24044,0 0.34472,0.18185 0.24833,0.43304 -0.12359,0.32205 -0.43133,0.23961 -0.43133,-0.11554 z m 3.55893,1.32644 c 0.21287,-0.51392 -0.0148,-0.80314 -0.35309,-0.44852 -0.14661,0.1537 -0.1723,0.25039 -0.0761,0.2864 0.0799,0.0299 0.11609,0.16592 0.0804,0.30227 -0.10376,0.39678 0.17226,0.28584 0.34872,-0.14015 z m -3.79673,-2.37419 c 0.15797,-0.20143 0.15348,-0.20592 -0.0479,-0.048 -0.21155,0.16591 -0.27883,0.2702 -0.1743,0.2702 0.0264,0 0.12638,-0.10001 0.22225,-0.22225 z m -0.57802,-0.0626 c 0.0439,-0.0438 -0.0118,-0.21043 -0.12373,-0.37019 -0.1119,-0.15976 -0.21059,-0.24918 -0.21933,-0.19872 -0.009,0.0505 -0.023,0.14415 -0.0317,0.20818 -0.009,0.064 -0.0587,0.15928 -0.11112,0.21167 -0.17459,0.17458 -0.0982,0.30577 0.15548,0.26706 0.1379,-0.0211 0.2866,-0.0742 0.33045,-0.118 z m 3.44842,-1.31588 c -0.0422,-0.0422 -0.15174,-0.0467 -0.24341,-0.01 -0.10131,0.0405 -0.0712,0.0706 0.0767,0.0767 0.13388,0.006 0.20889,-0.0245 0.16668,-0.0667 z m -1.26735,-0.15612 c 0.44684,-0.0331 0.35943,-0.40215 -0.0952,-0.40215 -0.20955,0 -0.381,-0.0571 -0.381,-0.127 0,-0.0699 -0.15716,-0.12037 -0.34925,-0.11227 -0.21487,0.009 -0.26374,0.0371 -0.127,0.0728 0.22052,0.0576 0.31657,0.29345 0.11952,0.29345 -0.0565,0 -0.20011,0.0714 -0.31914,0.15875 -0.18492,0.13565 -0.13762,0.15721 0.32498,0.14815 0.29776,-0.006 0.66998,-0.0201 0.82714,-0.0318 z m 2.8575,-0.83826 c 0.30726,0.0662 0.34925,0.0375 0.34925,-0.23927 v -0.31456 l -0.7213,0.21412 c -0.39672,0.11777 -0.74341,0.28046 -0.77044,0.36153 -0.036,0.10814 0.0631,0.11483 0.37206,0.0251 0.23165,-0.0672 0.57834,-0.0884 0.77043,-0.047 z m 0.70694,-2.01843 c 0.0285,-0.24057 -0.0178,-0.33946 -0.15875,-0.33946 -0.13757,0 -0.19894,0.1208 -0.19894,0.39159 0,0.48589 0.29915,0.4423 0.35769,-0.0521 z m -3.02469,0.0975 c 0,-0.1089 -0.0581,-0.1621 -0.12907,-0.11823 -0.071,0.0439 -0.0962,0.13297 -0.056,0.198 0.10887,0.17615 0.18508,0.14331 0.18508,-0.0798 z m 5.83784,-1.97105 c -0.19847,-0.47915 -0.37684,-0.47439 -0.37684,0.01 0,0.254 0.0635,0.381 0.1905,0.381 0.10477,0 0.19713,0.10001 0.20523,0.22225 0.0133,0.20114 0.0204,0.20018 0.0747,-0.01 0.033,-0.12777 -0.009,-0.39923 -0.0936,-0.60325 z m 1.49143,-13.65802 c -0.0949,-0.0949 -0.84778,0.11057 -0.7839,0.21394 0.0353,0.0572 0.23735,0.0436 0.44892,-0.0301 0.21157,-0.0737 0.36231,-0.15646 0.33498,-0.18379 z m 1.17973,-0.20417 c 0,-0.0701 -0.12843,-0.093 -0.28575,-0.0508 -0.15716,0.0421 -0.36056,0.0774 -0.452,0.0783 -0.0914,10e-4 -0.13681,0.0494 -0.10084,0.10756 0.0893,0.14451 0.83859,0.0238 0.83859,-0.13506 z m 0.66917,-0.18107 c -0.086,-0.0348 -0.25744,-0.0369 -0.381,-0.005 -0.12357,0.0322 -0.0532,0.0607 0.15633,0.0632 0.20955,0.003 0.31065,-0.0238 0.22467,-0.0585 z m 1.10883,-0.0465 c 0,-0.0502 0.47628,-0.0894 1.05841,-0.0872 0.58213,0.002 1.13563,-0.0437 1.23002,-0.10202 0.0944,-0.0583 0.75275,-0.11824 1.46304,-0.13314 0.7103,-0.0149 1.3998,-0.0791 1.53224,-0.14278 0.13243,-0.0636 0.87886,-0.10554 1.65871,-0.0931 1.31959,0.021 1.42252,0.005 1.48415,-0.23066 0.0647,-0.24733 0.0184,-0.2516 -1.98943,-0.18361 -1.7276,0.0585 -5.4742,0.43896 -6.37364,0.64721 -0.1397,0.0324 -0.4135,0.0925 -0.60844,0.13369 -0.19495,0.0412 -0.32254,0.12649 -0.28355,0.18959 0.0831,0.13438 0.82849,0.13617 0.82849,0.002 z m -6.6675,51.18384 c 0.12643,-0.1397 0.25844,-0.254 0.29337,-0.254 0.0349,0 -0.0399,0.1143 -0.16637,0.254 -0.12643,0.1397 -0.25844,0.254 -0.29337,0.254 -0.0349,0 0.0399,-0.1143 0.16637,-0.254 z m -2.93468,-0.56511 c -1.36012,-0.52373 -1.59792,-0.68172 -1.50101,-0.99725 0.1231,-0.40078 0.15066,-0.40964 0.44508,-0.1432 0.18516,0.16757 0.47504,0.24543 0.95839,0.25741 0.5529,0.0137 1.48782,0.28193 1.81533,0.52079 0.0292,0.0213 -0.0233,0.18153 -0.11671,0.35605 -0.21449,0.40077 -0.5728,0.40216 -1.60108,0.006 z m -2.33589,-0.95134 c -0.33771,-0.19798 -3.50889,-0.78434 -4.37153,-0.80831 -0.86322,-0.024 -1.0593,-0.20955 -0.37032,-0.35046 0.58965,-0.1206 0.72011,-0.23242 0.5335,-0.45727 -0.12566,-0.15142 -0.12059,-0.21157 0.0256,-0.3033 0.10028,-0.0629 0.26805,-0.0892 0.37283,-0.0584 0.10477,0.0308 0.59055,0.11821 1.0795,0.19427 1.27951,0.19903 2.88832,0.76501 3.26205,1.14761 0.42853,0.43869 0.002,0.94878 -0.53162,0.6359 z m -8.37079,-0.83306 c 0.29006,-0.38417 0.59195,-0.7019 0.67087,-0.70607 0.0789,-0.004 0.41495,-0.0523 0.74674,-0.10686 0.54623,-0.0899 0.78,-0.01 0.49158,0.16846 -0.0614,0.038 -0.14057,0.17955 -0.1759,0.31464 -0.0565,0.21613 -0.0126,0.23725 0.36567,0.17587 0.27622,-0.0448 0.4299,-0.0184 0.4299,0.0738 0,0.079 -0.0143,0.14369 -0.0317,0.14379 -0.23755,0.001 -2.15512,0.39533 -2.42127,0.49754 -0.60997,0.23423 -0.62006,0.1596 -0.0758,-0.56122 z m 14.41152,-4.67272 c 0.0477,-0.12525 0.11871,-0.19574 0.15781,-0.15664 0.0391,0.0391 8e-5,0.14158 -0.0867,0.22773 -0.12543,0.12449 -0.14002,0.10991 -0.0711,-0.0711 z m -0.57966,-2.12178 c 0,-0.0699 0.0538,-0.127 0.1195,-0.127 0.0657,0 0.15483,0.0571 0.198,0.127 0.0432,0.0698 -0.0106,0.127 -0.1195,0.127 -0.1089,0 -0.198,-0.0572 -0.198,-0.127 z m 0.80136,-0.072 c 0.19628,-0.10894 0.42488,-0.17515 0.508,-0.14713 0.0831,0.028 0.22426,-0.0398 0.31362,-0.15071 0.14146,-0.17555 0.1579,-0.16056 0.127,0.11585 -0.032,0.28668 -0.0971,0.32054 -0.67048,0.34879 l -0.635,0.0313 z m -7.78636,-0.11849 c 0,-0.10949 0.11462,-0.1905 0.26955,-0.1905 0.2252,0 0.24354,0.0314 0.11145,0.1905 -0.087,0.10478 -0.20825,0.1905 -0.26955,0.1905 -0.0613,0 -0.11145,-0.0857 -0.11145,-0.1905 z m 9.09548,-0.0274 c -0.0268,-0.0268 0.0138,-0.18109 0.0902,-0.34293 0.11119,-0.23563 0.23474,-0.29174 0.62009,-0.28163 0.26468,0.007 0.48119,0.0422 0.48113,0.0783 -1.3e-4,0.0893 -1.13027,0.60745 -1.19142,0.5463 z m -4.65048,-0.13558 c 0,-0.11742 0.63412,-0.45178 0.711,-0.37489 0.0237,0.0237 -0.12651,0.14342 -0.33391,0.26593 -0.2074,0.12252 -0.37709,0.17155 -0.37709,0.10896 z m 3.048,0.0495 c 0,-0.0274 0.0857,-0.0828 0.1905,-0.12301 0.10477,-0.0402 0.1905,-0.0178 0.1905,0.0499 0,0.0677 -0.0857,0.12301 -0.1905,0.12301 -0.10478,0 -0.1905,-0.0225 -0.1905,-0.0499 z m -1.27,-0.24815 c 0.34857,-0.1837 0.45126,-0.17236 0.32272,0.0356 -0.046,0.0745 -0.20893,0.1346 -0.36197,0.13357 -0.26686,-0.002 -0.26525,-0.009 0.0393,-0.16919 z m 2.54,-0.0829 c -0.29556,-0.0947 -0.29827,-0.10255 -0.0393,-0.11434 0.15304,-0.007 0.31358,0.0445 0.35675,0.11434 0.0432,0.0698 0.0608,0.12131 0.0393,0.11435 -0.0216,-0.007 -0.18213,-0.0584 -0.35675,-0.11435 z m 8.48519,-0.21375 c 0.0917,-0.0367 0.20121,-0.0322 0.24341,0.01 0.0422,0.0422 -0.0328,0.0722 -0.16668,0.0667 -0.14795,-0.006 -0.17804,-0.0362 -0.0767,-0.0767 z m -2.49308,-0.35775 c 0.0796,-0.17462 0.19264,-0.3175 0.25128,-0.3175 0.14033,0 0.13449,0.0916 -0.0249,0.38935 -0.19537,0.36506 -0.39642,0.30126 -0.22642,-0.0718 z m 0.41042,0.11273 c 0.0417,-0.28442 0.33322,-0.40792 0.70947,-0.30061 0.3113,0.0888 0.30828,0.0946 -0.15467,0.29797 -0.58112,0.25527 -0.59189,0.25533 -0.5548,0.003 z m 0.58247,-0.10523 c 0,-0.0308 -0.0571,-0.0913 -0.127,-0.1345 -0.0699,-0.0432 -0.127,-0.018 -0.127,0.056 0,0.074 0.0571,0.13449 0.127,0.13449 0.0698,0 0.127,-0.0252 0.127,-0.056 z m -9.525,-0.071 c 0,-0.0699 0.0857,-0.127 0.1905,-0.127 0.10477,0 0.1905,0.0571 0.1905,0.127 0,0.0698 -0.0857,0.127 -0.1905,0.127 -0.10478,0 -0.1905,-0.0571 -0.1905,-0.127 z m 1.23151,-0.43092 c -0.052,-0.13224 -0.0646,-0.27035 -0.028,-0.30692 0.11583,-0.11583 0.21775,0.074 0.16921,0.31515 -0.0445,0.22103 -0.0513,0.22063 -0.14121,-0.008 z m 2.96338,0.11342 c 0,-0.23567 0.18479,-0.40494 0.53586,-0.49086 0.26524,-0.0649 0.34925,-0.0391 0.34925,0.10744 0,0.1101 -0.11226,0.19292 -0.2615,0.19292 -0.14382,0 -0.22617,0.0572 -0.183,0.127 0.0432,0.0699 0.018,0.127 -0.056,0.127 -0.074,0 -0.13538,-0.0714 -0.13644,-0.15875 -10e-4,-0.10583 -0.043,-0.0953 -0.12506,0.0317 -0.0677,0.10478 -0.12311,0.13335 -0.12311,0.0635 z m -5.97289,-0.3175 c 0,-0.0698 0.0538,-0.127 0.1195,-0.127 0.0657,0 0.15483,0.0571 0.198,0.127 0.0432,0.0699 -0.0106,0.127 -0.1195,0.127 -0.1089,0 -0.198,-0.0571 -0.198,-0.127 z m -9.2075,-8.509 c -0.0432,-0.0699 -0.20371,-0.12787 -0.35675,-0.12894 -0.22621,-0.002 -0.24262,-0.025 -0.0878,-0.12506 0.25459,-0.16452 1.05418,-0.16452 0.9525,0 -0.0432,0.0698 0.0535,0.1327 0.21475,0.13966 0.2893,0.0125 0.28898,0.014 -0.0243,0.11434 -0.45209,0.14479 -0.60902,0.14479 -0.6985,0 z m 0.95606,-0.24911 c -0.15628,-0.0988 -0.14587,-0.13128 0.0635,-0.19782 0.13774,-0.0438 0.34968,-0.13259 0.47097,-0.19734 0.12129,-0.0648 0.31813,-0.11773 0.43742,-0.11773 0.14761,0 0.0794,0.10143 -0.21345,0.3175 -0.48251,0.35599 -0.49813,0.36001 -0.75844,0.19539 z"
       id="path4729"
       inkscape:connector-curvature="0" />
    <text
       xml:space="preserve"
       style="font-style:normal;font-variant:normal;font-weight:normal;font-stretch:normal;font-size:10.58333302px;line-height:1.25;font-family:monospace;-inkscape-font-specification:monospace;letter-spacing:0px;word-spacing:0px;fill:#000000;fill-opacity:1;stroke:none;stroke-width:0.26458332"
       x="109.42411"
       y="190.41071"
       id="text4733"><tspan
         sodipodi:role="line"
         x="109.42411"
         y="190.41071"
         style="font-style:normal;font-variant:normal;font-weight:normal;font-stretch:normal;font-size:50.79999924px;font-family:Butcherman;-inkscape-font-specification:Butcherman;stroke-width:0.26458332"
         id="tspan4745">Custer   had</tspan><tspan
         sodipodi:role="line"
         x="109.42411"
         y="253.91071"
         style="font-style:normal;font-variant:normal;font-weight:normal;font-stretch:normal;font-size:50.79999924px;font-family:Butcherman;-inkscape-font-specification:Butcherman;stroke-width:0.26458332"
         id="tspan4749">it   coming.</tspan></text>
  </g>
</svg>
