<?xml version="1.0" encoding="UTF-8" standalone="no"?>
<!-- Created with Inkscape (http://www.inkscape.org/) -->

<svg
   xmlns:dc="http://purl.org/dc/elements/1.1/"
   xmlns:cc="http://creativecommons.org/ns#"
   xmlns:rdf="http://www.w3.org/1999/02/22-rdf-syntax-ns#"
   xmlns:svg="http://www.w3.org/2000/svg"
   xmlns="http://www.w3.org/2000/svg"
   xmlns:sodipodi="http://sodipodi.sourceforge.net/DTD/sodipodi-0.dtd"
   xmlns:inkscape="http://www.inkscape.org/namespaces/inkscape"
   width="103.46585mm"
   height="10.976664mm"
   viewBox="0 0 103.46585 10.976663"
   version="1.1"
   id="svg8"
   inkscape:version="0.92.1 15371"
   sodipodi:docname="tee-custer-had-it-coming2.svg"
   inkscape:export-filename="/home/erin/chahta/chahta-imagery/tees/tee-custer-had-it-coming2.svg.png"
   inkscape:export-xdpi="736.46997"
   inkscape:export-ydpi="736.46997">
  <defs
     id="defs2" />
  <sodipodi:namedview
     id="base"
     pagecolor="#ffffff"
     bordercolor="#666666"
     borderopacity="1.0"
     inkscape:pageopacity="0.0"
     inkscape:pageshadow="2"
     inkscape:zoom="0.9899495"
     inkscape:cx="231.36848"
     inkscape:cy="53.789395"
     inkscape:document-units="mm"
     inkscape:current-layer="layer1"
     showgrid="false"
     inkscape:pagecheckerboard="true"
     inkscape:window-width="3104"
     inkscape:window-height="1770"
     inkscape:window-x="96"
     inkscape:window-y="30"
     inkscape:window-maximized="1"
     fit-margin-top="0"
     fit-margin-left="0"
     fit-margin-right="0"
     fit-margin-bottom="0" />
  <metadata
     id="metadata5">
    <rdf:RDF>
      <cc:Work
         rdf:about="">
        <dc:format>image/svg+xml</dc:format>
        <dc:type
           rdf:resource="http://purl.org/dc/dcmitype/StillImage" />
        <dc:title></dc:title>
      </cc:Work>
    </rdf:RDF>
  </metadata>
  <g
     inkscape:label="Layer 1"
     inkscape:groupmode="layer"
     id="layer1"
     transform="translate(403.41777,-188.79462)">
    <path
       style="fill:#000000;stroke-width:0.35277778"
       d="m -400.18104,199.58388 c 0.10166,-0.10166 3.6603,-0.34209 7.9081,-0.5343 8.87004,-0.40136 10.41028,-0.73268 14.24966,-3.06516 l 2.64583,-1.60739 30.0906,-0.058 30.0906,-0.058 -0.0553,0.72539 c -0.10018,1.31322 0.009,1.32477 1.52206,0.1616 l 0.73926,-0.50079 -0.45056,0.64225 c -0.55965,0.79775 -1.11564,1.38868 -0.99956,1.50476 0.7424,0.7424 14.66887,-2.34866 14.48665,-3.2154 -0.25971,-1.2353 -13.86398,-3.4694 -13.86398,-2.27675 0,0.19403 0.11906,0.35777 0.26458,0.36386 0.38915,0.0163 0.88741,1.08464 0.50953,1.08464 -0.17663,0 0.002,0.29272 -0.46142,-0.16616 -0.88948,-0.88152 -2.42936,-1.53555 -2.42936,-1.03183 0,0.16393 0.25432,0.66115 0.56515,1.10492 0.31083,0.44378 0.48531,0.88671 0.38772,0.9843 -0.0976,0.0976 -14.28222,0.19473 -31.5214,0.21587 l -31.34397,0.0384 -2.52857,-1.12062 c -1.9854,-0.8799 -2.97057,-1.11026 -4.58612,-1.07236 l -2.52525,0.10677 2.20458,0.2508 c 2.13074,0.24241 5.49508,1.20481 5.49508,1.71337 0,0.13647 -2.32189,0.36101 -5.15975,0.49898 l -5.15975,0.25085 -1.01018,-0.96781 c -1.30328,-1.24862 -0.9914,-1.56515 0.4861,-0.49336 1.05553,0.76569 1.09171,0.77105 0.47681,0.0705 -0.75163,-0.85633 0.35998,-1.0617 2.47442,-1.29036 0.67909,-0.0734 -1.91487,-0.11728 -4.63126,-0.16889 -2.71639,-0.0516 -6.32795,-0.15078 -8.0257,-0.22038 -1.69774,-0.0696 -3.08434,-0.0131 -3.08133,0.12557 0.003,0.13867 0.90489,0.73528 2.00419,1.32581 2.3893,1.2835 2.68398,1.82559 1.09856,2.0209 -0.99729,0.12286 -2.45183,0.27741 -1.12026,0.32562 l 3.07117,-0.0688 -2.17679,1.96987 c -1.19723,1.08344 -2.17679,2.11531 -2.17679,2.29306 0,0.33828 2.2159,0.45913 2.53669,0.13834 z m -0.78723,-1.38729 c 0.44775,-0.47662 1.45199,-1.31006 2.23162,-1.85209 1.36107,-0.94626 1.66826,-0.99955 7.71448,-1.33828 3.46333,-0.19403 6.29677,-0.27886 6.29654,-0.18851 -7.1e-4,0.2985 -3.31914,3.5399 -3.62396,3.5399 -0.16426,0 -0.20055,-0.15875 -0.0806,-0.35278 0.29049,-0.47004 -0.28841,-0.45242 -0.76409,0.0233 -0.33186,0.33186 -5.89152,0.8357 -10.85088,0.98336 l -1.73719,0.0517 z m 14.18434,-0.16468 c 0.0647,-0.17914 0.80102,-1.05227 1.63632,-1.94028 l 1.51873,-1.61458 h 2.95034 c 1.62268,0 3.20144,-0.0964 3.50835,-0.21413 0.30691,-0.11777 0.55802,-0.0714 0.55802,0.10309 0,0.54622 -4.3363,2.88263 -6.35879,3.42612 -2.23265,0.59998 -3.98275,0.71003 -3.81297,0.23978 z m 74.34078,-3.03797 c 1.29044,-1.46973 1.31426,-1.6201 0.38932,-2.45717 -0.98523,-0.89161 -0.88157,-1.23472 0.37301,-1.23472 1.85097,0 5.96611,0.79053 5.76968,1.10837 -0.10291,0.16651 0.32497,0.30274 0.95084,0.30274 0.62587,0 1.02428,0.11368 0.88535,0.25261 -0.13894,0.13893 0.35054,0.43112 1.08773,0.64931 l 1.34033,0.3967 -2.08879,0.62798 c -2.31668,0.6965 -6.79244,1.50917 -8.61928,1.56501 l -1.18307,0.0362 z m -1.8655,-0.66571 c 0.10586,-0.27588 0.0159,-0.8315 -0.19987,-1.23472 -0.44713,-0.83547 0.0359,-0.99311 0.67675,-0.22089 0.4472,0.53885 0.19252,1.95721 -0.35143,1.95721 -0.17486,0 -0.23132,-0.22572 -0.12545,-0.5016 z m -85.06872,-0.82132 -2.10563,-1.32291 1.20057,-0.11458 c 0.76821,-0.0733 1.5305,0.1254 2.11667,0.5518 1.3705,0.9969 2.08456,1.30127 1.18067,0.50325 -0.43656,-0.38544 -0.79375,-0.79441 -0.79375,-0.90883 0,-0.11442 1.00074,-0.20803 2.22386,-0.20803 2.06874,0 2.30545,0.0842 3.3939,1.20719 l 1.17005,1.20718 -1.01265,0.15107 c -0.55696,0.0831 -1.97012,0.17485 -3.14036,0.20392 -1.89577,0.0471 -2.35723,-0.0913 -4.23333,-1.27006 z"
       id="path4550"
       inkscape:connector-curvature="0"
       sodipodi:nodetypes="cscccccccsscscscscsccccccssccscccscsccccsccccscsccccccccscsccccscsccccccccccsccccccssscccc" />
    <text
       xml:space="preserve"
       style="font-style:normal;font-variant:normal;font-weight:normal;font-stretch:normal;font-size:10.58333302px;line-height:1.25;font-family:Julee;-inkscape-font-specification:Julee;letter-spacing:0px;word-spacing:0px;fill:#000000;fill-opacity:1;stroke:none;stroke-width:0.26458332"
       x="-375.24469"
       y="193.81818"
       id="text4485"><tspan
         sodipodi:role="line"
         id="tspan4483"
         x="-375.24469"
         y="193.81818"
         style="font-size:7.05555534px;stroke-width:0.26458332">Custer had it coming.</tspan></text>
    <path
       style="fill:#000000;fill-opacity:1;fill-rule:nonzero;stroke:#0d0000;stroke-width:0.1;stroke-linecap:round;stroke-linejoin:miter;stroke-miterlimit:4;stroke-dasharray:none;stroke-dashoffset:0;stroke-opacity:1;paint-order:normal"
       d="m -343.94718,194.2171 c -1.16301,0.33437 -0.60971,3.67856 -0.60971,3.81694 0,0.13839 -0.11966,0.25057 -0.26727,0.25057 -0.14761,0 -0.26727,-0.11218 -0.26727,-0.25057 0.0293,-0.12459 0.61451,-2.35282 -0.51783,-3.77935"
       id="path4487"
       inkscape:connector-curvature="0"
       sodipodi:nodetypes="ccccc" />
    <path
       sodipodi:nodetypes="ccccc"
       inkscape:connector-curvature="0"
       id="path4490"
       d="m -338.10036,194.12852 c -1.16301,0.33437 -0.46206,3.12931 -0.46206,3.26769 0,0.13839 -0.11966,0.25057 -0.26727,0.25057 -0.14761,0 -0.26727,-0.11218 -0.26727,-0.25057 0.15923,-0.20727 0.21291,-2.71898 -0.44696,-3.24782"
       style="fill:#000000;fill-opacity:1;fill-rule:nonzero;stroke:#0d0000;stroke-width:0.1;stroke-linecap:round;stroke-linejoin:miter;stroke-miterlimit:4;stroke-dasharray:none;stroke-dashoffset:0;stroke-opacity:1;paint-order:normal" />
    <path
       style="fill:#000000;fill-opacity:1;fill-rule:nonzero;stroke:#0d0000;stroke-width:0.1;stroke-linecap:round;stroke-linejoin:miter;stroke-miterlimit:4;stroke-dasharray:none;stroke-dashoffset:0;stroke-opacity:1;paint-order:normal"
       d="m -340.05521,194.19939 c -1.16301,0.33437 -0.42662,1.83002 -0.42662,1.9684 0,0.13839 -0.11966,0.25057 -0.26727,0.25057 -0.14761,0 -0.26727,-0.11218 -0.26727,-0.25057 0.10017,-0.44941 0.39009,-1.44331 -0.26978,-1.97215"
       id="path4492"
       inkscape:connector-curvature="0"
       sodipodi:nodetypes="ccccc" />
  </g>
</svg>
